<svg version="1.1" id="Layer_1" xmlns="http://www.w3.org/2000/svg" xmlns:xlink="http://www.w3.org/1999/xlink" x="0px" y="0px"
	 width="100%" viewBox="0 0 1024 1024" enable-background="new 0 0 1024 1024" xml:space="preserve">
<path fill="#000000" opacity="1.000000" stroke="none" 
	d="
M176.246414,678.869141 
	C175.963120,681.745789 176.883133,684.303589 175.450653,686.535156 
	C173.482086,687.013245 172.612122,685.535583 171.545563,684.619324 
	C136.410095,654.435852 112.825607,617.363831 104.287483,571.395752 
	C102.616661,562.400269 101.650940,553.320007 101.658928,544.126465 
	C101.715851,478.630188 101.689415,413.133850 101.692673,347.637543 
	C101.693100,339.182098 102.751274,338.138855 111.503883,337.697418 
	C127.955910,336.867615 144.274673,334.957245 160.479782,331.949249 
	C188.230713,326.798096 215.351120,319.172058 241.123657,307.862701 
	C256.704193,301.025726 270.242157,299.998688 286.371552,307.198456 
	C316.202179,320.514069 347.993683,328.264008 380.305756,333.386932 
	C393.603455,335.495209 407.023346,336.677826 420.452484,337.629700 
	C426.462646,338.055725 428.261658,339.576874 428.262817,345.513885 
	C428.276093,413.343018 429.152832,481.189087 427.893127,548.995239 
	C427.070831,593.257690 409.142700,631.541077 379.613342,664.442627 
	C350.052246,697.379395 313.264801,719.603638 273.232483,737.268433 
	C266.983032,740.026062 262.018036,740.065430 255.936584,737.020569 
	C235.067810,726.571960 214.378021,715.881775 195.069626,702.668396 
	C188.208038,697.972778 184.793701,692.189331 184.971832,683.534851 
	C185.434280,661.066956 185.258377,638.585144 185.233719,616.109009 
	C185.230194,612.891846 186.418488,611.584473 189.638443,611.678467 
	C194.133850,611.809753 198.639771,611.787048 203.135742,611.650330 
	C212.317398,611.371216 217.050140,605.343567 215.282639,596.318604 
	C214.201508,590.798218 213.103104,585.281250 212.038422,579.894165 
	C213.993149,578.105774 216.086746,578.693237 217.995819,578.688538 
	C237.494598,578.639954 256.993561,578.655151 276.492462,578.659729 
	C286.699463,578.662109 289.026001,580.907837 289.064606,591.350281 
	C289.143494,612.682007 289.104340,634.014160 289.102325,655.346130 
	C289.101196,667.178711 289.047485,679.011475 289.092499,690.843811 
	C289.099823,692.768005 288.586548,694.813782 289.756805,696.619385 
	C296.875427,694.728394 297.813324,693.635498 297.816528,686.940125 
	C297.832092,654.442078 297.864014,621.944031 297.812561,589.446045 
	C297.791473,576.113831 291.899078,569.994385 278.479156,569.324036 
	C275.525360,569.176453 273.818909,568.416626 273.573273,565.127563 
	C273.339203,561.993530 272.638947,558.888123 272.047791,555.788391 
	C271.029816,550.450684 271.185333,545.527100 276.044220,541.840454 
	C278.884033,539.685791 278.774689,537.548584 276.279175,534.826538 
	C273.716003,532.030640 271.580841,528.766602 269.663971,525.471436 
	C266.624695,520.246765 267.326447,518.221802 272.988312,515.935486 
	C280.502441,512.901184 287.348236,508.922699 292.930054,502.980621 
	C294.407684,501.407654 295.734985,499.685791 297.052368,497.971619 
	C299.379486,494.943634 301.483917,495.449738 303.261536,498.416718 
	C306.620483,504.023224 308.017303,510.185547 307.276093,516.630493 
	C306.670441,521.896667 308.746643,524.356506 313.729889,525.960327 
	C323.544586,529.119080 333.139832,532.959167 342.830109,536.505798 
	C343.922882,536.905762 345.027771,537.291016 346.153931,537.577515 
	C348.427643,538.155701 350.127625,537.508484 350.788300,535.089539 
	C351.469940,532.593872 349.344818,532.445190 347.906921,531.880432 
	C339.386993,528.533752 330.879944,525.148438 322.293396,521.979919 
	C318.511414,520.584290 316.807343,518.787109 318.554047,514.532471 
	C320.245026,510.413544 322.621918,509.966858 326.412964,511.556183 
	C336.546082,515.804260 346.784027,519.801758 356.942108,523.991394 
	C358.448181,524.612610 360.057892,525.467346 361.094269,526.667664 
	C371.670776,538.917603 382.298035,551.087769 384.446350,568.192139 
	C385.313263,575.094177 387.219879,581.857544 387.425323,588.882507 
	C387.481110,590.790710 388.121613,592.681824 388.759888,595.938782 
	C393.208679,587.326721 394.951477,579.290588 396.611572,571.262512 
	C400.591644,552.014771 399.508026,532.495789 399.507263,513.039978 
	C399.506287,488.579773 399.473785,464.119537 399.471863,439.659332 
	C399.470062,416.857422 399.498077,394.055542 399.494873,371.253632 
	C399.494232,366.646423 397.880554,364.492279 392.543243,363.966858 
	C350.557831,359.834045 310.244019,348.792816 271.087830,333.355255 
	C266.408600,331.510406 262.365662,331.793518 257.733032,333.560059 
	C232.695328,343.107574 207.513107,352.248138 181.192215,357.773895 
	C166.538712,360.850159 151.786270,363.268036 136.846008,364.312561 
	C132.180191,364.638733 130.202744,366.248474 130.216690,371.326111 
	C130.377899,429.989075 130.174408,488.653290 130.443024,547.315491 
	C130.511871,562.351013 133.832932,577.003418 138.927994,591.188110 
	C139.358780,592.387451 139.567947,593.792358 141.105484,594.521790 
	C143.691406,589.775452 142.605453,584.444824 143.409073,579.471375 
	C144.630524,571.912354 146.091003,564.430908 147.964783,557.026855 
	C149.410339,551.314880 151.873810,546.054199 155.852219,541.601990 
	C156.184769,541.229858 156.529648,540.853394 156.782822,540.427795 
	C164.226013,527.914490 175.289642,520.566833 189.277161,517.008057 
	C194.408936,515.702393 199.331558,513.489746 204.244995,511.440063 
	C207.655075,510.017548 209.660660,510.998047 210.823715,514.318726 
	C211.995331,517.663879 212.041534,520.421082 207.910339,521.877380 
	C199.436096,524.864685 191.016708,528.010620 182.611313,531.187988 
	C180.773331,531.882751 177.654953,531.972168 178.736267,535.162048 
	C179.910538,538.626282 182.574066,536.726379 184.604568,536.055481 
	C195.818588,532.350159 206.980087,528.485229 218.206955,524.820007 
	C221.627121,523.703369 223.375351,522.319824 222.861374,518.101440 
	C222.054169,511.476654 222.304230,504.745209 226.015121,498.737000 
	C228.348190,494.959564 230.196747,494.704163 232.735199,498.287598 
	C238.837921,506.902344 247.074188,512.488647 256.761414,516.300720 
	C262.798615,518.676392 263.403107,520.351501 260.225128,526.092834 
	C257.654053,530.737793 254.676178,535.157593 251.874176,539.680481 
	C251.983429,539.986938 252.016556,540.477295 252.222763,540.566101 
	C259.505859,543.705322 259.958984,549.150330 258.586914,556.204041 
	C256.060730,569.191101 256.421051,569.257935 243.098297,569.260559 
	C232.598923,569.262573 222.098953,569.339539 211.600464,569.246277 
	C207.843262,569.212891 204.881241,570.476379 202.284775,573.180725 
	C195.130264,580.632507 187.964935,588.080261 180.586288,595.307434 
	C177.502167,598.328247 176.133774,601.563477 176.160019,605.903748 
	C176.306168,630.065674 176.240265,654.228821 176.246414,678.869141 
M308.374634,581.722595 
	C309.619537,586.835083 313.533051,589.697021 317.531799,592.426270 
	C323.950073,596.807007 335.430817,590.972046 335.793335,583.006348 
	C336.050476,577.357056 335.729248,571.682556 335.712708,566.019226 
	C335.703796,562.966980 334.335175,561.351013 331.191772,561.368347 
	C325.195190,561.401428 319.198151,561.379639 313.201843,561.435913 
	C309.650452,561.469238 308.205841,563.363953 308.308197,566.871033 
	C308.444153,571.531372 308.344543,576.198547 308.374634,581.722595 
M267.727722,649.339355 
	C250.571213,649.299133 233.414703,649.252441 216.258163,649.225281 
	C213.593948,649.221069 210.922379,649.199890 208.267548,649.381653 
	C206.019669,649.535461 204.575745,650.862183 204.260010,653.140015 
	C203.941559,655.437256 205.101059,656.908936 207.123932,657.869080 
	C208.860855,658.693420 210.692566,658.581482 212.518478,658.582214 
	C221.514023,658.585938 230.509583,658.571838 239.505127,658.576294 
	C248.161270,658.580627 256.817444,658.615662 265.473541,658.603333 
	C268.160156,658.599487 270.566162,657.736572 271.436523,654.994141 
	C272.250946,652.428040 271.194458,650.432678 267.727722,649.339355 
M244.744781,626.517395 
	C233.273804,626.482666 221.802765,626.417175 210.331863,626.432739 
	C207.096634,626.437134 204.102356,627.215332 204.236542,631.291504 
	C204.360306,635.050781 207.176926,635.659912 210.253601,635.659668 
	C218.567322,635.658936 226.881042,635.669800 235.194763,635.668701 
	C245.503754,635.667358 255.813522,635.730042 266.121368,635.618164 
	C270.302979,635.572815 272.676331,632.776733 271.275818,629.777710 
	C270.088806,627.235901 267.742157,626.408386 265.071655,626.425354 
	C258.588684,626.466553 252.105881,626.530457 244.744781,626.517395 
M221.506683,679.750610 
	C229.470276,679.754883 237.433853,679.754883 245.397446,679.765625 
	C248.276367,679.769531 250.467972,678.599182 250.441818,675.550049 
	C250.418747,672.859741 248.375549,671.346924 245.781113,671.324768 
	C233.339600,671.218262 220.896851,671.227539 208.454651,671.250244 
	C205.684433,671.255310 203.959656,672.900330 203.965118,675.556885 
	C203.970703,678.276184 205.848602,679.694275 208.565659,679.729248 
	C212.546677,679.780579 216.528824,679.744629 221.506683,679.750610 
M236.465332,613.083679 
	C246.077454,614.109802 255.720032,613.477600 265.348511,613.607483 
	C268.611298,613.651550 270.974884,612.055298 271.381409,608.875305 
	C271.735657,606.104126 269.566437,604.504272 267.016846,604.473816 
	C255.555954,604.336609 244.091675,604.342163 232.630615,604.471130 
	C230.211746,604.498291 228.630142,606.239807 228.499695,608.685730 
	C228.374695,611.029968 229.952652,612.293396 232.123199,612.735474 
	C233.253159,612.965637 234.430634,612.962524 236.465332,613.083679 
z"/>
<path fill="#000000" opacity="1.000000" stroke="none" 
	d="
M300.423157,366.484344 
	C308.834625,371.293396 317.103058,375.636169 324.963501,380.622131 
	C335.997467,387.621124 336.328674,397.441895 326.213501,405.790039 
	C325.571716,406.319641 324.949951,406.893677 324.242432,407.320221 
	C319.791595,410.003937 316.345093,413.068085 317.031647,419.126617 
	C317.269043,421.221680 315.739014,423.516998 314.830353,426.287872 
	C322.536102,430.835815 322.477112,437.917603 320.520355,445.740967 
	C318.706573,452.992798 316.772339,460.041901 309.363068,463.691772 
	C306.376831,465.162842 305.881500,467.801208 305.280212,470.637238 
	C300.976074,490.937927 284.336517,504.517181 264.065613,504.374146 
	C245.096893,504.240295 228.160400,489.352692 224.844482,469.547913 
	C224.340729,466.539185 223.014908,464.921539 220.671738,463.320648 
	C211.110748,456.788483 209.095825,446.731812 208.918671,436.184601 
	C208.848419,432.002655 212.259140,429.111420 215.321686,426.216370 
	C213.362091,422.750366 212.333282,419.144196 212.634033,415.216431 
	C212.859909,412.266235 210.569351,410.878479 208.707474,409.237427 
	C204.474884,405.506836 199.888199,402.094299 198.284531,396.209564 
	C196.752747,390.588654 197.941528,386.445343 202.841797,383.238983 
	C218.728653,372.843903 235.105164,363.275818 251.932800,354.471771 
	C260.912933,349.773468 269.542603,349.622437 278.450500,354.910858 
	C285.453094,359.068146 292.866913,362.532776 300.423157,366.484344 
M257.956970,407.484436 
	C247.031204,408.531708 236.151764,409.886200 225.512772,412.695312 
	C223.245224,413.294006 220.632782,413.973694 221.539780,417.241913 
	C222.358536,420.192108 224.592453,419.442444 226.840424,419.023834 
	C238.465439,416.859070 250.164429,415.667572 262.030182,415.531464 
	C275.926361,415.372101 289.596313,416.752228 303.114899,419.773529 
	C305.770203,420.366974 307.807434,420.450043 308.489471,417.360291 
	C309.155243,414.344208 306.872803,413.772430 304.712158,413.184357 
	C303.749817,412.922455 302.806183,412.588318 301.838562,412.350067 
	C287.732605,408.876556 273.469604,406.762512 257.956970,407.484436 
M262.656006,376.301971 
	C261.790436,378.413696 259.964142,378.990387 257.947815,379.515442 
	C256.336426,379.935089 254.041763,381.440857 255.262482,382.830536 
	C258.587280,386.615540 258.345093,390.839539 257.855988,396.169678 
	C263.229706,391.646423 268.326111,393.399414 273.821777,396.220276 
	C273.431458,390.222412 272.995850,385.112488 279.647491,381.371765 
	C272.534058,380.044098 268.169434,377.250305 265.965332,370.925140 
	C264.553284,373.204742 263.783783,374.446991 262.656006,376.301971 
z"/>
<path fill="#000000" opacity="1.000000" stroke="none" 
	d="
M465.670227,494.999878 
	C465.668945,480.667023 465.830505,466.831146 465.575562,453.002991 
	C465.488861,448.300781 467.305603,446.830963 471.717285,446.912506 
	C481.039001,447.084808 490.362061,446.755707 499.675812,447.649139 
	C512.203247,448.850891 522.599304,459.536652 523.371704,472.100525 
	C523.791626,478.932312 523.917542,485.730225 522.180786,492.404846 
	C520.856445,497.494568 518.619751,502.252289 514.430054,505.525116 
	C511.255157,508.005219 511.412262,510.289215 512.768311,513.662781 
	C517.051147,524.317444 520.921021,535.137268 525.084717,545.841064 
	C526.594177,549.721497 525.710510,551.233582 521.377563,551.358398 
	C506.194977,551.795593 506.184662,551.901794 501.034698,537.777588 
	C498.639771,531.209229 496.258240,524.635071 493.970093,518.029114 
	C492.989380,515.197632 492.003174,512.488708 488.218292,513.215393 
	C484.655121,513.899414 485.399902,516.868835 485.380554,519.238953 
	C485.307068,528.238037 485.247864,537.239624 485.391296,546.236938 
	C485.449036,549.857483 484.089783,551.481201 480.430481,551.320190 
	C477.436432,551.188354 474.418640,551.115845 471.435211,551.337830 
	C467.064697,551.663086 465.574219,549.794128 465.613586,545.497559 
	C465.766357,528.832886 465.672241,512.165955 465.670227,494.999878 
M501.873169,469.811676 
	C499.253754,464.916321 494.643585,464.505554 489.852448,464.426971 
	C486.804901,464.376984 485.265076,465.535461 485.321960,468.843719 
	C485.453613,476.499390 485.358215,484.158844 485.372253,491.816742 
	C485.374695,493.151306 485.404968,494.462799 486.812653,495.280334 
	C491.583618,498.051086 500.663696,494.912262 502.430725,489.600372 
	C504.538116,483.265320 504.185974,476.840302 501.873169,469.811676 
z"/>
<path fill="#000000" opacity="1.000000" stroke="none" 
	d="
M847.547607,511.619995 
	C850.090454,523.554443 852.503052,535.085510 854.999817,546.598328 
	C855.709717,549.871460 854.515137,551.335876 851.218201,551.303650 
	C847.221558,551.264587 843.224121,551.256042 839.227600,551.294556 
	C836.402100,551.321777 835.023193,550.004822 834.629700,547.186279 
	C834.055847,543.075928 833.217896,539.002380 832.485718,534.914307 
	C831.940552,531.870728 830.508179,530.134949 827.027710,530.648987 
	C824.908020,530.961975 822.702820,530.878418 820.549622,530.748230 
	C813.186646,530.302979 813.189392,530.265137 811.719604,537.295044 
	C811.651611,537.620178 811.542419,537.937256 811.484131,538.263794 
	C808.847900,553.047913 811.763367,551.221985 795.881470,551.302734 
	C790.017517,551.332520 789.548340,550.815247 790.737000,544.848999 
	C793.331970,531.824097 796.079956,518.829407 798.805542,505.830750 
	C802.417480,488.605408 806.193176,471.412964 809.622314,454.151520 
	C810.600952,449.225616 812.669067,446.889496 817.905518,447.583862 
	C823.124451,448.275909 829.485962,445.490540 833.391296,448.878876 
	C837.047607,452.051178 836.276184,458.473969 837.365295,463.475494 
	C840.825317,479.365417 844.101929,495.295319 847.547607,511.619995 
M821.704712,477.351685 
	C820.046753,487.831299 818.519775,498.334229 816.661621,508.778229 
	C815.986694,512.571777 816.992065,514.182190 820.867798,513.854919 
	C821.858704,513.771240 822.864197,513.810974 823.860718,513.851318 
	C827.397827,513.994568 828.927307,513.099609 828.090820,508.885437 
	C825.962402,498.162811 824.413818,487.325073 822.632812,476.533508 
	C822.545593,476.005341 822.332642,475.935516 822.032959,476.347382 
	C821.938538,476.477142 821.908875,476.653931 821.704712,477.351685 
z"/>
<path fill="#000000" opacity="1.000000" stroke="none" 
	d="
M587.712463,519.000000 
	C587.705750,506.185791 587.862671,493.868256 587.609924,481.559113 
	C587.514648,476.919922 589.195251,475.033020 593.705139,475.634033 
	C597.823914,476.182861 602.338684,474.104706 606.084290,477.610138 
	C606.483215,477.983521 608.200256,477.102631 609.223694,476.626923 
	C612.920044,474.908752 616.827454,474.148956 620.850525,474.321503 
	C631.618042,474.783356 638.033691,479.914093 639.946411,491.108459 
	C642.392822,505.426483 642.437500,519.975403 639.895142,534.280884 
	C637.727417,546.477905 627.054382,557.740784 606.260742,548.822266 
	C606.260742,555.068176 606.242737,560.931580 606.264465,566.794800 
	C606.310364,579.151978 607.172119,578.322754 594.562805,578.271606 
	C588.241272,578.245972 587.722412,577.720642 587.716064,571.419434 
	C587.698608,554.112976 587.711914,536.806458 587.712463,519.000000 
M607.258728,495.036774 
	C606.416748,496.543884 606.276367,498.195923 606.273315,499.872192 
	C606.256226,509.357574 606.163696,518.843811 606.262268,528.327942 
	C606.313843,533.283875 608.753235,536.158203 613.286255,536.350586 
	C617.513000,536.529968 620.930786,534.676880 621.650269,530.165833 
	C623.411804,519.121155 623.240112,508.016937 621.746460,496.955414 
	C621.283081,493.523773 619.037903,491.156708 615.593567,490.548828 
	C612.201477,489.950165 609.376160,491.196045 607.258728,495.036774 
z"/>
<path fill="#000000" opacity="1.000000" stroke="none" 
	d="
M902.446106,548.623413 
	C894.199341,554.256836 886.084961,552.478760 877.280518,548.738403 
	C877.280518,556.806213 877.302979,564.230469 877.273560,571.654602 
	C877.249146,577.814270 876.826843,578.217285 870.794067,578.271301 
	C858.878784,578.377991 858.905457,578.377869 858.910706,566.330811 
	C858.922791,538.711121 858.900696,511.091461 858.904785,483.471802 
	C858.905945,475.711548 858.985046,475.463287 866.646423,475.722321 
	C870.278503,475.845184 874.748779,473.798309 877.220093,478.819885 
	C882.110413,475.523285 887.467041,474.222076 893.285400,474.528687 
	C901.770081,474.975739 907.759521,479.408264 910.168030,487.568146 
	C911.579041,492.348389 912.471130,497.258026 912.304077,502.302551 
	C911.963135,512.594055 913.126221,522.933899 911.330383,533.178223 
	C910.264526,539.258423 907.912415,544.626160 902.446106,548.623413 
M877.234497,503.652893 
	C877.263000,512.143188 877.285400,520.633545 877.322815,529.123840 
	C877.340088,533.047913 879.527039,535.216125 883.134033,536.202942 
	C886.639954,537.162109 889.368347,535.744690 891.465088,533.128235 
	C892.949463,531.276001 893.505676,528.854980 893.540344,526.556213 
	C893.675903,517.569092 893.645081,508.578094 893.541199,499.590088 
	C893.524475,498.144348 893.001648,496.625610 892.398926,495.281342 
	C890.991394,492.141998 888.625854,490.243561 884.994324,490.422913 
	C881.428345,490.598999 879.186951,492.498810 877.937805,495.796143 
	C877.080139,498.060120 877.399109,500.397003 877.234497,503.652893 
z"/>
<path fill="#000000" opacity="1.000000" stroke="none" 
	d="
M972.282776,495.352600 
	C972.308411,506.799591 972.460632,517.787048 972.272156,528.768677 
	C972.066406,540.757019 965.092102,549.914001 954.850525,551.953186 
	C949.034668,553.111206 943.711975,551.264160 938.104980,548.306702 
	C936.766846,556.130493 937.503174,563.572021 937.378296,570.959900 
	C937.256165,578.187256 937.303162,578.258789 930.165955,578.249451 
	C918.657776,578.234375 919.657959,579.276733 919.652466,567.826355 
	C919.638977,539.531677 919.644348,511.236969 919.649597,482.942291 
	C919.650940,475.656860 919.667480,475.507019 927.162292,475.702698 
	C930.648376,475.793732 934.513245,474.319580 937.519226,477.631439 
	C938.257812,478.445190 939.368042,477.596313 940.286194,477.242218 
	C958.445312,470.239014 968.187317,475.620453 972.282776,495.352600 
M954.008911,528.299988 
	C955.019775,518.338196 955.090820,508.383636 953.791992,498.438232 
	C953.210693,493.987000 951.081360,490.882019 946.325989,490.465271 
	C942.062683,490.091644 939.203064,492.722656 938.174072,498.170563 
	C936.365601,507.744171 937.582336,517.437256 937.427490,527.073914 
	C937.339478,532.547607 940.049805,535.656433 944.618652,536.397827 
	C948.663940,537.054260 952.005676,534.397339 954.008911,528.299988 
z"/>
<path fill="#000000" opacity="1.000000" stroke="none" 
	d="
M579.940857,537.522339 
	C576.107300,549.431030 561.854675,553.645935 550.754150,551.961731 
	C536.582764,549.811768 529.131226,541.748901 528.125366,526.501770 
	C527.438110,516.084045 527.093811,505.549103 528.630493,495.105835 
	C530.311768,483.679749 538.452332,475.698608 549.928223,474.780090 
	C555.037598,474.371094 560.227600,474.185059 565.276123,475.811096 
	C573.570679,478.482727 579.426636,485.831665 580.385376,494.512878 
	C581.082642,500.825867 580.956665,507.140656 581.048889,513.462280 
	C581.108948,517.574463 579.527710,519.527039 575.113647,519.385986 
	C567.628052,519.146667 560.122192,519.515320 552.638550,519.246582 
	C548.380676,519.093689 546.914124,520.774597 547.324280,524.800598 
	C547.558167,527.096863 547.161316,529.422363 548.137268,531.678711 
	C549.473328,534.767578 551.778809,536.348389 555.029663,536.611633 
	C558.244873,536.872009 561.466553,536.072266 562.591553,532.970459 
	C564.069946,528.894104 566.789124,528.307068 570.373779,528.642822 
	C571.034119,528.704590 571.705139,528.652344 572.371216,528.652649 
	C581.059021,528.656677 581.059021,528.656677 579.940857,537.522339 
M554.544312,505.684845 
	C563.982300,505.669128 565.750610,503.257874 562.633972,494.654114 
	C561.192627,490.675262 557.551941,488.935883 552.940186,490.022858 
	C547.812256,491.231476 546.574158,494.195007 547.122070,501.913483 
	C547.472717,506.852966 550.890869,505.428162 554.544312,505.684845 
z"/>
<path fill="#000000" opacity="1.000000" stroke="none" 
	d="
M667.251221,551.255493 
	C655.353394,547.924500 650.681580,539.218628 650.064209,528.370667 
	C649.404724,516.784180 648.743042,505.097046 650.683899,493.522888 
	C652.328308,483.716736 658.249390,477.515808 668.056030,475.290070 
	C673.148315,474.134369 678.375244,474.162109 683.434387,475.064636 
	C694.591492,477.055023 701.459534,483.864746 702.887817,496.110931 
	C704.233765,507.650848 704.429688,519.494629 702.842529,530.990295 
	C700.149292,550.497620 683.868958,553.437988 671.091858,551.957275 
	C669.940063,551.823792 668.806335,551.533325 667.251221,551.255493 
M671.362488,491.728271 
	C669.293823,493.460388 668.473938,495.884308 668.442871,498.372162 
	C668.318359,508.342255 668.187073,518.321350 668.489380,528.284058 
	C668.656799,533.803040 671.866089,536.734070 676.431458,536.647400 
	C681.065125,536.559448 684.327820,533.593628 684.667908,528.409363 
	C685.298340,518.798096 685.502014,509.147125 684.810303,499.539581 
	C684.203430,491.110657 680.117798,488.680634 671.362488,491.728271 
z"/>
<path fill="#000000" opacity="1.000000" stroke="none" 
	d="
M779.195129,532.698181 
	C780.167358,533.653442 780.913147,534.304749 781.692200,534.913513 
	C783.318420,536.184143 786.690308,534.811340 787.005249,537.717285 
	C787.414368,541.493103 787.228577,545.352417 787.046387,549.163757 
	C786.975647,550.643066 785.493958,551.091492 784.158569,551.522644 
	C772.074951,555.423584 761.079956,548.184875 759.611938,535.540527 
	C758.106445,522.573120 759.201721,509.577972 758.881897,496.600189 
	C758.801086,493.319977 759.143982,490.062256 754.289856,490.142944 
	C752.537292,490.172119 751.735779,488.759521 751.712158,487.048065 
	C751.677612,484.549225 751.707275,482.049500 751.668396,479.550751 
	C751.632019,477.210449 752.440430,475.623169 755.065491,475.666565 
	C758.305542,475.720123 758.911316,473.683929 758.831238,471.051605 
	C758.810974,470.385773 758.830750,469.718567 758.836975,469.052063 
	C758.939514,458.066345 763.142761,455.030273 774.015320,458.042694 
	C776.048401,458.606018 777.154480,459.843536 777.209595,461.946259 
	C777.261902,463.944641 777.254089,465.944794 777.258301,467.944214 
	C777.273010,474.934082 777.262390,475.035797 784.404907,475.614746 
	C787.133606,475.835876 788.330811,476.997528 788.293396,479.648499 
	C788.267517,481.481049 788.170654,483.325104 788.326538,485.145081 
	C788.662476,489.066193 786.919678,490.817841 783.072144,490.285675 
	C778.385742,489.637451 777.007324,491.670776 777.148499,496.202942 
	C777.449463,505.859009 777.311462,515.529663 777.292908,525.194214 
	C777.288025,527.746826 777.610291,530.171448 779.195129,532.698181 
z"/>
<path fill="#000000" opacity="1.000000" stroke="none" 
	d="
M729.349487,518.024414 
	C729.347290,527.672729 729.233093,536.827637 729.396179,545.977478 
	C729.463745,549.770386 728.178223,551.444824 724.227478,551.357971 
	C710.434998,551.054871 711.026306,553.374023 711.074524,538.799927 
	C711.136658,520.007629 711.096985,501.214935 711.076050,482.422394 
	C711.069092,476.163849 711.511047,475.678070 717.820129,475.635345 
	C719.983398,475.620697 722.154663,475.753174 724.308533,475.610687 
	C727.328979,475.410919 729.597473,476.098816 729.704163,480.253082 
	C734.053955,477.001343 737.853760,474.127747 743.127869,474.598450 
	C745.972778,474.852325 747.475647,475.800568 747.574097,478.702728 
	C747.664185,481.358398 747.756287,484.016022 747.943787,486.665985 
	C748.255981,491.078735 747.324524,493.437286 741.850830,492.695038 
	C736.620544,491.985779 732.064636,496.639404 730.368896,502.658691 
	C728.987183,507.563019 729.431763,512.555664 729.349487,518.024414 
z"/>
<path fill="#000000" opacity="1.000000" stroke="none" 
	d="
M195.901337,592.908264 
	C198.586609,590.726807 200.165649,587.785461 203.486511,586.448059 
	C206.007278,590.233948 206.341248,594.534546 206.763809,598.720825 
	C207.063217,601.686890 204.754044,602.774353 202.269943,602.957703 
	C197.493240,603.310059 192.696442,603.531799 186.941818,602.818542 
	C189.201096,598.509949 192.974976,596.282593 195.901337,592.908264 
z"/>
</svg>