<svg id="svg" version="1.1" xmlns="http://www.w3.org/2000/svg" xmlns:xlink="http://www.w3.org/1999/xlink" width="400" height="400" viewBox="0, 0, 400,400"><g id="svgg"><path id="path0" d="M198.268 12.456 C 196.542 13.109,194.107 14.040,192.857 14.525 C 187.076 16.767,185.341 17.436,176.732 20.741 C 175.184 21.336,173.479 21.970,172.944 22.152 C 172.408 22.334,171.142 22.796,170.130 23.180 C 167.957 24.005,152.973 29.088,151.407 29.532 C 150.812 29.701,148.961 30.240,147.294 30.729 C 138.888 33.200,129.332 35.681,123.087 37.014 C 120.806 37.501,118.111 38.088,117.100 38.320 C 115.160 38.763,107.238 40.150,102.489 40.878 C 92.421 42.421,83.436 43.362,71.144 44.161 C 64.644 44.584,63.336 44.910,62.440 46.330 L 61.899 47.187 61.961 139.016 C 62.009 211.190,62.081 231.400,62.296 233.442 C 62.845 238.652,63.683 244.058,64.862 250.000 C 65.389 252.651,65.593 253.537,66.485 257.035 C 67.605 261.427,70.732 271.195,71.751 273.485 C 71.909 273.842,72.296 274.816,72.609 275.649 C 72.922 276.483,73.369 277.565,73.602 278.054 C 73.835 278.543,74.026 279.002,74.026 279.074 C 74.026 279.146,74.354 279.914,74.754 280.782 C 75.154 281.649,75.653 282.749,75.862 283.225 C 76.401 284.450,80.091 291.839,80.295 292.100 C 80.388 292.219,80.804 292.949,81.220 293.723 C 82.642 296.366,83.049 297.080,84.741 299.892 C 92.979 313.587,104.753 327.765,116.883 338.596 C 118.371 339.925,119.637 341.064,119.697 341.127 C 119.756 341.190,120.534 341.873,121.424 342.645 C 122.315 343.416,123.360 344.364,123.747 344.751 C 125.225 346.228,125.108 349.281,125.111 309.145 C 125.115 268.798,125.037 270.989,126.531 269.053 C 127.285 268.076,129.195 266.104,140.897 254.221 C 144.296 250.768,147.606 247.322,148.252 246.562 C 149.555 245.030,151.517 243.915,153.699 243.468 C 154.493 243.305,161.191 243.209,174.522 243.170 C 195.220 243.110,194.805 243.126,194.805 242.420 C 194.805 242.172,194.999 240.927,195.237 239.653 C 195.971 235.718,196.317 233.718,196.536 232.143 C 196.652 231.310,196.845 230.043,196.965 229.329 C 197.794 224.398,197.262 223.522,191.301 220.009 C 189.534 218.968,189.375 218.558,190.342 217.535 C 192.609 215.137,196.913 208.729,198.703 205.087 C 200.275 201.890,199.456 200.174,195.662 198.711 C 186.377 195.130,180.178 190.698,175.238 184.109 C 172.225 180.089,171.999 179.961,170.604 181.474 C 167.376 184.976,165.477 194.363,166.750 200.520 C 167.519 204.238,167.392 204.407,162.771 205.834 C 160.537 206.523,151.068 209.635,150.433 209.888 C 150.254 209.959,146.407 211.278,141.883 212.818 C 127.995 217.546,128.302 217.481,127.685 215.801 C 126.576 212.782,126.441 211.688,127.178 211.688 C 127.493 211.688,135.142 209.006,138.230 207.813 C 139.168 207.451,142.760 206.125,146.212 204.866 C 156.366 201.165,155.844 201.447,155.844 199.668 C 155.844 198.263,155.064 195.701,154.240 194.400 C 153.510 193.246,152.881 193.251,150.097 194.433 C 149.151 194.834,146.575 195.824,144.372 196.633 C 142.170 197.442,140.173 198.184,139.935 198.282 C 139.431 198.489,134.929 200.209,131.494 201.507 C 130.184 202.001,128.382 202.686,127.489 203.027 C 126.596 203.369,124.843 204.012,123.593 204.456 C 120.485 205.560,119.861 206.022,117.910 208.660 C 116.987 209.909,115.313 212.100,114.191 213.528 C 112.103 216.186,111.866 216.479,109.647 219.135 C 106.400 223.020,104.610 225.826,103.453 228.846 C 103.214 229.469,102.927 230.173,102.816 230.411 C 102.704 230.649,102.457 231.429,102.267 232.143 C 102.076 232.857,101.722 234.172,101.478 235.065 C 100.976 236.910,100.364 239.609,99.906 241.996 C 99.735 242.891,99.496 243.881,99.377 244.194 C 99.258 244.508,99.096 245.383,99.018 246.138 C 98.939 246.893,98.744 248.047,98.584 248.701 C 98.424 249.356,98.234 250.525,98.161 251.299 C 98.088 252.073,97.884 253.631,97.708 254.762 C 97.532 255.893,97.298 258.133,97.188 259.740 C 96.481 270.079,96.525 269.756,95.839 269.658 C 95.452 269.603,95.307 269.372,95.115 268.506 C 94.983 267.910,94.775 267.228,94.652 266.991 C 94.175 266.068,93.506 264.480,93.506 264.269 C 93.506 264.148,93.312 263.645,93.074 263.152 C 92.835 262.660,92.641 262.142,92.641 262.001 C 92.641 261.861,92.455 261.270,92.228 260.689 C 92.000 260.108,91.601 258.902,91.339 258.009 C 91.078 257.116,90.692 255.801,90.482 255.087 C 88.636 248.809,87.111 241.276,86.582 235.823 C 86.478 234.751,86.282 233.047,86.147 232.035 C 85.568 227.704,85.129 73.319,85.682 68.352 C 85.887 66.506,85.646 66.646,89.005 66.428 C 90.588 66.326,92.614 66.143,93.506 66.021 C 94.399 65.900,96.834 65.653,98.918 65.473 C 101.001 65.292,102.852 65.100,103.030 65.045 C 103.209 64.991,104.280 64.845,105.411 64.722 C 107.536 64.491,108.788 64.304,115.584 63.202 C 123.836 61.865,128.500 60.931,137.879 58.733 C 142.025 57.762,147.458 56.284,152.922 54.642 C 153.874 54.356,155.774 53.787,157.143 53.379 C 160.183 52.472,166.232 50.460,170.887 48.807 C 172.792 48.130,174.602 47.500,174.910 47.407 C 175.443 47.245,177.241 46.599,185.281 43.681 C 191.536 41.410,196.367 39.605,198.492 38.743 C 201.900 37.361,202.674 37.398,207.359 39.168 C 208.371 39.550,209.594 39.990,210.076 40.146 C 210.559 40.302,211.679 40.744,212.566 41.127 C 213.452 41.511,214.470 41.905,214.827 42.002 C 215.388 42.156,217.055 42.759,219.913 43.841 C 221.987 44.626,226.376 46.163,226.953 46.307 C 227.313 46.396,227.812 46.578,228.061 46.712 C 228.311 46.846,228.893 47.045,229.355 47.156 C 229.817 47.266,230.682 47.529,231.277 47.739 C 236.706 49.657,239.345 50.509,243.182 51.583 C 244.253 51.882,245.860 52.369,246.753 52.664 C 247.646 52.959,249.156 53.408,250.108 53.663 C 251.061 53.918,252.424 54.306,253.139 54.526 C 253.853 54.746,255.265 55.135,256.277 55.391 C 257.289 55.647,258.555 55.991,259.091 56.155 C 259.627 56.319,260.406 56.519,260.823 56.600 C 261.239 56.680,262.067 56.884,262.662 57.053 C 263.940 57.416,270.939 59.070,272.186 59.304 C 272.662 59.393,275.244 59.923,277.922 60.482 C 283.043 61.551,284.825 61.878,291.342 62.950 C 298.211 64.080,304.278 64.892,312.662 65.805 C 319.073 66.503,318.581 66.404,318.911 67.059 C 319.106 67.446,319.251 68.929,319.342 71.480 C 319.497 75.796,319.532 226.091,319.379 227.273 C 319.325 227.689,319.172 229.589,319.040 231.494 C 318.367 241.184,316.515 250.376,313.240 260.281 C 312.599 262.223,311.858 264.221,311.475 265.043 C 311.014 266.033,310.203 268.204,310.072 268.798 C 309.908 269.547,309.170 270.301,308.892 270.006 C 308.788 269.895,308.653 268.588,308.593 267.100 C 308.205 257.531,305.079 238.585,303.254 234.740 C 303.141 234.502,302.937 233.869,302.802 233.333 C 302.666 232.798,302.484 232.262,302.398 232.143 C 302.311 232.024,302.120 231.488,301.972 230.952 C 301.690 229.925,301.597 229.701,300.315 226.950 C 299.168 224.489,296.730 221.080,293.277 217.109 C 292.496 216.211,291.389 214.892,290.815 214.177 C 290.242 213.463,289.469 212.538,289.097 212.121 C 288.724 211.705,287.861 210.614,287.179 209.697 C 285.256 207.117,282.573 204.978,281.259 204.978 C 281.148 204.978,279.354 204.284,277.271 203.434 C 275.189 202.585,273.047 201.720,272.511 201.511 C 270.204 200.613,267.983 199.719,266.775 199.199 C 266.061 198.893,265.281 198.564,265.043 198.469 C 264.805 198.374,264.123 198.088,263.528 197.834 C 262.933 197.579,261.587 197.034,260.536 196.621 C 259.486 196.209,258.463 195.787,258.264 195.683 C 257.551 195.314,255.276 194.402,253.618 193.820 L 251.933 193.229 251.382 193.746 C 250.289 194.772,248.513 199.220,248.776 200.270 C 248.978 201.071,250.979 202.029,256.818 204.119 C 257.532 204.375,258.521 204.766,259.016 204.989 C 259.510 205.212,260.582 205.633,261.397 205.925 C 262.212 206.217,263.366 206.657,263.961 206.902 C 266.574 207.979,270.802 209.609,272.294 210.114 C 273.187 210.417,274.405 210.884,275.000 211.152 C 275.595 211.421,276.402 211.708,276.793 211.791 C 278.281 212.108,278.415 213.121,277.367 216.126 C 276.626 218.248,275.662 218.261,270.130 216.221 C 269.118 215.848,267.900 215.414,267.424 215.257 C 262.997 213.793,248.242 208.443,247.265 207.948 C 246.924 207.775,245.574 207.268,244.264 206.821 C 238.341 204.801,238.156 204.613,238.533 200.994 C 238.870 197.755,238.717 192.666,238.218 190.584 C 237.814 188.898,236.946 186.192,236.610 185.574 C 236.490 185.354,236.264 184.857,236.109 184.470 C 235.953 184.083,235.751 183.766,235.661 183.766 C 235.571 183.766,235.498 183.674,235.498 183.561 C 235.498 182.865,233.368 180.519,232.736 180.519 C 232.623 180.519,231.722 181.567,230.734 182.846 C 227.314 187.278,222.522 191.649,218.290 194.200 C 216.706 195.155,212.661 197.186,212.345 197.186 C 212.219 197.186,211.946 197.281,211.739 197.397 C 211.533 197.513,210.438 198.035,209.307 198.558 C 205.528 200.304,204.954 201.601,206.562 204.762 C 208.200 207.981,211.855 212.957,214.352 215.367 C 216.109 217.062,216.104 217.079,212.772 220.437 C 208.027 225.219,207.931 225.830,210.071 237.554 C 210.245 238.506,210.451 239.900,210.529 240.650 C 210.731 242.601,211.159 243.073,212.732 243.076 C 214.839 243.080,219.543 243.661,220.563 244.043 C 227.599 246.675,231.111 251.450,231.603 259.050 C 231.887 263.427,231.885 349.647,231.601 350.649 C 231.359 351.506,230.975 351.787,227.922 353.347 C 226.791 353.925,225.271 354.772,224.544 355.229 C 223.074 356.153,222.726 356.240,222.729 355.682 C 222.916 322.151,222.562 257.545,222.186 256.633 C 221.305 254.492,219.526 253.032,217.310 252.630 C 215.437 252.291,157.143 252.292,157.143 252.632 C 157.143 252.776,157.280 253.485,157.448 254.207 C 161.257 270.613,161.268 275.047,157.510 278.177 C 154.361 280.799,152.682 281.135,142.316 281.217 C 138.149 281.250,134.618 281.356,134.468 281.453 C 134.169 281.647,134.103 345.823,134.399 349.259 C 134.543 350.926,134.599 351.073,135.608 352.384 C 138.373 355.977,140.406 357.597,149.784 363.682 C 155.379 367.313,166.974 374.114,172.511 377.013 C 173.999 377.792,175.996 378.857,176.948 379.381 C 180.339 381.244,195.933 388.868,200.842 391.063 C 202.161 391.653,203.212 391.347,209.199 388.638 C 212.294 387.238,216.142 385.511,217.749 384.801 C 226.326 381.013,240.641 373.530,249.567 368.168 C 252.917 366.157,260.210 361.519,260.390 361.287 C 260.449 361.210,261.569 360.425,262.879 359.543 C 277.202 349.894,294.699 334.003,306.514 319.913 C 307.162 319.140,307.886 318.250,308.122 317.936 C 308.357 317.623,309.378 316.313,310.390 315.025 C 311.402 313.738,312.376 312.472,312.554 312.211 C 312.733 311.951,313.853 310.340,315.043 308.631 C 318.387 303.830,320.884 299.885,323.109 295.887 C 323.407 295.352,323.722 294.816,323.809 294.697 C 324.029 294.397,326.306 290.065,327.281 288.095 C 328.586 285.456,330.736 280.797,330.736 280.608 C 330.736 280.544,330.966 279.987,331.247 279.369 C 331.529 278.752,331.984 277.614,332.258 276.840 C 332.533 276.066,332.821 275.335,332.900 275.216 C 332.978 275.097,333.213 274.513,333.421 273.918 C 333.629 273.323,333.881 272.641,333.981 272.403 C 334.080 272.165,334.424 271.190,334.744 270.238 C 335.064 269.286,335.416 268.312,335.527 268.074 C 335.637 267.835,335.866 267.154,336.036 266.558 C 336.207 265.963,336.748 264.113,337.239 262.446 C 339.934 253.310,341.972 242.667,342.630 234.307 C 342.752 232.760,342.963 230.130,343.099 228.463 C 343.395 224.840,343.371 50.172,343.074 47.757 C 342.679 44.540,342.709 44.550,330.087 43.510 C 321.603 42.810,319.689 42.639,317.965 42.422 C 317.073 42.309,314.735 42.016,312.771 41.771 C 305.838 40.903,296.444 39.454,291.775 38.532 C 290.644 38.309,288.404 37.870,286.797 37.558 C 280.984 36.430,266.125 32.937,260.931 31.477 C 253.749 29.459,241.474 25.597,235.498 23.475 C 233.038 22.602,228.567 20.974,227.489 20.560 C 226.834 20.308,225.909 19.975,225.433 19.820 C 224.957 19.666,224.324 19.433,224.026 19.303 C 223.728 19.174,221.342 18.274,218.723 17.304 C 214.166 15.616,210.315 14.092,208.225 13.150 C 203.080 10.831,202.643 10.800,198.268 12.456 M200.541 55.553 C 195.655 56.592,190.398 58.967,180.872 64.440 C 179.339 65.321,177.586 66.309,176.976 66.636 C 176.365 66.963,174.892 67.792,173.701 68.479 C 170.936 70.073,171.262 69.880,168.615 71.487 C 167.365 72.246,164.686 73.869,162.662 75.095 C 152.800 81.070,149.727 83.015,147.658 84.592 C 144.739 86.817,144.139 92.220,146.330 96.567 C 147.401 98.692,149.913 101.333,154.359 105.008 C 158.201 108.184,157.991 107.797,157.842 111.427 C 157.703 114.781,158.790 118.358,160.386 119.802 C 160.887 120.256,160.969 120.996,160.517 120.996 C 160.188 120.996,158.247 122.449,157.347 123.368 C 155.102 125.665,153.850 129.868,154.509 132.900 C 156.526 142.187,158.137 146.080,161.230 149.139 C 162.906 150.796,164.916 152.203,166.709 152.976 C 167.595 153.357,167.940 154.075,168.091 155.851 C 168.226 157.434,169.039 161.051,169.597 162.554 C 170.599 165.249,171.151 166.540,171.941 168.032 C 172.433 168.962,172.973 169.985,173.142 170.305 C 174.588 173.055,179.284 178.194,182.537 180.586 C 195.092 189.818,210.283 189.668,223.377 180.183 C 225.803 178.425,230.541 173.294,231.818 171.041 C 231.997 170.725,232.256 170.344,232.395 170.194 C 233.996 168.452,236.867 160.183,237.339 155.952 C 237.556 154.009,237.938 153.364,239.136 152.915 C 240.583 152.374,243.433 150.475,244.672 149.226 C 246.956 146.924,247.855 145.065,249.633 138.961 C 251.032 134.158,251.441 128.121,250.498 126.190 C 249.454 124.053,246.612 121.376,245.076 121.082 C 244.213 120.917,244.155 120.421,244.897 119.540 C 246.414 117.736,247.165 114.913,247.185 110.931 C 247.202 107.693,247.115 107.878,249.344 106.385 C 258.462 100.281,261.121 97.059,261.133 92.100 C 261.148 85.786,258.537 83.216,243.615 74.856 C 236.546 70.895,236.465 70.851,226.407 65.526 C 225.276 64.927,223.663 64.070,222.823 63.622 C 220.493 62.377,210.180 57.230,209.199 56.822 C 206.177 55.564,202.811 55.071,200.541 55.553 M205.081 73.969 C 206.725 77.189,207.524 78.413,208.230 78.791 C 208.632 79.006,213.691 80.002,215.043 80.132 C 216.282 80.252,216.064 81.189,214.463 82.634 C 213.711 83.313,212.535 84.415,211.851 85.082 L 210.606 86.294 210.608 88.006 C 210.609 89.757,210.837 91.665,211.281 93.646 C 211.823 96.070,211.779 96.073,207.421 93.904 C 205.307 92.852,203.349 91.991,203.071 91.991 C 202.581 91.991,197.866 94.264,196.740 95.042 C 195.056 96.207,194.774 95.828,195.332 93.154 C 196.743 86.392,196.878 86.837,192.006 82.164 C 190.439 80.661,190.394 80.248,191.777 80.068 C 194.013 79.778,198.416 78.741,198.918 78.387 C 199.543 77.946,201.894 73.415,202.677 71.142 C 202.969 70.292,203.554 70.980,205.081 73.969 M215.043 103.972 C 217.831 104.348,221.529 104.929,224.242 105.418 C 225.016 105.558,226.331 105.793,227.165 105.940 C 228.783 106.227,231.177 106.758,233.117 107.260 C 233.772 107.429,234.843 107.704,235.498 107.872 C 240.718 109.207,241.721 110.104,241.010 112.800 C 240.265 115.623,239.154 116.100,235.468 115.185 C 223.220 112.142,202.014 110.523,190.909 111.783 C 189.421 111.952,187.278 112.149,186.147 112.222 C 182.873 112.433,176.886 113.228,171.537 114.163 C 171.299 114.205,170.325 114.395,169.372 114.587 C 165.137 115.438,164.074 114.724,164.070 111.023 C 164.069 109.273,165.196 108.532,168.939 107.825 C 169.535 107.712,171.142 107.363,172.511 107.049 C 178.252 105.732,183.899 104.773,189.719 104.126 C 191.861 103.888,193.956 103.654,194.372 103.605 C 196.705 103.334,212.372 103.613,215.043 103.972 M263.523 237.098 C 263.825 237.296,264.140 237.793,264.258 238.257 C 264.554 239.427,264.715 256.976,264.440 258.060 C 263.857 260.354,255.195 267.100,252.831 267.100 C 250.641 267.100,242.564 260.909,240.284 257.484 L 239.719 256.634 239.648 249.259 C 239.543 238.188,239.680 237.166,241.314 236.831 C 242.969 236.493,262.966 236.733,263.523 237.098 M142.375 265.610 C 138.700 269.315,135.740 272.392,135.797 272.449 C 136.188 272.840,149.714 272.334,150.649 271.894 L 151.407 271.537 151.469 269.527 C 151.528 267.646,150.909 263.594,150.224 261.364 C 150.114 261.006,149.918 260.300,149.787 259.794 C 149.441 258.448,149.612 258.314,142.375 265.610 M203.992 273.803 C 206.857 274.025,207.245 274.195,208.272 275.670 C 209.203 277.007,209.152 279.472,208.168 280.763 C 206.687 282.704,207.897 282.571,191.342 282.613 C 175.483 282.653,174.162 282.588,172.512 281.690 C 169.115 279.841,169.984 274.455,173.782 273.813 C 175.210 273.572,200.893 273.564,203.992 273.803 M206.169 293.249 C 208.009 294.054,208.874 295.511,208.874 297.804 L 208.874 299.525 207.954 300.542 C 207.036 301.556,207.031 301.558,205.194 301.739 C 201.345 302.117,152.582 301.882,151.698 301.481 C 147.689 299.661,148.631 293.685,153.027 293.049 C 155.064 292.754,205.471 292.944,206.169 293.249 M205.487 312.569 C 209.250 313.282,210.331 318.336,207.228 320.703 C 206.030 321.617,204.338 321.668,177.623 321.600 L 152.706 321.537 151.732 321.068 C 148.263 319.400,148.324 314.757,151.840 312.806 C 152.940 312.196,202.366 311.977,205.487 312.569 M184.855 331.458 C 187.712 331.547,188.511 331.821,189.486 333.043 C 191.302 335.322,190.788 338.526,188.416 339.719 C 187.504 340.177,154.174 340.417,152.117 339.981 C 148.672 339.249,148.102 333.538,151.299 331.789 C 152.133 331.333,174.000 331.117,184.855 331.458 " stroke="none" fill="#122339" fill-rule="evenodd"></path><path id="path1" d="M0.000 200.000 L 0.000 400.000 200.000 400.000 L 400.000 400.000 400.000 297.944 C 400.000 198.841,399.988 195.876,399.599 195.486 C 398.950 194.838,398.922 181.298,399.568 180.952 C 400.235 180.595,400.250 153.146,399.583 152.972 C 398.943 152.804,398.952 139.409,399.592 138.830 C 399.990 138.470,400.000 136.748,400.000 69.231 L 400.000 0.000 200.000 0.000 L 0.000 0.000 0.000 200.000 M204.206 11.270 C 204.929 11.516,205.714 11.800,205.952 11.901 C 206.190 12.002,207.116 12.397,208.009 12.778 C 208.902 13.159,209.827 13.547,210.065 13.640 C 210.303 13.733,210.839 13.957,211.255 14.137 C 211.672 14.318,212.695 14.728,213.528 15.049 C 214.361 15.369,215.335 15.755,215.693 15.905 C 216.050 16.056,216.829 16.349,217.424 16.557 C 218.019 16.766,218.799 17.058,219.156 17.207 C 219.513 17.356,220.292 17.646,220.887 17.853 C 221.483 18.059,222.165 18.312,222.403 18.416 C 222.641 18.519,223.420 18.808,224.134 19.057 C 224.848 19.307,225.628 19.592,225.866 19.691 C 226.104 19.790,226.834 20.066,227.489 20.304 C 228.144 20.543,229.350 20.995,230.169 21.310 C 230.989 21.625,232.401 22.127,233.308 22.426 C 234.215 22.726,235.103 23.047,235.281 23.140 C 235.460 23.234,236.117 23.441,236.742 23.601 C 237.367 23.761,237.879 23.955,237.879 24.032 C 237.879 24.110,238.439 24.303,239.123 24.461 C 239.808 24.619,240.465 24.817,240.584 24.902 C 240.703 24.987,241.824 25.366,243.074 25.745 C 244.324 26.123,245.541 26.515,245.779 26.615 C 247.301 27.254,256.316 29.964,262.338 31.592 C 264.183 32.091,266.333 32.687,267.115 32.916 C 267.897 33.146,268.703 33.333,268.905 33.333 C 269.108 33.333,269.977 33.525,270.838 33.760 C 271.698 33.995,273.328 34.390,274.459 34.637 C 277.826 35.374,280.343 35.956,281.494 36.264 C 282.089 36.424,283.014 36.615,283.550 36.690 C 284.085 36.765,284.816 36.915,285.173 37.022 C 285.530 37.130,286.650 37.364,287.662 37.542 C 288.674 37.721,290.233 38.011,291.126 38.187 C 294.336 38.819,301.030 39.965,303.139 40.243 C 303.972 40.353,305.774 40.598,307.143 40.787 C 317.940 42.283,326.687 43.200,330.736 43.263 C 330.915 43.266,331.791 43.362,332.684 43.478 C 333.577 43.593,335.281 43.743,336.472 43.810 C 340.847 44.057,342.486 44.724,343.123 46.518 C 343.622 47.923,343.516 226.488,343.013 232.143 C 342.129 242.081,341.222 247.575,338.922 256.926 C 338.205 259.843,337.296 263.203,336.902 264.394 C 336.509 265.584,336.088 266.899,335.967 267.316 C 335.370 269.372,332.522 277.060,331.396 279.654 C 331.060 280.427,330.362 282.035,329.844 283.225 C 327.872 287.762,323.500 296.021,320.585 300.716 C 318.890 303.446,315.051 309.247,314.398 310.065 C 314.017 310.541,313.336 311.466,312.883 312.121 C 311.995 313.407,311.427 314.148,308.404 317.965 C 306.359 320.548,304.911 322.266,302.294 325.216 C 300.003 327.799,286.738 340.998,284.627 342.796 C 283.618 343.655,282.305 344.809,281.710 345.359 C 281.115 345.910,280.287 346.618,279.870 346.932 C 278.407 348.036,276.947 349.245,276.795 349.477 C 276.711 349.606,276.224 349.995,275.713 350.342 C 275.202 350.688,274.053 351.558,273.160 352.273 C 270.760 354.197,269.189 355.403,267.661 356.494 C 266.911 357.029,265.979 357.739,265.590 358.071 C 265.201 358.402,264.597 358.821,264.248 359.002 C 263.899 359.183,263.431 359.496,263.209 359.698 C 262.181 360.632,252.504 366.876,249.134 368.780 C 248.718 369.016,247.619 369.659,246.693 370.210 C 245.767 370.761,244.948 371.212,244.874 371.212 C 244.799 371.212,244.419 371.456,244.028 371.753 C 243.638 372.051,243.226 372.294,243.113 372.294 C 243.000 372.294,242.190 372.722,241.313 373.245 C 240.436 373.768,238.501 374.842,237.013 375.632 C 235.525 376.422,234.161 377.152,233.983 377.256 C 233.804 377.359,233.415 377.550,233.117 377.681 C 232.819 377.812,232.430 378.007,232.251 378.114 C 232.073 378.221,231.683 378.419,231.385 378.554 C 231.088 378.689,229.821 379.330,228.571 379.979 C 227.321 380.628,226.189 381.161,226.055 381.164 C 225.920 381.167,225.689 381.315,225.541 381.494 C 225.393 381.672,225.102 381.818,224.894 381.818 C 224.687 381.818,224.270 382.013,223.967 382.251 C 223.664 382.489,223.321 382.684,223.205 382.684 C 223.088 382.684,222.032 383.129,220.858 383.674 C 219.684 384.218,218.431 384.792,218.074 384.950 C 217.716 385.107,216.962 385.443,216.397 385.697 C 215.832 385.950,215.150 386.252,214.882 386.368 C 214.613 386.484,214.248 386.669,214.069 386.780 C 213.891 386.890,212.673 387.440,211.364 388.003 C 210.054 388.565,208.301 389.343,207.468 389.730 C 203.095 391.763,202.273 391.946,200.632 391.254 C 200.106 391.032,199.334 390.706,198.918 390.530 C 198.501 390.354,197.597 389.929,196.909 389.586 C 196.221 389.242,195.557 388.961,195.433 388.961 C 195.309 388.961,195.056 388.810,194.872 388.626 C 194.687 388.441,194.256 388.234,193.913 388.166 C 193.571 388.097,193.290 387.960,193.290 387.860 C 193.290 387.761,192.900 387.563,192.424 387.420 C 191.948 387.278,191.558 387.083,191.558 386.987 C 191.558 386.892,191.169 386.697,190.693 386.555 C 190.216 386.412,189.827 386.220,189.827 386.128 C 189.827 386.035,189.608 385.894,189.340 385.814 C 188.605 385.595,177.857 380.235,177.528 379.925 C 177.371 379.776,176.981 379.590,176.662 379.512 C 176.343 379.434,176.034 379.305,175.974 379.224 C 175.915 379.143,174.989 378.631,173.918 378.085 C 170.706 376.449,170.027 376.088,169.913 375.957 C 169.854 375.888,169.513 375.682,169.156 375.498 C 167.438 374.615,166.549 374.122,166.450 374.000 C 166.391 373.926,165.758 373.559,165.043 373.184 C 164.329 372.808,163.355 372.258,162.879 371.960 C 162.403 371.663,161.672 371.251,161.255 371.045 C 160.839 370.839,160.449 370.616,160.390 370.548 C 160.281 370.425,158.589 369.403,156.833 368.398 C 155.399 367.578,151.523 365.174,150.506 364.473 C 150.010 364.132,149.537 363.853,149.455 363.853 C 149.372 363.853,148.950 363.577,148.516 363.239 C 148.082 362.902,147.581 362.566,147.403 362.493 C 147.224 362.420,146.104 361.678,144.913 360.845 C 143.723 360.011,142.098 358.883,141.302 358.337 C 139.633 357.192,135.244 352.683,134.557 351.407 L 134.091 350.541 134.091 315.873 C 134.091 296.806,134.140 281.159,134.199 281.103 C 134.259 281.047,138.203 280.953,142.965 280.894 L 151.623 280.786 153.351 280.206 C 154.301 279.886,155.129 279.557,155.191 279.473 C 155.253 279.389,155.547 279.213,155.844 279.083 C 160.223 277.161,161.067 272.683,158.981 262.446 C 158.811 261.613,158.568 260.325,158.440 259.585 C 158.313 258.845,158.067 257.773,157.895 257.204 C 157.722 256.635,157.579 255.899,157.578 255.568 C 157.577 255.238,157.381 254.414,157.144 253.738 C 156.906 253.062,156.792 252.429,156.889 252.332 C 156.987 252.234,170.744 252.181,187.462 252.214 L 217.857 252.273 218.950 252.827 C 220.481 253.604,221.269 254.370,221.976 255.768 C 222.925 257.643,222.991 261.748,222.864 311.310 C 222.802 335.685,222.833 355.628,222.934 355.628 C 223.486 355.628,231.092 351.285,231.328 350.834 C 231.670 350.183,231.723 262.123,231.384 258.295 C 230.913 252.975,226.878 246.501,223.581 245.777 C 223.247 245.703,222.862 245.509,222.726 245.344 C 222.589 245.180,221.974 244.881,221.358 244.680 C 220.742 244.479,220.135 244.234,220.009 244.135 C 219.691 243.885,215.147 243.471,213.312 243.525 C 210.930 243.594,210.552 243.179,210.299 240.212 C 210.220 239.293,210.015 238.075,209.842 237.506 C 209.670 236.937,209.527 236.033,209.526 235.497 C 209.525 234.961,209.327 233.500,209.086 232.251 C 207.846 225.815,208.212 224.541,212.539 220.241 C 215.592 217.208,215.707 216.990,214.703 216.145 C 214.337 215.838,213.452 214.879,212.736 214.016 C 212.020 213.152,211.136 212.105,210.771 211.688 C 209.740 210.512,207.064 206.332,206.283 204.680 C 204.459 200.822,205.021 200.106,212.446 196.832 C 214.979 195.715,217.733 194.267,219.156 193.303 C 219.632 192.981,220.768 192.208,221.681 191.586 C 223.591 190.283,229.218 184.634,230.364 182.868 C 230.778 182.231,231.526 181.320,232.028 180.844 L 232.939 179.978 234.194 181.334 C 237.750 185.176,239.476 192.479,238.754 200.628 C 238.532 203.137,238.534 203.751,238.766 204.030 C 239.106 204.439,241.561 205.628,242.066 205.628 C 242.263 205.628,242.424 205.715,242.424 205.823 C 242.424 205.930,242.936 206.139,243.561 206.287 C 244.186 206.435,244.746 206.617,244.805 206.692 C 244.865 206.766,245.400 206.989,245.996 207.186 C 247.937 207.830,249.240 208.331,249.351 208.473 C 249.410 208.550,249.886 208.728,250.407 208.868 C 250.929 209.008,251.514 209.202,251.706 209.298 C 251.899 209.394,252.300 209.569,252.597 209.685 C 252.895 209.801,253.494 210.050,253.928 210.237 C 254.363 210.425,255.069 210.644,255.498 210.724 C 255.926 210.805,256.277 210.937,256.277 211.018 C 256.277 211.194,258.045 211.688,258.674 211.688 C 258.917 211.688,259.061 211.778,258.994 211.887 C 258.926 211.997,259.188 212.153,259.576 212.235 C 259.964 212.316,260.574 212.508,260.931 212.659 C 262.262 213.225,264.237 213.853,264.687 213.853 C 264.942 213.853,265.152 213.929,265.152 214.022 C 265.152 214.211,266.068 214.607,267.532 215.050 C 269.025 215.502,270.624 216.036,271.104 216.244 C 275.382 218.091,276.593 217.922,277.402 215.368 C 278.222 212.779,278.107 212.484,276.004 211.799 C 275.365 211.591,274.586 211.287,274.272 211.123 C 273.958 210.959,273.555 210.824,273.377 210.823 C 273.198 210.821,272.773 210.674,272.432 210.497 C 272.091 210.319,271.701 210.173,271.566 210.172 C 271.431 210.171,271.063 210.036,270.750 209.873 C 270.436 209.709,269.670 209.406,269.048 209.199 C 268.426 208.993,267.660 208.689,267.346 208.526 C 267.032 208.362,266.610 208.227,266.409 208.226 C 266.208 208.226,265.987 208.135,265.919 208.025 C 265.851 207.915,265.299 207.660,264.692 207.459 C 264.084 207.257,263.331 206.958,263.017 206.794 C 262.703 206.630,262.319 206.496,262.163 206.495 C 262.008 206.494,261.472 206.311,260.973 206.087 C 258.790 205.111,257.940 204.762,257.743 204.762 C 257.628 204.762,257.226 204.624,256.851 204.455 C 255.721 203.946,251.087 202.165,250.895 202.165 C 249.760 202.165,248.426 200.764,248.549 199.703 C 248.739 198.058,250.052 194.907,251.034 193.740 L 251.656 192.999 252.993 193.282 C 253.728 193.438,254.329 193.650,254.329 193.753 C 254.329 193.855,254.499 193.942,254.708 193.946 C 254.916 193.950,255.574 194.193,256.169 194.485 C 256.764 194.778,257.348 195.022,257.468 195.026 C 257.587 195.031,258.171 195.275,258.766 195.568 C 259.361 195.860,260.011 196.101,260.209 196.102 C 260.408 196.103,260.602 196.177,260.642 196.266 C 260.682 196.356,261.542 196.755,262.554 197.154 C 264.565 197.946,264.563 197.946,266.811 198.905 C 267.664 199.269,268.517 199.567,268.705 199.567 C 268.893 199.567,269.048 199.665,269.048 199.784 C 269.048 199.903,269.195 200.000,269.375 200.000 C 269.555 200.000,269.872 200.089,270.079 200.198 C 270.861 200.610,272.713 201.299,273.038 201.299 C 273.224 201.299,273.377 201.396,273.377 201.515 C 273.377 201.634,273.520 201.732,273.695 201.732 C 273.870 201.732,274.546 201.975,275.196 202.273 C 275.847 202.570,276.458 202.814,276.555 202.815 C 276.652 202.816,277.015 202.964,277.362 203.145 C 277.708 203.326,278.213 203.492,278.483 203.514 C 278.752 203.537,278.926 203.632,278.868 203.726 C 278.810 203.819,278.957 203.896,279.195 203.896 C 279.433 203.896,279.683 203.985,279.750 204.093 C 279.816 204.201,280.358 204.414,280.953 204.566 C 281.548 204.719,282.035 204.923,282.035 205.019 C 282.035 205.116,282.166 205.195,282.326 205.195 C 283.235 205.195,286.958 208.376,287.418 209.546 C 287.567 209.925,288.365 210.945,289.742 212.514 C 290.231 213.072,291.101 214.113,291.675 214.827 C 292.248 215.541,292.773 216.174,292.841 216.234 C 293.551 216.853,298.032 222.566,299.020 224.110 C 300.881 227.020,303.839 234.923,304.739 239.394 C 304.847 239.930,305.194 241.488,305.509 242.857 C 307.004 249.344,308.395 259.437,308.865 267.208 C 308.952 268.636,309.038 269.686,309.057 269.541 C 309.075 269.396,309.228 269.330,309.395 269.394 C 309.604 269.475,309.747 269.286,309.851 268.792 C 309.934 268.397,310.132 267.781,310.291 267.424 C 312.633 262.148,315.972 251.228,316.775 246.212 C 316.851 245.736,317.050 244.762,317.218 244.048 C 317.619 242.334,318.303 237.719,318.515 235.281 C 318.911 230.755,319.075 229.004,319.175 228.247 C 319.336 227.036,319.291 71.978,319.129 69.589 C 318.929 66.623,318.938 66.631,315.043 66.243 C 304.527 65.197,295.356 63.925,284.524 62.012 C 281.366 61.454,273.872 59.887,267.424 58.436 C 265.326 57.964,256.717 55.777,254.762 55.219 C 253.988 54.998,252.235 54.511,250.866 54.135 C 249.497 53.760,248.133 53.364,247.835 53.255 C 247.538 53.146,245.634 52.567,243.606 51.968 C 238.480 50.453,219.211 44.028,217.641 43.310 C 217.176 43.097,215.912 42.621,212.987 41.559 C 211.975 41.192,210.952 40.810,210.714 40.710 C 210.275 40.526,209.149 40.092,207.576 39.502 C 207.100 39.324,206.345 39.035,205.898 38.860 C 203.110 37.770,201.520 37.691,199.633 38.549 C 199.134 38.775,198.661 38.961,198.584 38.961 C 198.506 38.961,198.135 39.096,197.760 39.262 C 197.096 39.555,196.264 39.884,194.048 40.732 C 193.452 40.960,192.235 41.393,191.342 41.694 C 190.449 41.996,189.524 42.325,189.286 42.427 C 188.476 42.772,187.340 43.218,186.580 43.489 C 185.421 43.902,178.590 46.301,177.489 46.682 C 176.953 46.867,176.323 47.120,176.087 47.244 C 175.852 47.369,175.365 47.546,175.005 47.640 C 174.645 47.733,173.669 48.063,172.835 48.373 C 170.474 49.252,157.172 53.680,156.892 53.680 C 156.666 53.680,154.689 54.267,150.000 55.728 C 149.107 56.006,146.964 56.594,145.238 57.034 C 143.512 57.474,141.807 57.922,141.450 58.031 C 140.033 58.462,131.223 60.479,127.381 61.252 C 126.071 61.516,124.367 61.867,123.593 62.033 C 122.819 62.198,121.602 62.428,120.887 62.543 C 120.173 62.658,119.004 62.855,118.290 62.981 C 117.576 63.107,116.407 63.297,115.693 63.404 C 114.978 63.510,112.787 63.847,110.823 64.152 C 104.951 65.064,97.479 65.909,89.656 66.544 C 87.700 66.703,86.240 66.920,86.085 67.075 C 85.738 67.422,85.582 214.463,85.917 224.351 C 86.434 239.587,89.527 254.536,94.605 266.342 C 94.810 266.818,95.100 267.622,95.250 268.128 C 95.948 270.480,96.403 268.501,96.854 261.147 C 97.015 258.528,97.692 252.825,98.281 249.134 C 99.223 243.233,101.851 231.969,102.707 230.162 C 102.885 229.787,103.030 229.412,103.030 229.329 C 103.030 229.246,103.190 228.822,103.384 228.388 C 104.529 225.832,105.134 224.680,105.775 223.833 C 106.170 223.309,106.494 222.766,106.494 222.626 C 106.494 222.485,106.751 222.134,107.066 221.845 C 107.380 221.556,108.205 220.562,108.898 219.634 C 109.591 218.707,110.788 217.246,111.558 216.387 C 112.328 215.529,113.221 214.437,113.541 213.961 C 113.862 213.485,114.428 212.742,114.800 212.311 C 115.172 211.879,116.158 210.580,116.991 209.422 C 119.757 205.582,119.886 205.478,123.485 204.205 C 127.065 202.939,127.849 202.646,128.266 202.424 C 128.493 202.302,129.167 202.035,129.762 201.830 C 131.616 201.191,134.723 200.001,135.116 199.779 C 135.323 199.663,135.600 199.567,135.733 199.567 C 135.865 199.567,136.280 199.430,136.656 199.263 C 137.031 199.096,137.825 198.787,138.420 198.576 C 139.015 198.366,139.600 198.127,139.719 198.045 C 139.838 197.962,140.227 197.826,140.584 197.740 C 140.942 197.655,141.575 197.439,141.991 197.260 C 142.408 197.080,143.069 196.796,143.460 196.627 C 143.851 196.458,144.274 196.320,144.401 196.320 C 144.646 196.320,148.849 194.699,150.893 193.816 C 153.268 192.790,154.225 193.238,155.195 195.830 C 156.673 199.779,156.283 201.623,153.813 202.362 C 153.442 202.473,152.311 202.871,151.299 203.246 C 150.287 203.621,148.680 204.207,147.727 204.548 C 146.775 204.889,145.314 205.428,144.481 205.747 C 141.665 206.822,140.154 207.388,139.610 207.571 C 139.313 207.671,138.241 208.065,137.229 208.445 C 136.218 208.825,134.464 209.467,133.333 209.871 C 132.202 210.275,131.082 210.689,130.844 210.792 C 130.285 211.034,128.410 211.617,127.675 211.777 C 126.813 211.964,126.787 212.385,127.503 214.619 L 128.159 216.667 128.960 216.662 C 129.401 216.659,131.028 216.215,132.576 215.676 C 134.123 215.136,138.701 213.583,142.749 212.224 C 146.797 210.865,152.105 209.082,154.545 208.263 C 156.986 207.443,160.249 206.362,161.797 205.859 C 167.119 204.131,167.248 204.002,166.621 201.019 C 165.544 195.889,166.499 188.126,168.736 183.835 C 170.845 179.788,171.990 179.359,173.847 181.919 C 178.166 187.873,182.165 191.614,187.338 194.537 C 188.770 195.346,193.024 197.403,193.267 197.403 C 193.392 197.403,193.813 197.578,194.203 197.793 C 194.594 198.008,195.399 198.365,195.993 198.588 C 200.699 200.353,200.813 202.125,196.677 209.199 C 195.317 211.526,192.077 216.030,190.713 217.492 C 189.967 218.290,189.848 218.989,190.422 219.201 C 190.630 219.278,191.102 219.567,191.471 219.843 C 191.839 220.120,192.209 220.346,192.293 220.346 C 192.377 220.346,192.978 220.687,193.629 221.104 C 194.281 221.521,194.889 221.861,194.982 221.861 C 195.250 221.861,196.637 223.424,196.981 224.114 C 197.418 224.991,197.381 228.127,196.900 231.061 C 195.037 242.421,194.809 243.473,194.182 243.589 C 193.870 243.646,184.897 243.671,174.242 243.643 C 153.803 243.591,153.175 243.616,151.306 244.543 C 149.923 245.229,149.936 245.216,141.225 254.220 C 137.539 258.029,132.881 262.801,130.872 264.826 C 128.864 266.850,126.927 268.933,126.568 269.454 C 125.248 271.370,125.321 269.079,125.327 308.779 C 125.330 328.802,125.271 345.342,125.197 345.535 C 124.989 346.076,123.810 345.915,123.810 345.345 C 123.810 345.192,123.103 344.448,122.240 343.691 C 121.377 342.935,120.622 342.267,120.563 342.208 C 120.503 342.148,119.286 341.079,117.857 339.834 C 113.990 336.461,107.259 329.771,103.951 326.012 C 102.345 324.188,100.785 322.434,100.484 322.116 C 99.925 321.525,94.947 315.309,93.392 313.261 C 90.962 310.060,87.451 304.940,85.885 302.315 C 85.800 302.173,85.226 301.231,84.608 300.222 C 83.991 299.213,83.274 297.996,83.015 297.516 C 82.756 297.037,81.792 295.309,80.875 293.676 C 78.040 288.633,74.454 281.035,72.366 275.649 C 71.951 274.578,71.278 272.861,70.871 271.835 C 70.463 270.808,70.130 269.885,70.130 269.783 C 70.130 269.681,69.940 269.108,69.709 268.511 C 69.072 266.867,67.093 260.250,66.277 257.035 C 66.035 256.082,65.686 254.707,65.501 253.979 C 64.366 249.500,62.781 240.016,62.168 234.040 C 61.583 228.331,61.594 47.231,62.180 46.160 C 62.970 44.715,64.515 44.381,72.944 43.835 C 75.741 43.654,78.274 43.460,78.571 43.404 C 78.869 43.347,80.525 43.198,82.251 43.072 C 87.732 42.671,100.125 41.212,101.515 40.804 C 101.694 40.752,102.327 40.649,102.922 40.576 C 105.425 40.269,112.367 39.084,115.123 38.495 C 116.270 38.249,117.451 38.001,117.749 37.943 C 123.320 36.851,134.235 34.178,141.450 32.137 C 143.355 31.599,145.985 30.860,147.294 30.497 C 148.604 30.133,150.659 29.500,151.862 29.089 C 153.065 28.679,154.672 28.157,155.433 27.930 C 158.027 27.156,170.483 22.867,171.753 22.311 C 171.991 22.207,172.527 22.005,172.944 21.861 C 173.360 21.718,173.896 21.525,174.134 21.433 C 174.372 21.340,174.957 21.112,175.433 20.926 C 175.909 20.740,176.542 20.521,176.840 20.439 C 177.137 20.357,177.771 20.118,178.247 19.908 C 178.723 19.698,179.648 19.325,180.303 19.079 C 180.958 18.833,182.419 18.276,183.550 17.842 C 184.681 17.407,186.381 16.766,187.328 16.416 C 188.275 16.065,189.347 15.648,189.709 15.488 C 190.071 15.328,190.952 14.978,191.667 14.712 C 193.690 13.956,195.081 13.418,195.671 13.163 C 196.661 12.735,197.103 12.572,200.000 11.562 C 202.458 10.706,202.534 10.700,204.206 11.270 M205.176 55.206 C 205.070 55.272,205.559 55.445,206.263 55.590 C 208.021 55.953,221.906 62.529,222.825 63.434 C 222.938 63.545,223.166 63.636,223.332 63.636 C 223.499 63.636,223.893 63.817,224.209 64.039 C 224.525 64.260,225.904 65.008,227.273 65.700 C 228.642 66.393,230.639 67.445,231.710 68.037 C 232.781 68.630,234.437 69.527,235.390 70.031 C 236.342 70.535,238.485 71.704,240.152 72.628 C 241.818 73.553,243.581 74.527,244.068 74.793 C 244.555 75.059,245.357 75.531,245.849 75.842 C 246.342 76.153,246.796 76.407,246.859 76.407 C 247.060 76.407,252.338 79.617,254.555 81.088 C 260.159 84.807,262.497 89.991,260.958 95.286 C 260.335 97.426,257.019 101.439,254.632 102.939 C 254.287 103.156,253.420 103.781,252.706 104.328 C 251.193 105.485,249.126 106.921,248.434 107.296 C 247.509 107.797,247.403 108.178,247.403 110.983 C 247.403 114.952,246.550 118.142,245.058 119.753 C 244.600 120.246,244.555 120.396,244.795 120.618 C 245.026 120.833,245.054 120.833,244.932 120.617 C 244.848 120.468,244.878 120.346,244.998 120.346 C 245.118 120.346,245.294 120.482,245.390 120.648 C 245.485 120.815,245.973 121.163,246.474 121.423 C 251.374 123.966,252.356 129.310,249.757 139.286 C 247.862 146.559,245.429 150.035,240.458 152.572 C 237.870 153.894,237.823 153.956,237.445 156.602 C 236.586 162.600,234.242 168.341,230.816 172.835 C 228.374 176.039,227.935 176.554,226.580 177.814 C 216.575 187.116,203.638 189.939,191.234 185.528 C 188.943 184.713,187.388 184.047,186.472 183.489 C 179.078 178.987,174.686 174.244,171.234 167.029 C 169.401 163.199,167.965 158.399,167.965 156.098 C 167.965 154.465,167.528 153.673,166.288 153.065 C 159.861 149.910,157.369 146.041,154.837 135.281 C 153.502 129.607,154.330 126.008,157.735 122.692 C 158.659 121.792,159.635 120.987,159.903 120.903 C 160.534 120.705,160.518 120.316,159.848 119.520 C 159.551 119.166,159.307 118.801,159.307 118.709 C 159.307 118.616,159.170 118.387,159.003 118.199 C 158.141 117.230,157.511 114.065,157.659 111.444 C 157.844 108.174,157.855 108.196,154.719 105.693 C 147.395 99.849,144.913 96.190,144.914 91.234 C 144.914 87.106,145.802 85.435,149.213 83.142 C 151.919 81.322,155.815 78.832,156.757 78.319 C 157.267 78.041,157.733 77.762,157.792 77.698 C 157.852 77.634,160.092 76.271,162.771 74.670 C 165.449 73.068,168.100 71.464,168.661 71.106 C 169.704 70.440,171.201 69.571,175.974 66.861 C 179.215 65.020,180.766 64.157,181.926 63.549 C 182.403 63.299,182.841 63.046,182.900 62.987 C 182.960 62.927,183.301 62.736,183.658 62.562 C 184.015 62.387,184.556 62.078,184.860 61.874 C 185.730 61.290,192.226 57.983,193.132 57.663 C 193.581 57.505,194.263 57.236,194.647 57.066 C 196.722 56.149,198.139 55.739,200.649 55.330 C 202.261 55.067,205.545 54.977,205.176 55.206 M202.742 71.356 C 202.662 71.436,202.597 71.625,202.597 71.777 C 202.597 71.928,202.201 72.910,201.716 73.959 C 199.349 79.079,199.603 78.882,194.078 79.886 C 190.517 80.533,190.528 80.455,193.576 83.445 C 196.790 86.597,196.672 86.154,195.802 91.775 C 195.355 94.661,195.283 95.187,195.393 94.733 C 195.480 94.374,195.513 94.370,195.745 94.686 C 195.981 95.010,200.653 93.029,201.082 92.423 C 201.142 92.339,201.557 92.151,202.004 92.005 C 202.452 91.859,202.762 91.650,202.695 91.541 C 202.522 91.262,202.615 91.285,203.629 91.775 C 204.121 92.013,204.675 92.208,204.860 92.208 C 205.044 92.208,205.195 92.297,205.195 92.407 C 205.195 92.517,205.488 92.671,205.846 92.749 C 206.205 92.828,206.621 93.006,206.772 93.145 C 206.922 93.284,207.482 93.611,208.014 93.870 C 211.141 95.394,211.393 95.436,211.180 94.401 C 209.781 87.593,209.959 86.468,212.860 83.748 C 213.802 82.865,214.801 81.928,215.079 81.666 C 215.899 80.892,215.743 80.519,214.598 80.519 C 213.995 80.519,213.663 80.435,213.745 80.303 C 213.822 80.178,213.621 80.087,213.270 80.087 C 212.936 80.087,212.029 79.946,211.255 79.772 C 210.482 79.598,209.488 79.399,209.046 79.330 C 207.760 79.129,206.744 77.950,205.315 75.000 C 203.661 71.587,203.185 70.913,202.742 71.356 M197.186 103.675 C 190.457 104.053,183.581 104.970,175.983 106.502 C 164.313 108.856,163.741 109.126,164.292 112.044 C 164.807 114.774,165.693 115.124,169.960 114.277 C 173.405 113.593,176.992 112.989,178.896 112.772 C 179.848 112.663,181.407 112.471,182.359 112.345 C 183.312 112.219,185.308 112.024,186.797 111.913 C 188.285 111.801,191.548 111.549,194.048 111.351 C 198.433 111.005,207.183 111.029,211.147 111.399 C 211.861 111.465,213.247 111.529,214.226 111.541 C 215.205 111.552,215.898 111.628,215.766 111.710 C 215.504 111.872,220.201 112.261,221.429 112.179 C 221.984 112.142,222.100 112.184,221.861 112.338 C 221.611 112.500,221.679 112.548,222.161 112.551 C 222.856 112.554,224.474 112.806,228.030 113.462 C 229.340 113.704,230.874 113.910,231.439 113.919 C 232.005 113.928,232.354 114.006,232.215 114.092 C 232.075 114.178,232.441 114.315,233.026 114.397 C 234.108 114.549,234.545 114.643,236.970 115.245 C 241.016 116.251,242.632 110.386,238.684 109.023 C 236.659 108.323,235.245 107.989,234.789 108.102 C 234.524 108.168,234.445 108.160,234.613 108.085 C 235.181 107.832,227.573 106.122,222.239 105.303 C 221.077 105.125,219.714 104.891,219.208 104.782 C 218.703 104.673,217.560 104.521,216.667 104.443 C 215.774 104.366,213.949 104.165,212.611 103.997 C 209.558 103.614,201.322 103.442,197.186 103.675 M241.362 236.986 C 239.949 237.381,239.941 237.435,239.874 247.208 C 239.819 255.242,239.848 256.149,240.188 256.879 C 241.528 259.757,250.639 266.883,252.979 266.883 C 254.404 266.883,261.808 261.507,263.495 259.246 C 264.477 257.932,264.500 257.607,264.334 247.571 C 264.156 236.827,264.261 237.375,262.307 236.998 C 261.196 236.783,242.125 236.772,241.362 236.986 M150.387 261.473 C 152.256 268.912,152.214 271.666,150.216 272.548 C 149.596 272.823,135.588 273.106,135.331 272.849 C 134.992 272.510,149.124 258.223,149.475 258.551 C 149.603 258.670,150.014 259.985,150.387 261.473 M147.457 272.666 C 147.784 272.715,148.320 272.715,148.647 272.666 C 148.975 272.616,148.707 272.576,148.052 272.576 C 147.397 272.576,147.129 272.616,147.457 272.666 M174.080 273.953 C 173.991 273.972,173.657 274.045,173.339 274.115 C 169.601 274.936,169.779 280.418,173.593 281.964 C 175.154 282.597,205.055 282.572,206.445 281.936 C 209.591 280.499,209.348 275.104,206.100 274.261 C 205.473 274.098,174.772 273.803,174.080 273.953 M152.754 293.280 C 149.376 293.943,148.291 298.082,150.851 300.541 L 151.752 301.407 179.217 301.407 L 206.682 301.407 207.364 300.758 C 209.634 298.600,209.074 295.231,206.169 293.556 C 205.477 293.157,154.715 292.895,152.754 293.280 M153.463 312.727 C 148.900 313.114,147.882 319.234,152.102 320.909 C 153.705 321.545,205.085 321.552,206.277 320.916 C 209.734 319.072,209.548 314.019,205.983 312.935 C 205.177 312.690,156.185 312.496,153.463 312.727 M152.489 331.769 C 150.676 332.097,149.309 333.815,149.320 335.752 C 149.330 337.568,150.699 339.440,152.225 339.722 C 153.790 340.013,187.090 339.946,187.922 339.651 C 189.579 339.064,190.666 337.087,190.381 335.183 C 190.181 333.851,188.700 332.202,187.870 332.387 C 187.492 332.471,187.423 332.445,187.631 332.297 C 188.462 331.708,155.560 331.214,152.489 331.769 " stroke="none" fill="#ece6e5" fill-rule="evenodd"></path><path id="path2" d="M61.793 72.294 C 61.793 85.092,61.819 90.327,61.851 83.929 C 61.882 77.530,61.882 67.059,61.851 60.660 C 61.819 54.261,61.793 59.497,61.793 72.294 M343.392 83.983 C 343.392 91.423,343.419 94.467,343.452 90.747 C 343.485 87.027,343.485 80.939,343.452 77.219 C 343.419 73.498,343.392 76.542,343.392 83.983 M85.600 85.823 C 85.600 93.203,85.627 96.254,85.660 92.602 C 85.693 88.950,85.693 82.911,85.660 79.182 C 85.627 75.453,85.600 78.442,85.600 85.823 M192.100 82.251 C 192.565 82.727,192.994 83.117,193.053 83.117 C 193.113 83.117,192.781 82.727,192.316 82.251 C 191.851 81.775,191.422 81.385,191.362 81.385 C 191.303 81.385,191.635 81.775,192.100 82.251 M61.792 114.827 C 61.792 125.065,61.818 129.222,61.851 124.064 C 61.883 118.906,61.883 110.529,61.851 105.449 C 61.818 100.369,61.792 104.589,61.792 114.827 M319.333 105.411 C 319.333 106.185,319.373 106.502,319.421 106.115 C 319.469 105.728,319.469 105.095,319.421 104.708 C 319.373 104.321,319.333 104.637,319.333 105.411 M195.292 111.405 C 195.501 111.459,195.841 111.459,196.050 111.405 C 196.258 111.350,196.088 111.306,195.671 111.306 C 195.254 111.306,195.084 111.350,195.292 111.405 M207.305 111.408 C 207.573 111.460,208.011 111.460,208.279 111.408 C 208.547 111.357,208.328 111.314,207.792 111.314 C 207.256 111.314,207.037 111.357,207.305 111.408 M157.457 122.998 L 156.602 123.918 157.522 123.062 C 158.028 122.592,158.442 122.178,158.442 122.142 C 158.442 121.978,158.253 122.142,157.457 122.998 M319.353 128.030 C 319.352 130.054,319.385 130.911,319.425 129.935 C 319.465 128.959,319.465 127.303,319.425 126.255 C 319.386 125.208,319.353 126.006,319.353 128.030 M85.552 127.814 C 85.555 128.290,85.599 128.459,85.651 128.190 C 85.703 127.921,85.701 127.531,85.647 127.324 C 85.592 127.117,85.550 127.338,85.552 127.814 M85.563 130.736 C 85.563 131.391,85.603 131.659,85.653 131.331 C 85.702 131.004,85.702 130.468,85.653 130.141 C 85.603 129.813,85.563 130.081,85.563 130.736 M85.565 135.173 C 85.566 135.887,85.607 136.154,85.655 135.765 C 85.703 135.375,85.702 134.791,85.652 134.466 C 85.603 134.141,85.564 134.459,85.565 135.173 M61.774 138.420 C 61.774 140.087,61.808 140.740,61.849 139.871 C 61.890 139.003,61.890 137.640,61.849 136.841 C 61.807 136.043,61.773 136.753,61.774 138.420 M61.794 171.970 C 61.794 188.755,61.819 195.654,61.851 187.300 C 61.882 178.947,61.882 165.213,61.851 156.781 C 61.819 148.349,61.794 155.184,61.794 171.970 M319.331 155.087 C 319.332 155.801,319.373 156.067,319.421 155.678 C 319.469 155.289,319.468 154.704,319.419 154.379 C 319.369 154.054,319.330 154.372,319.331 155.087 M319.363 165.909 C 319.363 170.671,319.391 172.588,319.426 170.170 C 319.461 167.751,319.461 163.855,319.426 161.512 C 319.391 159.168,319.363 161.147,319.363 165.909 M179.437 178.206 C 179.437 178.244,179.754 178.560,180.141 178.910 L 180.844 179.545 180.208 178.842 C 179.616 178.186,179.437 178.039,179.437 178.206 M85.599 192.100 C 85.599 198.885,85.627 201.630,85.660 198.199 C 85.694 194.768,85.694 189.216,85.660 185.861 C 85.626 182.507,85.599 185.314,85.599 192.100 M319.347 192.100 C 319.347 193.528,319.382 194.084,319.425 193.336 C 319.467 192.587,319.467 191.418,319.424 190.738 C 319.381 190.058,319.346 190.671,319.347 192.100 M166.311 195.779 C 166.310 196.851,166.347 197.316,166.392 196.814 C 166.437 196.312,166.438 195.435,166.393 194.866 C 166.348 194.297,166.311 194.708,166.311 195.779 M399.428 194.572 C 399.447 195.028,399.584 195.347,399.784 195.400 C 400.003 195.459,400.027 195.429,399.857 195.308 C 399.719 195.209,399.559 194.837,399.502 194.480 C 399.407 193.886,399.400 193.893,399.428 194.572 M319.335 205.087 C 319.336 205.920,319.375 206.234,319.422 205.785 C 319.469 205.336,319.468 204.654,319.420 204.270 C 319.372 203.886,319.334 204.253,319.335 205.087 M85.569 211.147 C 85.570 211.981,85.609 212.295,85.656 211.846 C 85.703 211.397,85.702 210.715,85.654 210.331 C 85.606 209.946,85.568 210.314,85.569 211.147 M212.114 220.725 L 210.931 221.970 212.175 220.787 C 213.332 219.687,213.519 219.481,213.358 219.481 C 213.325 219.481,212.765 220.041,212.114 220.725 M61.758 224.675 C 61.758 225.449,61.797 225.766,61.845 225.379 C 61.893 224.992,61.893 224.359,61.845 223.972 C 61.797 223.585,61.758 223.902,61.758 224.675 M85.773 225.758 C 85.773 226.293,85.815 226.512,85.867 226.245 C 85.919 225.977,85.919 225.538,85.867 225.271 C 85.815 225.003,85.773 225.222,85.773 225.758 M264.374 243.182 C 264.374 245.206,264.407 246.063,264.447 245.086 C 264.487 244.110,264.487 242.454,264.447 241.407 C 264.407 240.359,264.375 241.158,264.374 243.182 M156.006 243.443 C 156.274 243.494,156.713 243.494,156.981 243.443 C 157.248 243.391,157.029 243.349,156.494 243.349 C 155.958 243.349,155.739 243.391,156.006 243.443 M239.685 246.212 C 239.685 247.165,239.723 247.527,239.769 247.018 C 239.815 246.509,239.814 245.730,239.768 245.286 C 239.721 244.843,239.684 245.260,239.685 246.212 M143.716 251.461 L 142.532 252.706 143.777 251.523 C 144.933 250.423,145.121 250.216,144.960 250.216 C 144.926 250.216,144.366 250.777,143.716 251.461 M239.687 253.571 C 239.687 254.643,239.723 255.108,239.769 254.606 C 239.814 254.104,239.814 253.227,239.770 252.658 C 239.725 252.089,239.688 252.500,239.687 253.571 M157.742 252.321 C 158.131 252.370,158.715 252.369,159.041 252.319 C 159.366 252.270,159.048 252.230,158.333 252.232 C 157.619 252.233,157.353 252.273,157.742 252.321 M241.126 258.509 C 241.126 258.547,241.442 258.863,241.829 259.213 L 242.532 259.848 241.897 259.145 C 241.304 258.489,241.126 258.342,241.126 258.509 M262.219 260.660 L 261.364 261.580 262.284 260.724 C 263.139 259.929,263.303 259.740,263.139 259.740 C 263.104 259.740,262.690 260.154,262.219 260.660 M141.557 266.180 L 136.255 271.537 141.613 266.235 C 144.559 263.320,146.970 260.909,146.970 260.878 C 146.970 260.725,146.483 261.202,141.557 266.180 M132.568 262.825 L 131.494 263.961 132.630 262.887 C 133.686 261.889,133.865 261.688,133.704 261.688 C 133.670 261.688,133.158 262.200,132.568 262.825 M130.401 264.989 L 129.545 265.909 130.465 265.053 C 131.321 264.258,131.485 264.069,131.321 264.069 C 131.286 264.069,130.872 264.483,130.401 264.989 M308.713 267.424 C 308.715 267.900,308.759 268.070,308.811 267.801 C 308.863 267.531,308.861 267.142,308.807 266.935 C 308.753 266.728,308.710 266.948,308.713 267.424 M96.337 268.409 C 96.328 268.713,96.203 269.078,96.061 269.221 C 95.863 269.418,95.862 269.481,96.056 269.481 C 96.350 269.481,96.634 268.553,96.467 268.137 C 96.405 267.983,96.347 268.106,96.337 268.409 M135.501 272.565 C 135.499 272.841,135.660 272.937,136.093 272.919 C 136.549 272.899,136.587 272.868,136.255 272.785 C 136.017 272.726,135.751 272.567,135.663 272.432 C 135.563 272.276,135.503 272.325,135.501 272.565 M137.825 272.664 C 138.093 272.715,138.531 272.715,138.799 272.664 C 139.067 272.612,138.847 272.570,138.312 272.570 C 137.776 272.570,137.557 272.612,137.825 272.664 M157.781 277.652 L 157.035 278.463 157.846 277.717 C 158.602 277.023,158.758 276.840,158.592 276.840 C 158.556 276.840,158.191 277.205,157.781 277.652 M189.463 282.630 C 192.179 282.664,196.562 282.664,199.203 282.630 C 201.844 282.595,199.621 282.567,194.264 282.567 C 188.907 282.567,186.746 282.595,189.463 282.630 M134.050 284.307 C 134.051 285.022,134.091 285.288,134.140 284.899 C 134.188 284.510,134.187 283.925,134.137 283.600 C 134.088 283.275,134.049 283.593,134.050 284.307 M154.924 312.490 C 155.192 312.542,155.630 312.542,155.898 312.490 C 156.166 312.439,155.947 312.397,155.411 312.397 C 154.876 312.397,154.656 312.439,154.924 312.490 M202.438 312.493 C 202.767 312.543,203.254 312.541,203.520 312.490 C 203.787 312.439,203.517 312.398,202.922 312.400 C 202.327 312.401,202.109 312.443,202.438 312.493 M125.187 331.494 C 125.188 332.684,125.224 333.143,125.268 332.514 C 125.312 331.885,125.311 330.911,125.267 330.350 C 125.223 329.788,125.187 330.303,125.187 331.494 M184.040 331.541 C 184.369 331.590,184.856 331.589,185.122 331.538 C 185.388 331.486,185.119 331.446,184.524 331.447 C 183.929 331.449,183.711 331.491,184.040 331.541 M292.845 334.794 L 292.100 335.606 292.911 334.860 C 293.358 334.450,293.723 334.085,293.723 334.048 C 293.723 333.883,293.540 334.039,292.845 334.794 M114.827 337.013 C 115.292 337.489,115.721 337.879,115.780 337.879 C 115.840 337.879,115.508 337.489,115.043 337.013 C 114.578 336.537,114.149 336.147,114.090 336.147 C 114.030 336.147,114.362 336.537,114.827 337.013 M176.894 340.205 C 178.531 340.242,181.209 340.242,182.846 340.205 C 184.483 340.168,183.144 340.138,179.870 340.138 C 176.596 340.138,175.257 340.168,176.894 340.205 M125.184 342.424 C 125.184 343.436,125.221 343.850,125.267 343.344 C 125.312 342.838,125.312 342.010,125.267 341.504 C 125.221 340.998,125.184 341.412,125.184 342.424 M138.303 355.682 C 138.833 356.247,139.296 356.710,139.331 356.710 C 139.493 356.710,139.321 356.516,138.366 355.619 L 137.338 354.654 138.303 355.682 " stroke="none" fill="#8e9195" fill-rule="evenodd"></path><path id="path3" d="M201.966 10.900 C 202.016 10.943,202.446 11.037,202.922 11.110 C 203.512 11.201,203.684 11.177,203.463 11.036 C 203.167 10.848,201.756 10.719,201.966 10.900 M180.628 18.947 C 180.086 19.208,180.068 19.238,180.519 19.128 C 181.133 18.978,181.822 18.626,181.494 18.631 C 181.374 18.633,180.985 18.775,180.628 18.947 M159.199 26.623 C 158.926 26.741,158.886 26.809,159.091 26.809 C 159.269 26.809,159.610 26.726,159.848 26.623 C 160.121 26.506,160.161 26.437,159.957 26.437 C 159.778 26.437,159.437 26.521,159.199 26.623 M154.004 28.355 C 153.731 28.472,153.691 28.541,153.896 28.541 C 154.075 28.541,154.416 28.457,154.654 28.355 C 154.927 28.238,154.967 28.169,154.762 28.169 C 154.583 28.169,154.242 28.253,154.004 28.355 M327.976 43.223 C 328.185 43.277,328.525 43.277,328.734 43.223 C 328.942 43.168,328.772 43.124,328.355 43.124 C 327.938 43.124,327.768 43.168,327.976 43.223 M330.615 43.310 C 330.548 43.418,330.743 43.506,331.048 43.506 C 331.711 43.506,331.765 43.383,331.169 43.227 C 330.931 43.165,330.682 43.202,330.615 43.310 M73.325 43.876 C 73.594 43.928,73.984 43.926,74.191 43.872 C 74.398 43.817,74.177 43.775,73.701 43.778 C 73.225 43.780,73.056 43.824,73.325 43.876 M336.096 43.876 C 336.365 43.928,336.754 43.926,336.961 43.872 C 337.168 43.817,336.948 43.775,336.472 43.778 C 335.996 43.780,335.826 43.824,336.096 43.876 M61.743 48.377 C 61.745 48.853,61.790 49.022,61.841 48.753 C 61.893 48.484,61.891 48.094,61.837 47.887 C 61.783 47.680,61.740 47.900,61.743 48.377 M343.384 55.844 C 343.384 58.761,343.414 59.954,343.452 58.496 C 343.489 57.037,343.489 54.651,343.452 53.193 C 343.414 51.734,343.384 52.927,343.384 55.844 M198.918 55.638 C 198.681 55.798,198.768 55.818,199.242 55.712 C 200.038 55.534,200.211 55.410,199.657 55.415 C 199.429 55.416,199.096 55.517,198.918 55.638 M191.937 58.132 C 191.098 58.588,191.193 58.745,192.045 58.311 C 192.861 57.896,193.006 57.789,192.731 57.801 C 192.622 57.806,192.265 57.955,191.937 58.132 M88.477 66.603 C 88.746 66.655,89.135 66.653,89.342 66.599 C 89.549 66.545,89.329 66.502,88.853 66.505 C 88.377 66.507,88.207 66.552,88.477 66.603 M319.107 69.264 C 319.107 69.800,319.149 70.019,319.200 69.751 C 319.252 69.483,319.252 69.045,319.200 68.777 C 319.149 68.509,319.107 68.728,319.107 69.264 M202.685 71.246 C 202.587 71.404,202.626 71.437,202.790 71.335 C 202.933 71.247,203.193 71.294,203.369 71.441 C 203.633 71.660,203.666 71.644,203.553 71.351 C 203.396 70.940,202.910 70.881,202.685 71.246 M156.006 78.695 C 155.197 79.134,155.247 79.317,156.061 78.896 C 156.418 78.711,156.710 78.514,156.710 78.458 C 156.710 78.318,156.687 78.326,156.006 78.695 M213.736 80.317 C 213.665 80.432,214.055 80.519,214.634 80.519 C 215.813 80.519,215.825 80.418,214.668 80.240 C 214.224 80.171,213.805 80.206,213.736 80.317 M214.003 82.583 C 213.669 82.876,213.482 83.117,213.587 83.117 C 213.691 83.117,214.006 82.873,214.286 82.576 C 214.933 81.887,214.790 81.891,214.003 82.583 M194.156 84.091 C 194.560 84.508,194.939 84.848,194.998 84.848 C 195.058 84.848,194.776 84.508,194.372 84.091 C 193.968 83.674,193.589 83.333,193.530 83.333 C 193.470 83.333,193.752 83.674,194.156 84.091 M210.452 89.502 C 210.453 90.097,210.495 90.315,210.545 89.986 C 210.595 89.657,210.593 89.170,210.542 88.904 C 210.491 88.638,210.450 88.907,210.452 89.502 M261.306 91.991 C 261.306 92.408,261.350 92.578,261.405 92.370 C 261.459 92.162,261.459 91.821,261.405 91.613 C 261.350 91.404,261.306 91.575,261.306 91.991 M195.346 94.806 C 195.346 95.489,195.405 95.548,195.818 95.285 C 196.007 95.166,195.978 94.996,195.710 94.641 L 195.346 94.158 195.346 94.806 M210.294 95.123 C 210.779 95.489,211.255 95.550,211.255 95.245 C 211.255 95.130,211.119 95.088,210.953 95.151 C 210.786 95.215,210.586 95.164,210.507 95.036 C 210.428 94.909,210.254 94.805,210.119 94.805 C 209.984 94.805,210.063 94.948,210.294 95.123 M149.784 101.407 C 150.430 102.062,151.008 102.597,151.067 102.597 C 151.127 102.597,150.647 102.062,150.000 101.407 C 149.353 100.752,148.776 100.216,148.716 100.216 C 148.657 100.216,149.137 100.752,149.784 101.407 M254.654 102.733 C 254.264 103.064,254.185 103.196,254.455 103.061 C 254.852 102.864,255.596 102.152,255.384 102.172 C 255.339 102.177,255.011 102.429,254.654 102.733 M198.435 103.620 C 198.824 103.668,199.408 103.667,199.733 103.618 C 200.059 103.568,199.740 103.529,199.026 103.530 C 198.312 103.531,198.046 103.572,198.435 103.620 M206.983 103.619 C 207.313 103.668,207.800 103.667,208.066 103.616 C 208.332 103.564,208.063 103.523,207.468 103.525 C 206.872 103.527,206.654 103.569,206.983 103.619 M157.653 112.662 C 157.652 113.734,157.689 114.199,157.734 113.697 C 157.779 113.195,157.780 112.318,157.735 111.749 C 157.690 111.180,157.653 111.591,157.653 112.662 M199.405 111.201 C 200.804 111.238,203.093 111.238,204.491 111.201 C 205.890 111.163,204.746 111.132,201.948 111.132 C 199.150 111.132,198.006 111.163,199.405 111.201 M193.994 111.405 C 194.202 111.459,194.543 111.459,194.751 111.405 C 194.959 111.350,194.789 111.306,194.372 111.306 C 193.956 111.306,193.785 111.350,193.994 111.405 M209.039 111.408 C 209.309 111.460,209.698 111.458,209.905 111.404 C 210.112 111.350,209.892 111.308,209.416 111.310 C 208.939 111.312,208.770 111.357,209.039 111.408 M214.581 111.736 C 214.430 111.979,215.416 111.938,215.801 111.684 C 216.044 111.524,215.945 111.482,215.406 111.518 C 215.010 111.545,214.639 111.643,214.581 111.736 M185.771 112.060 C 186.100 112.110,186.587 112.109,186.854 112.057 C 187.120 112.006,186.851 111.965,186.255 111.967 C 185.660 111.968,185.442 112.010,185.771 112.060 M219.535 112.270 C 219.743 112.325,220.084 112.325,220.292 112.270 C 220.501 112.216,220.330 112.171,219.913 112.171 C 219.497 112.171,219.326 112.216,219.535 112.270 M221.212 112.338 C 220.924 112.524,220.924 112.547,221.212 112.547 C 221.391 112.547,221.683 112.453,221.861 112.338 C 222.150 112.151,222.150 112.128,221.861 112.128 C 221.683 112.128,221.391 112.222,221.212 112.338 M178.087 112.924 C 178.356 112.975,178.746 112.973,178.953 112.919 C 179.160 112.865,178.939 112.823,178.463 112.825 C 177.987 112.828,177.818 112.872,178.087 112.924 M239.200 115.062 C 238.795 115.349,238.570 115.584,238.701 115.584 C 238.831 115.584,239.210 115.344,239.544 115.050 C 240.309 114.377,240.156 114.382,239.200 115.062 M245.144 119.426 C 244.676 120.024,244.639 120.125,245.002 119.808 C 245.436 119.429,246.008 118.615,245.841 118.615 C 245.807 118.615,245.493 118.980,245.144 119.426 M244.501 120.596 C 244.566 120.701,244.709 120.730,244.820 120.662 C 244.931 120.593,245.022 120.640,245.022 120.766 C 245.022 120.893,245.127 120.996,245.256 120.996 C 245.701 120.996,245.309 120.454,244.847 120.430 C 244.592 120.417,244.436 120.492,244.501 120.596 M246.771 121.699 C 246.821 121.729,247.154 121.997,247.511 122.294 L 248.160 122.835 247.635 122.240 C 247.347 121.913,247.014 121.645,246.896 121.645 C 246.778 121.645,246.722 121.669,246.771 121.699 M251.144 129.329 C 251.146 129.924,251.188 130.142,251.238 129.813 C 251.287 129.484,251.286 128.997,251.235 128.731 C 251.183 128.465,251.143 128.734,251.144 129.329 M154.180 130.844 C 154.181 131.558,154.221 131.825,154.269 131.436 C 154.318 131.046,154.317 130.462,154.267 130.137 C 154.218 129.812,154.178 130.130,154.180 130.844 M399.476 138.942 C 399.258 139.183,399.140 139.570,399.196 139.863 C 399.284 140.326,399.294 140.319,399.321 139.783 C 399.337 139.462,399.520 139.104,399.728 138.988 C 399.935 138.872,400.048 138.720,399.979 138.651 C 399.910 138.582,399.683 138.713,399.476 138.942 M399.193 141.558 C 399.193 142.094,399.235 142.313,399.287 142.045 C 399.339 141.778,399.339 141.339,399.287 141.071 C 399.235 140.804,399.193 141.023,399.193 141.558 M399.208 145.130 C 399.209 146.082,399.247 146.445,399.293 145.936 C 399.339 145.427,399.338 144.648,399.292 144.204 C 399.245 143.761,399.208 144.177,399.208 145.130 M399.189 148.593 C 399.191 149.069,399.236 149.239,399.287 148.969 C 399.339 148.700,399.337 148.310,399.283 148.104 C 399.229 147.897,399.186 148.117,399.189 148.593 M160.931 149.351 C 161.517 149.946,162.045 150.433,162.105 150.433 C 162.164 150.433,161.733 149.946,161.147 149.351 C 160.561 148.755,160.033 148.268,159.973 148.268 C 159.913 148.268,160.344 148.755,160.931 149.351 M399.225 151.674 C 399.238 152.617,399.321 152.923,399.567 152.941 C 399.746 152.953,399.775 152.924,399.632 152.875 C 399.487 152.825,399.335 152.264,399.289 151.608 L 399.207 150.431 399.225 151.674 M319.342 176.407 C 319.342 177.538,319.379 178.001,319.423 177.435 C 319.468 176.870,319.468 175.944,319.423 175.379 C 319.379 174.813,319.342 175.276,319.342 176.407 M226.840 177.381 C 225.953 178.274,225.276 179.004,225.336 179.004 C 225.395 179.004,226.169 178.274,227.056 177.381 C 227.943 176.488,228.620 175.758,228.561 175.758 C 228.501 175.758,227.727 176.488,226.840 177.381 M178.571 177.597 C 178.975 178.014,179.354 178.355,179.414 178.355 C 179.473 178.355,179.192 178.014,178.788 177.597 C 178.384 177.181,178.005 176.840,177.945 176.840 C 177.886 176.840,178.168 177.181,178.571 177.597 M319.357 184.632 C 319.357 187.430,319.388 188.574,319.426 187.175 C 319.463 185.777,319.463 183.488,319.426 182.089 C 319.388 180.690,319.357 181.834,319.357 184.632 M232.555 180.336 C 232.457 180.496,232.496 180.527,232.664 180.423 C 232.813 180.332,233.134 180.435,233.401 180.661 L 233.874 181.061 233.462 180.574 C 233.000 180.027,232.781 179.970,232.555 180.336 M170.996 180.584 C 170.817 180.731,170.478 181.093,170.243 181.389 C 169.989 181.707,170.143 181.623,170.621 181.180 C 171.347 180.510,171.538 180.289,171.374 180.310 C 171.345 180.314,171.174 180.437,170.996 180.584 M399.227 181.238 C 399.167 181.396,399.146 182.491,399.182 183.673 L 399.246 185.823 399.352 183.387 C 399.458 180.977,399.441 180.682,399.227 181.238 M399.208 187.554 C 399.209 188.506,399.247 188.869,399.293 188.360 C 399.339 187.851,399.338 187.072,399.292 186.628 C 399.245 186.185,399.208 186.602,399.208 187.554 M226.183 187.608 L 225.000 188.853 226.245 187.670 C 227.401 186.571,227.588 186.364,227.428 186.364 C 227.394 186.364,226.834 186.924,226.183 187.608 M178.896 188.312 C 179.361 188.788,179.790 189.177,179.850 189.177 C 179.909 189.177,179.578 188.788,179.113 188.312 C 178.648 187.835,178.218 187.446,178.159 187.446 C 178.099 187.446,178.431 187.835,178.896 188.312 M182.035 190.981 C 182.035 191.040,182.424 191.398,182.900 191.775 C 183.377 192.152,183.766 192.412,183.766 192.352 C 183.766 192.293,183.377 191.936,182.900 191.558 C 182.424 191.181,182.035 190.921,182.035 190.981 M399.189 191.883 C 399.191 192.359,399.236 192.529,399.287 192.259 C 399.339 191.990,399.337 191.601,399.283 191.394 C 399.229 191.187,399.186 191.407,399.189 191.883 M166.293 193.074 C 166.293 193.609,166.335 193.828,166.387 193.561 C 166.438 193.293,166.438 192.854,166.387 192.587 C 166.335 192.319,166.293 192.538,166.293 193.074 M399.184 193.506 C 399.184 193.923,399.229 194.094,399.283 193.885 C 399.338 193.677,399.338 193.336,399.283 193.128 C 399.229 192.919,399.184 193.090,399.184 193.506 M251.170 193.561 C 250.761 194.043,250.761 194.045,251.190 193.697 C 251.429 193.504,251.769 193.293,251.948 193.227 C 252.224 193.126,252.221 193.105,251.927 193.091 C 251.738 193.081,251.397 193.293,251.170 193.561 M319.329 195.671 C 319.329 196.326,319.370 196.594,319.419 196.266 C 319.469 195.939,319.469 195.403,319.419 195.076 C 319.370 194.748,319.329 195.016,319.329 195.671 M319.352 200.325 C 319.352 202.229,319.385 202.980,319.425 201.992 C 319.465 201.004,319.465 199.446,319.425 198.529 C 319.384 197.612,319.351 198.420,319.352 200.325 M166.296 198.593 C 166.297 199.188,166.339 199.406,166.389 199.077 C 166.439 198.748,166.438 198.261,166.386 197.995 C 166.335 197.729,166.294 197.998,166.296 198.593 M206.372 200.054 L 205.736 200.758 206.439 200.122 C 206.826 199.772,207.143 199.456,207.143 199.418 C 207.143 199.251,206.964 199.398,206.372 200.054 M278.214 203.708 C 278.446 203.843,278.693 203.861,278.805 203.749 C 278.917 203.637,278.750 203.540,278.405 203.516 C 277.886 203.479,277.863 203.503,278.214 203.708 M119.252 206.439 L 118.506 207.251 119.318 206.505 C 119.765 206.095,120.130 205.730,120.130 205.693 C 120.130 205.528,119.947 205.684,119.252 206.439 M285.173 207.143 C 285.638 207.619,286.067 208.009,286.127 208.009 C 286.186 208.009,285.855 207.619,285.390 207.143 C 284.925 206.667,284.495 206.277,284.436 206.277 C 284.376 206.277,284.708 206.667,285.173 207.143 M319.355 210.714 C 319.355 213.095,319.386 214.099,319.425 212.944 C 319.464 211.790,319.464 209.842,319.426 208.615 C 319.387 207.389,319.355 208.333,319.355 210.714 M250.216 208.920 C 250.276 208.979,250.663 209.141,251.077 209.281 C 251.491 209.421,251.735 209.442,251.618 209.329 C 251.502 209.215,251.115 209.052,250.758 208.968 C 250.400 208.883,250.157 208.862,250.216 208.920 M116.234 210.390 C 115.979 210.747,115.820 211.039,115.880 211.039 C 115.939 211.039,116.196 210.747,116.450 210.390 C 116.705 210.032,116.864 209.740,116.804 209.740 C 116.745 209.740,116.488 210.032,116.234 210.390 M264.286 214.069 C 264.709 214.343,265.152 214.343,265.152 214.069 C 265.152 213.950,264.884 213.854,264.556 213.856 C 264.092 213.859,264.033 213.906,264.286 214.069 M110.580 217.478 C 110.283 217.806,109.770 218.463,109.439 218.939 C 108.786 219.879,109.234 219.413,110.564 217.768 C 111.379 216.761,111.388 216.587,110.580 217.478 M319.341 223.052 C 319.340 224.123,319.377 224.589,319.422 224.087 C 319.468 223.584,319.468 222.708,319.423 222.139 C 319.379 221.569,319.342 221.981,319.341 223.052 M106.927 221.969 C 106.648 222.266,106.461 222.545,106.511 222.590 C 106.561 222.634,106.828 222.391,107.105 222.049 C 107.725 221.285,107.616 221.236,106.927 221.969 M85.788 223.268 C 85.789 224.221,85.827 224.583,85.873 224.074 C 85.919 223.565,85.918 222.786,85.872 222.343 C 85.825 221.899,85.788 222.316,85.788 223.268 M210.162 222.673 L 209.416 223.485 210.227 222.739 C 210.983 222.045,211.138 221.861,210.973 221.861 C 210.937 221.861,210.572 222.227,210.162 222.673 M208.503 226.732 C 208.505 227.327,208.547 227.545,208.597 227.216 C 208.647 226.887,208.645 226.400,208.594 226.133 C 208.543 225.867,208.502 226.136,208.503 226.732 M61.758 227.273 C 61.758 228.047,61.797 228.363,61.845 227.976 C 61.893 227.589,61.893 226.956,61.845 226.569 C 61.797 226.182,61.758 226.499,61.758 227.273 M318.669 233.442 C 318.672 233.918,318.716 234.087,318.768 233.818 C 318.820 233.549,318.818 233.159,318.763 232.952 C 318.709 232.745,318.667 232.965,318.669 233.442 M194.546 243.189 C 194.482 243.252,186.065 243.311,175.841 243.319 C 164.831 243.328,157.633 243.410,158.189 243.520 C 160.388 243.957,195.222 243.635,194.769 243.182 C 194.710 243.122,194.609 243.125,194.546 243.189 M211.591 243.467 C 211.704 243.564,212.478 243.580,213.312 243.501 L 214.827 243.358 213.106 243.324 C 212.160 243.305,211.478 243.370,211.591 243.467 M216.396 243.659 C 216.664 243.711,217.102 243.711,217.370 243.659 C 217.638 243.608,217.419 243.565,216.883 243.565 C 216.347 243.565,216.128 243.608,216.396 243.659 M222.727 245.300 C 222.906 245.478,223.295 245.696,223.593 245.783 C 224.281 245.984,224.126 245.829,223.160 245.350 C 222.576 245.060,222.477 245.049,222.727 245.300 M264.366 249.784 C 264.366 251.034,264.402 251.545,264.445 250.920 C 264.489 250.295,264.489 249.272,264.445 248.647 C 264.402 248.022,264.366 248.534,264.366 249.784 M97.886 251.515 C 97.886 251.932,97.930 252.102,97.985 251.894 C 98.039 251.686,98.039 251.345,97.985 251.136 C 97.930 250.928,97.886 251.098,97.886 251.515 M173.755 252.327 C 181.642 252.358,194.548 252.358,202.435 252.327 C 210.322 252.295,203.869 252.270,188.095 252.270 C 172.321 252.270,165.869 252.295,173.755 252.327 M137.659 257.738 L 134.957 260.498 137.716 257.795 C 140.280 255.285,140.574 254.978,140.419 254.978 C 140.387 254.978,139.145 256.220,137.659 257.738 M97.035 258.874 C 97.035 259.529,97.075 259.797,97.125 259.470 C 97.174 259.142,97.174 258.607,97.125 258.279 C 97.075 257.952,97.035 258.220,97.035 258.874 M148.473 259.017 L 147.727 259.809 148.539 259.180 C 148.985 258.833,149.351 258.477,149.351 258.387 C 149.351 258.119,149.252 258.190,148.473 259.017 M231.440 258.983 C 231.442 259.459,231.487 259.628,231.538 259.359 C 231.590 259.090,231.588 258.700,231.534 258.493 C 231.480 258.286,231.437 258.506,231.440 258.983 M132.035 263.528 C 131.148 264.421,130.471 265.152,130.530 265.152 C 130.590 265.152,131.364 264.421,132.251 263.528 C 133.138 262.635,133.815 261.905,133.755 261.905 C 133.696 261.905,132.922 262.635,132.035 263.528 M258.712 263.441 C 258.206 263.800,257.792 264.141,257.792 264.200 C 257.792 264.258,258.231 264.005,258.766 263.636 C 259.302 263.268,259.740 262.922,259.740 262.868 C 259.740 262.719,259.699 262.742,258.712 263.441 M222.832 287.121 C 222.832 299.740,222.858 304.934,222.890 298.664 C 222.921 292.393,222.921 282.068,222.890 275.720 C 222.858 269.372,222.832 274.502,222.832 287.121 M308.708 266.017 C 308.708 266.434,308.753 266.604,308.807 266.396 C 308.862 266.188,308.862 265.847,308.807 265.639 C 308.753 265.430,308.708 265.601,308.708 266.017 M96.129 268.182 C 95.855 269.098,95.552 269.297,95.387 268.669 C 95.304 268.349,95.284 268.345,95.263 268.642 C 95.174 269.891,96.173 269.443,96.410 268.128 C 96.602 267.063,96.456 267.092,96.129 268.182 M308.689 268.873 C 308.657 269.703,308.971 270.120,309.345 269.746 C 309.489 269.602,309.483 269.481,309.326 269.384 C 309.197 269.304,309.077 269.366,309.060 269.522 C 309.043 269.678,308.960 269.416,308.874 268.939 L 308.719 268.074 308.689 268.873 M160.228 271.320 C 160.230 271.797,160.274 271.966,160.326 271.697 C 160.378 271.427,160.376 271.038,160.322 270.831 C 160.268 270.624,160.225 270.844,160.228 271.320 M149.385 272.485 C 149.226 272.586,146.864 272.619,144.137 272.559 C 141.243 272.495,139.177 272.530,139.177 272.645 C 139.177 272.926,149.544 272.840,150.216 272.553 L 150.758 272.322 150.216 272.311 C 149.919 272.306,149.545 272.384,149.385 272.485 M136.580 272.928 C 136.580 273.038,136.886 273.090,137.259 273.043 C 138.235 272.919,138.305 272.727,137.374 272.727 C 136.937 272.727,136.580 272.818,136.580 272.928 M125.213 301.515 C 125.213 316.932,125.239 323.239,125.271 315.530 C 125.302 307.822,125.302 295.208,125.271 287.500 C 125.239 279.792,125.213 286.098,125.213 301.515 M177.327 273.965 C 177.654 274.014,178.190 274.014,178.517 273.965 C 178.845 273.915,178.577 273.874,177.922 273.874 C 177.267 273.874,176.999 273.915,177.327 273.965 M186.541 273.972 C 189.913 274.005,195.367 274.005,198.663 273.972 C 201.958 273.938,199.199 273.911,192.532 273.911 C 185.866 273.911,183.170 273.938,186.541 273.972 M208.717 278.139 C 208.717 278.674,208.759 278.893,208.811 278.626 C 208.862 278.358,208.862 277.919,208.811 277.652 C 208.759 277.384,208.717 277.603,208.717 278.139 M171.645 280.844 C 172.049 281.261,172.428 281.602,172.488 281.602 C 172.547 281.602,172.265 281.261,171.861 280.844 C 171.458 280.427,171.078 280.087,171.019 280.087 C 170.959 280.087,171.241 280.427,171.645 280.844 M140.368 280.957 L 134.091 281.071 141.432 281.120 C 145.470 281.147,148.733 281.133,148.683 281.089 C 148.456 280.889,146.173 280.853,140.368 280.957 M149.405 280.891 C 149.732 280.941,150.268 280.941,150.595 280.891 C 150.923 280.841,150.655 280.801,150.000 280.801 C 149.345 280.801,149.077 280.841,149.405 280.891 M134.085 300.866 C 134.085 309.378,134.112 312.860,134.145 308.604 C 134.178 304.348,134.178 297.384,134.145 293.128 C 134.112 288.872,134.085 292.354,134.085 300.866 M208.725 297.511 C 208.726 298.225,208.767 298.491,208.815 298.102 C 208.863 297.713,208.862 297.129,208.813 296.803 C 208.763 296.478,208.724 296.797,208.725 297.511 M150.433 300.325 C 150.837 300.741,151.216 301.082,151.275 301.082 C 151.335 301.082,151.053 300.741,150.649 300.325 C 150.246 299.908,149.866 299.567,149.807 299.567 C 149.747 299.567,150.029 299.908,150.433 300.325 M207.454 300.703 L 206.818 301.407 207.522 300.771 C 208.177 300.179,208.325 300.000,208.157 300.000 C 208.120 300.000,207.804 300.317,207.454 300.703 M166.396 301.677 C 173.569 301.709,185.306 301.709,192.478 301.677 C 199.651 301.646,193.782 301.620,179.437 301.620 C 165.092 301.620,159.223 301.646,166.396 301.677 M90.890 309.920 C 91.006 310.139,91.272 310.455,91.480 310.624 C 91.714 310.814,91.661 310.663,91.343 310.227 C 90.774 309.451,90.561 309.306,90.890 309.920 M156.818 312.556 C 157.520 312.733,201.724 312.634,201.903 312.455 C 201.962 312.396,191.696 312.358,179.090 312.370 C 166.483 312.383,156.461 312.467,156.818 312.556 M222.822 320.455 C 222.823 323.788,222.853 325.121,222.889 323.418 C 222.926 321.714,222.926 318.987,222.889 317.357 C 222.852 315.727,222.822 317.121,222.822 320.455 M208.581 315.801 C 208.752 316.734,208.876 316.910,208.871 316.216 C 208.869 315.928,208.772 315.547,208.655 315.368 C 208.505 315.140,208.483 315.268,208.581 315.801 M134.067 319.156 C 134.067 320.703,134.102 321.308,134.143 320.500 C 134.185 319.691,134.185 318.425,134.143 317.686 C 134.101 316.947,134.066 317.608,134.067 319.156 M134.084 335.498 C 134.084 342.462,134.111 345.311,134.145 341.829 C 134.178 338.347,134.178 332.649,134.145 329.167 C 134.111 325.685,134.084 328.534,134.084 335.498 M222.801 328.247 C 222.802 329.199,222.840 329.562,222.886 329.053 C 222.932 328.544,222.931 327.764,222.885 327.321 C 222.838 326.878,222.801 327.294,222.801 328.247 M298.804 328.842 L 297.078 330.628 298.864 328.901 C 300.522 327.298,300.748 327.056,300.590 327.056 C 300.558 327.056,299.754 327.860,298.804 328.842 M106.494 328.896 C 107.140 329.551,107.718 330.087,107.777 330.087 C 107.837 330.087,107.357 329.551,106.710 328.896 C 106.063 328.241,105.486 327.706,105.426 327.706 C 105.367 327.706,105.847 328.241,106.494 328.896 M153.757 331.535 C 153.928 331.706,183.339 331.668,183.510 331.497 C 183.572 331.436,176.869 331.385,168.615 331.385 C 160.361 331.385,153.675 331.453,153.757 331.535 M187.531 331.973 C 187.867 332.059,187.886 332.118,187.640 332.292 C 187.411 332.454,187.448 332.481,187.794 332.406 C 188.045 332.352,188.410 332.397,188.606 332.507 C 188.801 332.616,188.961 332.654,188.961 332.592 C 188.961 332.414,187.715 331.815,187.403 331.843 C 187.248 331.857,187.306 331.916,187.531 331.973 M125.187 336.039 C 125.188 337.229,125.224 337.689,125.268 337.060 C 125.312 336.431,125.311 335.457,125.267 334.895 C 125.223 334.334,125.187 334.848,125.187 336.039 M113.095 335.498 C 113.802 336.212,114.429 336.797,114.489 336.797 C 114.548 336.797,114.019 336.212,113.312 335.498 C 112.605 334.784,111.978 334.199,111.918 334.199 C 111.859 334.199,112.388 334.784,113.095 335.498 M288.956 338.690 L 287.121 340.584 289.015 338.749 C 290.774 337.045,291.008 336.797,290.850 336.797 C 290.818 336.797,289.966 337.649,288.956 338.690 M115.801 337.947 C 115.801 337.984,116.117 338.300,116.504 338.650 L 117.208 339.286 116.572 338.582 C 115.979 337.927,115.801 337.779,115.801 337.947 M149.784 338.019 C 149.784 338.135,150.100 338.517,150.487 338.866 L 151.190 339.502 150.541 338.746 C 150.184 338.330,149.867 337.948,149.838 337.898 C 149.808 337.848,149.784 337.902,149.784 338.019 M117.532 339.462 C 117.532 339.499,117.849 339.815,118.236 340.165 L 118.939 340.801 118.304 340.097 C 117.711 339.442,117.532 339.294,117.532 339.462 M156.442 339.980 C 156.711 340.032,157.101 340.030,157.308 339.976 C 157.515 339.921,157.294 339.879,156.818 339.881 C 156.342 339.884,156.173 339.928,156.442 339.980 M159.911 339.987 C 160.660 340.030,161.829 340.029,162.508 339.987 C 163.188 339.944,162.576 339.909,161.147 339.909 C 159.719 339.910,159.162 339.945,159.911 339.987 M172.026 339.980 C 172.296 340.032,172.685 340.030,172.892 339.976 C 173.099 339.921,172.879 339.879,172.403 339.881 C 171.926 339.884,171.757 339.928,172.026 339.980 M123.810 345.407 C 123.810 345.689,124.833 346.019,125.046 345.805 C 125.120 345.731,124.989 345.671,124.755 345.671 C 124.521 345.671,124.212 345.554,124.069 345.411 C 123.872 345.214,123.810 345.213,123.810 345.407 M280.087 346.563 C 279.501 347.092,279.372 347.271,279.762 347.013 C 280.360 346.617,281.351 345.663,281.148 345.677 C 281.100 345.681,280.622 346.080,280.087 346.563 M271.429 353.490 C 270.674 354.151,270.674 354.152,271.368 353.690 C 271.751 353.435,272.122 353.134,272.192 353.020 C 272.401 352.682,272.228 352.789,271.429 353.490 M268.824 355.472 C 268.523 355.736,268.036 356.127,267.742 356.341 C 267.228 356.714,267.235 356.714,267.924 356.341 C 268.318 356.127,268.847 355.733,269.098 355.465 C 269.681 354.845,269.536 354.849,268.824 355.472 M239.989 373.824 C 239.543 374.060,239.177 374.301,239.177 374.360 C 239.177 374.419,239.567 374.269,240.043 374.026 C 240.519 373.783,240.909 373.538,240.909 373.480 C 240.909 373.339,240.908 373.339,239.989 373.824 M233.766 377.165 C 233.394 377.377,233.335 377.476,233.577 377.482 C 233.771 377.486,234.051 377.343,234.199 377.165 C 234.529 376.767,234.461 376.767,233.766 377.165 M223.377 382.359 C 223.004 382.572,222.945 382.671,223.188 382.676 C 223.382 382.681,223.661 382.538,223.810 382.359 C 224.139 381.962,224.071 381.962,223.377 382.359 " stroke="none" fill="#babcbe" fill-rule="evenodd"></path><path id="path4" d="M201.896 37.815 C 202.166 37.867,202.555 37.865,202.762 37.811 C 202.969 37.757,202.749 37.715,202.273 37.717 C 201.797 37.719,201.627 37.764,201.896 37.815 M75.379 43.872 C 75.587 43.927,75.928 43.927,76.136 43.872 C 76.345 43.818,76.174 43.773,75.758 43.773 C 75.341 43.773,75.170 43.818,75.379 43.872 M71.161 44.092 C 71.430 44.144,71.819 44.142,72.026 44.088 C 72.233 44.034,72.013 43.992,71.537 43.994 C 71.061 43.996,70.891 44.041,71.161 44.092 M341.558 44.873 C 341.558 44.910,341.875 45.227,342.262 45.576 L 342.965 46.212 342.330 45.509 C 341.737 44.853,341.558 44.706,341.558 44.873 M343.124 48.052 C 343.124 48.469,343.168 48.639,343.223 48.431 C 343.277 48.222,343.277 47.881,343.223 47.673 C 343.168 47.465,343.124 47.635,343.124 48.052 M202.327 55.348 C 202.595 55.399,203.033 55.399,203.301 55.348 C 203.569 55.296,203.350 55.254,202.814 55.254 C 202.278 55.254,202.059 55.296,202.327 55.348 M188.041 60.297 C 187.202 60.752,187.297 60.909,188.149 60.476 C 188.965 60.061,189.110 59.953,188.835 59.965 C 188.726 59.970,188.369 60.119,188.041 60.297 M178.301 65.708 C 177.492 66.147,177.541 66.330,178.355 65.909 C 178.712 65.724,179.004 65.527,179.004 65.471 C 179.004 65.331,178.981 65.339,178.301 65.708 M85.567 70.563 C 85.567 71.337,85.606 71.653,85.654 71.266 C 85.702 70.879,85.702 70.246,85.654 69.859 C 85.606 69.472,85.567 69.789,85.567 70.563 M319.366 87.879 C 319.366 96.153,319.393 99.537,319.426 95.400 C 319.459 91.264,319.459 84.494,319.426 80.357 C 319.393 76.220,319.366 79.605,319.366 87.879 M190.765 80.426 C 190.694 80.612,190.740 80.870,190.868 80.998 C 191.035 81.165,191.068 81.104,190.985 80.787 C 190.904 80.476,190.988 80.312,191.268 80.240 C 191.636 80.145,191.637 80.135,191.281 80.112 C 191.069 80.098,190.837 80.239,190.765 80.426 M213.734 83.171 L 212.879 84.091 213.799 83.235 C 214.305 82.765,214.719 82.351,214.719 82.315 C 214.719 82.152,214.530 82.315,213.734 83.171 M194.481 84.632 C 194.946 85.108,195.375 85.498,195.434 85.498 C 195.494 85.498,195.162 85.108,194.697 84.632 C 194.232 84.156,193.803 83.766,193.743 83.766 C 193.684 83.766,194.016 84.156,194.481 84.632 M148.485 99.843 C 148.485 99.876,149.240 100.631,150.162 101.521 L 151.840 103.139 150.222 101.461 C 148.719 99.903,148.485 99.685,148.485 99.843 M343.373 102.489 C 343.373 103.918,343.408 104.474,343.451 103.725 C 343.493 102.977,343.493 101.808,343.450 101.128 C 343.407 100.448,343.372 101.061,343.373 102.489 M85.598 114.394 C 85.599 120.584,85.626 123.086,85.660 119.952 C 85.694 116.819,85.694 111.754,85.660 108.697 C 85.626 105.640,85.598 108.203,85.598 114.394 M195.400 103.616 C 195.668 103.668,196.107 103.668,196.374 103.616 C 196.642 103.564,196.423 103.522,195.887 103.522 C 195.352 103.522,195.133 103.564,195.400 103.616 M209.905 103.616 C 210.174 103.668,210.564 103.666,210.771 103.612 C 210.978 103.558,210.758 103.515,210.281 103.518 C 209.805 103.520,209.636 103.565,209.905 103.616 M343.395 139.394 C 343.395 157.311,343.421 164.640,343.452 155.682 C 343.484 146.723,343.484 132.064,343.452 123.106 C 343.421 114.148,343.395 121.477,343.395 139.394 M319.362 115.476 C 319.362 120.000,319.391 121.881,319.426 119.657 C 319.461 117.433,319.461 113.731,319.426 111.432 C 319.391 109.132,319.362 110.952,319.362 115.476 M157.842 109.307 C 157.842 109.724,157.887 109.894,157.941 109.686 C 157.996 109.478,157.996 109.137,157.941 108.929 C 157.887 108.720,157.842 108.891,157.842 109.307 M247.259 111.039 C 247.259 111.932,247.297 112.297,247.344 111.851 C 247.391 111.404,247.391 110.674,247.344 110.227 C 247.297 109.781,247.259 110.146,247.259 111.039 M198.984 111.417 C 200.509 111.454,202.944 111.454,204.396 111.417 C 205.847 111.380,204.600 111.349,201.623 111.349 C 198.647 111.349,197.460 111.380,198.984 111.417 M164.919 114.340 C 165.259 114.726,165.639 114.925,166.001 114.906 L 166.558 114.876 166.017 114.778 C 165.720 114.725,165.233 114.470,164.935 114.213 L 164.394 113.745 164.919 114.340 M237.716 115.734 C 237.925 115.788,238.266 115.788,238.474 115.734 C 238.682 115.679,238.512 115.635,238.095 115.635 C 237.679 115.635,237.508 115.679,237.716 115.734 M156.452 124.188 C 156.070 124.632,155.784 125.108,155.899 125.108 C 155.943 125.108,156.195 124.816,156.459 124.459 C 156.981 123.753,156.976 123.578,156.452 124.188 M319.365 142.749 C 319.365 148.939,319.392 151.441,319.426 148.307 C 319.460 145.174,319.460 140.109,319.426 137.052 C 319.392 133.995,319.365 136.558,319.365 142.749 M399.469 139.448 C 399.220 140.588,399.456 152.668,399.729 152.760 C 399.942 152.831,400.000 151.365,400.000 145.905 C 400.000 139.569,399.848 137.715,399.469 139.448 M85.598 150.325 C 85.598 155.801,85.626 158.010,85.660 155.234 C 85.694 152.458,85.694 147.978,85.660 145.277 C 85.626 142.577,85.598 144.848,85.598 150.325 M160.813 148.972 C 161.344 149.537,161.807 150.000,161.842 150.000 C 162.004 150.000,161.832 149.806,160.877 148.909 L 159.848 147.944 160.813 148.972 M166.558 153.067 C 166.797 153.199,167.142 153.415,167.327 153.548 C 167.511 153.680,167.433 153.569,167.152 153.301 C 166.872 153.033,166.526 152.817,166.384 152.820 C 166.242 152.824,166.320 152.935,166.558 153.067 M85.594 172.835 C 85.594 176.407,85.623 177.898,85.660 176.150 C 85.696 174.401,85.696 171.479,85.660 169.656 C 85.624 167.833,85.594 169.264,85.594 172.835 M343.391 184.091 C 343.391 190.758,343.419 193.516,343.452 190.221 C 343.486 186.926,343.486 181.471,343.452 178.100 C 343.419 174.728,343.391 177.424,343.391 184.091 M226.832 177.219 L 225.649 178.463 226.894 177.280 C 228.050 176.181,228.238 175.974,228.077 175.974 C 228.043 175.974,227.483 176.534,226.832 177.219 M178.571 177.381 C 178.975 177.798,179.354 178.139,179.414 178.139 C 179.473 178.139,179.192 177.798,178.788 177.381 C 178.384 176.964,178.005 176.623,177.945 176.623 C 177.886 176.623,178.168 176.964,178.571 177.381 M399.495 181.097 C 399.311 181.281,399.305 192.896,399.488 194.234 C 399.830 196.729,400.000 194.693,400.000 188.095 C 400.000 181.575,399.934 180.658,399.495 181.097 M226.186 187.825 L 224.134 189.935 226.245 187.883 C 228.205 185.977,228.453 185.714,228.297 185.714 C 228.264 185.714,227.315 186.664,226.186 187.825 M199.299 187.383 C 199.568 187.434,199.958 187.432,200.165 187.378 C 200.372 187.324,200.152 187.282,199.675 187.284 C 199.199 187.286,199.030 187.331,199.299 187.383 M204.816 187.379 C 205.024 187.433,205.365 187.433,205.574 187.379 C 205.782 187.324,205.611 187.280,205.195 187.280 C 204.778 187.280,204.608 187.324,204.816 187.379 M238.816 196.429 C 238.817 197.262,238.856 197.576,238.903 197.127 C 238.949 196.678,238.949 195.996,238.901 195.612 C 238.853 195.228,238.815 195.595,238.816 196.429 M155.879 200.011 C 155.860 200.433,155.723 200.920,155.575 201.093 C 155.424 201.269,155.478 201.254,155.699 201.059 C 155.978 200.812,156.066 200.496,156.003 199.976 L 155.913 199.242 155.879 200.011 M61.743 203.139 C 61.745 203.615,61.790 203.784,61.841 203.515 C 61.893 203.246,61.891 202.856,61.837 202.649 C 61.783 202.442,61.740 202.662,61.743 203.139 M61.788 214.177 C 61.788 219.297,61.816 221.360,61.850 218.762 C 61.885 216.165,61.885 211.977,61.850 209.455 C 61.816 206.933,61.787 209.058,61.788 214.177 M277.972 213.420 C 277.972 213.837,278.017 214.007,278.071 213.799 C 278.126 213.590,278.126 213.249,278.071 213.041 C 278.017 212.833,277.972 213.003,277.972 213.420 M85.581 215.801 C 85.581 217.289,85.616 217.898,85.658 217.154 C 85.700 216.410,85.700 215.192,85.658 214.448 C 85.616 213.704,85.581 214.313,85.581 215.801 M214.286 215.436 C 214.286 215.473,214.602 215.790,214.989 216.139 L 215.693 216.775 215.057 216.071 C 214.464 215.416,214.286 215.268,214.286 215.436 M213.636 219.372 C 212.749 220.265,212.073 220.996,212.132 220.996 C 212.192 220.996,212.966 220.265,213.853 219.372 C 214.740 218.479,215.417 217.749,215.357 217.749 C 215.298 217.749,214.523 218.479,213.636 219.372 M210.921 222.132 L 210.065 223.052 210.985 222.196 C 211.840 221.401,212.004 221.212,211.840 221.212 C 211.805 221.212,211.391 221.626,210.921 222.132 M343.355 222.511 C 343.355 223.166,343.395 223.433,343.445 223.106 C 343.495 222.779,343.495 222.243,343.445 221.916 C 343.395 221.588,343.355 221.856,343.355 222.511 M319.319 226.299 C 319.321 226.775,319.365 226.944,319.417 226.675 C 319.469 226.406,319.467 226.016,319.413 225.809 C 319.359 225.602,319.316 225.823,319.319 226.299 M85.773 227.489 C 85.773 228.025,85.815 228.244,85.867 227.976 C 85.919 227.708,85.919 227.270,85.867 227.002 C 85.815 226.734,85.773 226.953,85.773 227.489 M343.128 227.597 C 343.131 228.074,343.175 228.243,343.227 227.974 C 343.278 227.704,343.276 227.315,343.222 227.108 C 343.168 226.901,343.126 227.121,343.128 227.597 M61.964 229.437 C 61.964 229.973,62.006 230.192,62.058 229.924 C 62.109 229.656,62.109 229.218,62.058 228.950 C 62.006 228.682,61.964 228.902,61.964 229.437 M62.388 234.632 C 62.388 235.049,62.432 235.219,62.487 235.011 C 62.541 234.802,62.541 234.462,62.487 234.253 C 62.432 234.045,62.388 234.215,62.388 234.632 M242.587 236.737 C 242.973 236.785,243.607 236.785,243.994 236.737 C 244.380 236.689,244.064 236.649,243.290 236.649 C 242.516 236.649,242.200 236.689,242.587 236.737 M254.710 236.733 C 254.980 236.785,255.369 236.783,255.576 236.729 C 255.783 236.675,255.563 236.632,255.087 236.635 C 254.610 236.637,254.441 236.681,254.710 236.733 M256.442 236.733 C 256.711 236.785,257.101 236.783,257.308 236.729 C 257.515 236.675,257.294 236.632,256.818 236.635 C 256.342 236.637,256.173 236.681,256.442 236.733 M239.686 241.558 C 239.686 242.570,239.723 242.984,239.769 242.478 C 239.814 241.972,239.814 241.144,239.769 240.639 C 239.723 240.133,239.686 240.547,239.686 241.558 M211.127 242.803 C 211.495 243.238,211.716 243.285,213.183 243.247 L 214.827 243.204 213.209 243.128 C 212.089 243.076,211.456 242.939,211.153 242.684 C 210.717 242.318,210.717 242.319,211.127 242.803 M166.488 243.236 C 170.855 243.269,178.062 243.269,182.506 243.236 C 186.949 243.203,183.377 243.176,174.567 243.176 C 165.758 243.176,162.122 243.203,166.488 243.236 M216.071 243.439 C 216.280 243.494,216.621 243.494,216.829 243.439 C 217.037 243.385,216.867 243.340,216.450 243.340 C 216.034 243.340,215.863 243.385,216.071 243.439 M148.701 245.996 C 148.176 246.531,147.794 246.970,147.854 246.970 C 147.913 246.970,148.392 246.531,148.918 245.996 C 149.444 245.460,149.825 245.022,149.765 245.022 C 149.706 245.022,149.227 245.460,148.701 245.996 M227.056 248.160 C 227.460 248.577,227.839 248.918,227.899 248.918 C 227.958 248.918,227.677 248.577,227.273 248.160 C 226.869 247.744,226.490 247.403,226.430 247.403 C 226.371 247.403,226.652 247.744,227.056 248.160 M239.685 250.108 C 239.685 251.061,239.723 251.423,239.769 250.914 C 239.815 250.405,239.814 249.626,239.768 249.183 C 239.721 248.739,239.684 249.156,239.685 250.108 M138.201 256.981 L 134.524 260.714 138.258 257.037 C 141.726 253.621,142.089 253.247,141.935 253.247 C 141.904 253.247,140.224 254.927,138.201 256.981 M264.581 255.303 C 264.582 256.494,264.618 256.953,264.662 256.324 C 264.706 255.695,264.705 254.721,264.661 254.159 C 264.617 253.598,264.581 254.113,264.581 255.303 M222.570 259.957 C 222.570 260.492,222.612 260.712,222.664 260.444 C 222.715 260.176,222.715 259.738,222.664 259.470 C 222.612 259.202,222.570 259.421,222.570 259.957 M97.020 261.472 C 97.020 261.889,97.064 262.059,97.119 261.851 C 97.173 261.642,97.173 261.301,97.119 261.093 C 97.064 260.885,97.020 261.055,97.020 261.472 M231.708 305.628 C 231.708 330.211,231.733 340.268,231.764 327.976 C 231.795 315.685,231.795 295.571,231.764 283.279 C 231.733 270.988,231.708 281.044,231.708 305.628 M258.015 264.188 C 257.601 264.480,257.358 264.718,257.474 264.718 C 257.589 264.717,257.976 264.477,258.333 264.184 C 259.167 263.501,258.985 263.503,258.015 264.188 M96.591 266.126 C 96.594 266.602,96.638 266.771,96.690 266.502 C 96.742 266.233,96.740 265.843,96.686 265.636 C 96.631 265.429,96.589 265.649,96.591 266.126 M151.580 269.697 C 151.580 270.352,151.621 270.620,151.670 270.292 C 151.720 269.965,151.720 269.429,151.670 269.102 C 151.621 268.774,151.580 269.042,151.580 269.697 M96.320 269.253 C 96.320 269.432,96.130 269.495,95.786 269.429 C 95.492 269.373,95.303 269.410,95.366 269.512 C 95.527 269.774,96.267 269.742,96.437 269.466 C 96.516 269.339,96.522 269.177,96.450 269.105 C 96.379 269.034,96.320 269.100,96.320 269.253 M146.488 272.453 C 146.998 272.499,147.777 272.498,148.220 272.452 C 148.663 272.405,148.247 272.368,147.294 272.369 C 146.342 272.369,145.979 272.407,146.488 272.453 M175.928 273.754 C 176.677 273.796,177.846 273.796,178.526 273.753 C 179.206 273.710,178.593 273.675,177.165 273.676 C 175.736 273.676,175.180 273.711,175.928 273.754 M180.688 273.752 C 181.197 273.798,181.976 273.797,182.419 273.750 C 182.862 273.704,182.446 273.666,181.494 273.667 C 180.541 273.668,180.178 273.706,180.688 273.752 M189.340 273.755 C 191.751 273.790,195.695 273.790,198.106 273.755 C 200.517 273.720,198.544 273.692,193.723 273.692 C 188.902 273.692,186.929 273.720,189.340 273.755 M206.926 274.310 C 206.926 274.347,207.243 274.664,207.630 275.014 L 208.333 275.649 207.698 274.946 C 207.105 274.290,206.926 274.143,206.926 274.310 M158.338 277.219 C 157.873 277.784,157.717 278.052,157.990 277.814 C 158.474 277.393,159.415 276.190,159.260 276.190 C 159.217 276.190,158.802 276.653,158.338 277.219 M207.454 281.439 L 206.818 282.143 207.522 281.507 C 207.909 281.157,208.225 280.841,208.225 280.804 C 208.225 280.636,208.047 280.784,207.454 281.439 M178.734 282.629 C 179.835 282.668,181.637 282.668,182.738 282.629 C 183.839 282.590,182.938 282.557,180.736 282.557 C 178.534 282.557,177.633 282.590,178.734 282.629 M204.167 282.617 C 204.375 282.671,204.716 282.671,204.924 282.617 C 205.133 282.562,204.962 282.518,204.545 282.518 C 204.129 282.518,203.958 282.562,204.167 282.617 M166.413 293.019 C 173.357 293.051,184.655 293.051,191.521 293.019 C 198.387 292.988,192.706 292.962,178.896 292.962 C 165.087 292.962,159.469 292.988,166.413 293.019 M207.564 300.812 L 206.818 301.623 207.630 300.877 C 208.385 300.183,208.541 300.000,208.376 300.000 C 208.340 300.000,207.974 300.365,207.564 300.812 M150.256 300.487 C 150.982 301.172,151.397 301.383,150.882 300.805 C 150.594 300.481,150.270 300.216,150.163 300.216 C 150.056 300.216,150.098 300.338,150.256 300.487 M164.897 301.894 C 170.293 301.926,179.059 301.926,184.378 301.894 C 189.696 301.862,185.281 301.835,174.567 301.835 C 163.853 301.835,159.501 301.862,164.897 301.894 M199.838 301.892 C 200.641 301.934,201.956 301.934,202.760 301.892 C 203.563 301.850,202.906 301.816,201.299 301.816 C 199.692 301.816,199.034 301.850,199.838 301.892 M174.635 312.283 C 176.816 312.319,180.322 312.319,182.427 312.283 C 184.533 312.248,182.749 312.219,178.463 312.219 C 174.177 312.219,172.455 312.248,174.635 312.283 M149.784 319.548 C 149.784 319.585,150.100 319.902,150.487 320.252 L 151.190 320.887 150.555 320.184 C 149.962 319.528,149.784 319.381,149.784 319.548 M166.937 321.591 C 173.693 321.623,184.748 321.623,191.504 321.591 C 198.260 321.559,192.733 321.533,179.221 321.533 C 165.709 321.533,160.181 321.559,166.937 321.591 M304.534 322.240 L 303.788 323.052 304.600 322.306 C 305.355 321.612,305.511 321.429,305.345 321.429 C 305.309 321.429,304.944 321.794,304.534 322.240 M101.299 322.835 C 101.703 323.252,102.082 323.593,102.141 323.593 C 102.201 323.593,101.919 323.252,101.515 322.835 C 101.111 322.419,100.732 322.078,100.673 322.078 C 100.613 322.078,100.895 322.419,101.299 322.835 M301.082 326.082 C 300.556 326.618,300.175 327.056,300.235 327.056 C 300.294 327.056,300.773 326.618,301.299 326.082 C 301.824 325.547,302.206 325.108,302.146 325.108 C 302.087 325.108,301.608 325.547,301.082 326.082 M297.074 330.357 L 294.697 332.792 297.132 330.415 C 299.394 328.207,299.665 327.922,299.509 327.922 C 299.478 327.922,298.382 329.018,297.074 330.357 M109.957 332.143 C 112.157 334.345,114.005 336.147,114.065 336.147 C 114.124 336.147,112.373 334.345,110.173 332.143 C 107.973 329.940,106.125 328.139,106.065 328.139 C 106.005 328.139,107.757 329.940,109.957 332.143 M293.711 333.712 L 292.965 334.524 293.777 333.778 C 294.223 333.368,294.589 333.002,294.589 332.966 C 294.589 332.801,294.406 332.957,293.711 333.712 M290.260 337.121 C 289.373 338.014,288.696 338.745,288.755 338.745 C 288.815 338.745,289.589 338.014,290.476 337.121 C 291.363 336.228,292.040 335.498,291.981 335.498 C 291.921 335.498,291.147 336.228,290.260 337.121 M115.801 337.730 C 115.801 337.767,116.117 338.084,116.504 338.434 L 117.208 339.069 116.572 338.366 C 115.979 337.710,115.801 337.563,115.801 337.730 M149.784 338.379 C 149.784 338.417,150.100 338.733,150.487 339.083 L 151.190 339.719 150.555 339.015 C 149.962 338.359,149.784 338.212,149.784 338.379 M158.619 340.205 C 161.514 340.240,166.189 340.240,169.008 340.205 C 171.828 340.171,169.459 340.143,163.745 340.143 C 158.030 340.143,155.724 340.171,158.619 340.205 M286.029 341.180 L 285.173 342.100 286.093 341.244 C 286.949 340.448,287.112 340.260,286.949 340.260 C 286.913 340.260,286.499 340.674,286.029 341.180 M134.261 348.810 C 134.263 349.405,134.305 349.623,134.354 349.294 C 134.404 348.965,134.403 348.478,134.352 348.211 C 134.300 347.945,134.259 348.214,134.261 348.810 M136.147 353.314 C 136.147 353.352,136.464 353.668,136.851 354.018 L 137.554 354.654 136.918 353.950 C 136.326 353.294,136.147 353.147,136.147 353.314 M223.613 355.536 C 223.088 355.824,222.785 356.061,222.938 356.061 C 223.224 356.061,224.675 355.232,224.675 355.069 C 224.675 354.948,224.701 354.937,223.613 355.536 M153.463 366.099 C 153.463 366.149,153.810 366.396,154.234 366.646 C 154.658 366.896,154.944 367.002,154.869 366.882 C 154.724 366.647,153.463 365.945,153.463 366.099 M240.206 373.500 C 239.396 373.939,239.446 374.122,240.260 373.701 C 240.617 373.517,240.909 373.319,240.909 373.263 C 240.909 373.124,240.886 373.131,240.206 373.500 M201.896 391.495 C 202.166 391.547,202.555 391.545,202.762 391.491 C 202.969 391.437,202.749 391.394,202.273 391.397 C 201.797 391.399,201.627 391.443,201.896 391.495 " stroke="none" fill="#747574" fill-rule="evenodd"></path></g></svg>