<?xml version="1.0" encoding="UTF-8"?>
<svg id="Layer_1" data-name="Layer 1" xmlns="http://www.w3.org/2000/svg" viewBox="0 0 1920 1080">
  <defs>
    <style>
      .cls-1 {
        fill: none;
        stroke: #ffc416;
        stroke-miterlimit: 10;
        stroke-width: 2px;
      }

      .cls-2 {
        fill: #febe10;
      }

      .cls-3 {
        fill: #0a0e65;
      }

      .cls-4 {
        fill: #00539a;
      }

      .cls-5 {
        fill: #11165d;
      }

      .cls-6 {
        fill: #282c79;
      }
    </style>
  </defs>
  <path class="cls-4" d="M867.79,414.03c-20.38,19.28,81.14-35.34,117.7-111.96,31.65-66.32,22.06-133.09,13.55-168.61-.37-1.53-2.57-1.4-2.76.16-4.61,38.36-15.24,90.52-41.67,146.58-39.91,84.67-81.17,128.48-86.82,133.83Z"/>
  <path class="cls-2" d="M864.01,478.39c-25.68,11.29,88.3-5.96,148.52-65.8,52.12-51.79,65.58-117.89,69.51-154.21.17-1.56-1.95-2.19-2.65-.78-17.25,34.57-44.83,80.1-88.58,124-66.08,66.29-119.68,93.66-126.8,96.79Z"/>
  <path class="cls-3" d="M760.27,520.21c-27.88-3.15,79.33,39.22,161.47,17.75,71.09-18.58,115.94-68.97,137.59-98.38.93-1.27-.58-2.87-1.9-2.01-32.29,21.21-79.01,46.73-138.9,62.69-90.45,24.1-150.54,20.83-158.27,19.95Z"/>
  <line class="cls-1" x1="539.1" y1="768.29" x2="1271.96" y2="768.29"/>
  <g>
    <path class="cls-5" d="M649.41,745.61c-9.29,0-17.51-.17-24.64-.51-7.14-.34-13.13-.51-17.98-.51-2.29,0-4.24.04-5.86.1-1.62.07-3.33.13-5.15.2s-3.97.13-6.46.2c-2.49.07-5.76.1-9.8.1v-2.02c2.15,0,4.21-.17,6.16-.5,1.95-.34,3.67-.98,5.15-1.92,1.48-.94,2.66-2.25,3.53-3.94.87-1.68,1.31-3.94,1.31-6.77v-104.83c0-2.83-.44-5.08-1.31-6.76-.88-1.68-2.05-2.99-3.53-3.94-1.48-.94-3.2-1.58-5.15-1.92-1.95-.33-4.01-.5-6.16-.5v-2.02c4.04,0,7.27.03,9.69.1,2.43.07,4.51.17,6.26.3,1.75.14,3.36.24,4.85.3,1.48.07,3.36.1,5.65.1,2.15,0,4-.03,5.56-.1,1.55-.07,3.2-.17,4.95-.3,1.75-.13,3.84-.23,6.26-.3,2.43-.07,5.66-.1,9.7-.1v2.02c-2.16,0-4.21.17-6.16.5-1.96.34-3.67.98-5.15,1.92-1.48.94-2.66,2.25-3.53,3.93-.88,1.68-1.31,3.94-1.31,6.76v99.02c0,4.17.74,7.43,2.22,9.78,1.48,2.35,3.57,4.13,6.26,5.34,2.69,1.21,5.86,1.95,9.49,2.22,3.63.27,7.6.4,11.91.4,4.85,0,9.26-.37,13.23-1.1,3.97-.74,7.44-2.07,10.4-4.01,2.96-1.94,5.38-4.61,7.27-8.01,1.88-3.41,3.16-7.72,3.84-12.93h2.02l-2.02,29.29c-5.12.13-10.37.23-15.75.3-5.39.07-10.64.1-15.75.1Z"/>
    <path class="cls-5" d="M737.98,742.68c1.95-.34,3.67-.98,5.15-1.92,1.48-.94,2.66-2.25,3.53-3.94.87-1.68,1.31-3.94,1.31-6.77v-42.42l-33.32-58.98c-1.75-3.1-3.23-5.65-4.44-7.67-1.21-2.02-2.49-3.67-3.84-4.95-1.35-1.28-2.9-2.19-4.65-2.73-1.75-.54-3.97-.94-6.67-1.21v-2.02c3.37,0,6.13.03,8.28.1,2.15.07,4.11.17,5.86.3,1.75.14,3.43.24,5.05.3,1.62.07,3.57.1,5.86.1,2.15,0,4-.03,5.55-.1,1.55-.07,3.2-.17,4.95-.3,1.75-.13,3.73-.23,5.96-.3,2.22-.07,5.15-.1,8.79-.1v2.02c-1.21,0-2.52.07-3.94.2-1.41.14-2.7.47-3.84,1.01-1.14.54-2.12,1.28-2.93,2.22-.81.94-1.21,2.29-1.21,4.04s.37,3.43,1.11,5.05c.74,1.62,1.65,3.37,2.73,5.25l28.48,51.91,30.91-51.51c1.88-3.36,2.83-6.26,2.83-8.68,0-3.9-1.15-6.46-3.44-7.67-2.29-1.21-5.18-1.82-8.69-1.82v-2.02c2.83,0,5.12.03,6.87.1,1.75.07,3.23.13,4.44.2,1.21.07,2.25.13,3.13.2.87.07,1.92.1,3.13.1s2.29-.03,3.23-.1c.94-.07,1.98-.13,3.13-.2,1.14-.07,2.52-.13,4.14-.2,1.62-.07,3.77-.1,6.47-.1v2.02c-2.56,0-4.72.37-6.47,1.11-1.75.74-3.33,1.75-4.74,3.03-1.41,1.28-2.7,2.8-3.84,4.54-1.14,1.75-2.32,3.7-3.53,5.85l-34.74,57.97v45.45c0,2.83.44,5.08,1.31,6.77.87,1.69,2.05,3,3.53,3.94,1.48.94,3.2,1.58,5.15,1.92,1.95.34,4,.5,6.16.5v2.02c-4.04,0-7.27-.03-9.7-.1-2.42-.07-4.51-.17-6.26-.3-1.75-.13-3.4-.23-4.95-.3-1.55-.07-3.4-.1-5.56-.1-2.29,0-4.18.04-5.65.1-1.49.07-3.1.17-4.85.3-1.75.13-3.84.24-6.26.3-2.42.07-5.65.1-9.69.1v-2.02c2.15,0,4.21-.17,6.16-.5Z"/>
    <path class="cls-5" d="M927.64,617.45c-.07,2.49-.1,4.95-.1,7.37,0,2.56.17,5.45.51,8.68.33,3.23.5,6.26.5,9.09h-2.42c-.4-3.88-1.48-7.69-3.23-11.44-1.75-3.74-4.01-7.12-6.77-10.14-2.76-3.01-5.99-5.42-9.7-7.22s-7.77-2.71-12.22-2.71c-3.5,0-6.77.67-9.8,2.01-3.03,1.34-5.62,3.12-7.77,5.34-2.16,2.22-3.84,4.86-5.05,7.95s-1.82,6.31-1.82,9.66c0,4.97,1.28,9.09,3.84,12.38,2.56,3.29,5.79,6.07,9.7,8.35,3.9,2.28,8.14,4.33,12.72,6.14,4.58,1.81,8.89,3.72,12.93,5.73,4.18,2.15,8.11,4.43,11.82,6.86,3.7,2.42,6.9,5.18,9.59,8.28,2.69,3.1,4.85,6.7,6.46,10.81,1.62,4.11,2.42,8.99,2.42,14.64s-1.14,10.84-3.43,15.55c-2.29,4.72-5.45,8.75-9.49,12.12s-8.82,5.99-14.34,7.88c-5.52,1.88-11.58,2.83-18.18,2.83s-12.76-1.11-18.07-3.33c-5.32-2.22-10.61-5.08-15.86-8.58l-4.65,7.88h-2.02c0-4.17.07-7.47.2-9.9.13-2.43.2-4.98.2-7.68s-.07-5.89-.2-9.19c-.13-3.3-.2-7.1-.2-11.41h2.42c.27,5.12,1.31,10,3.13,14.64,1.82,4.65,4.31,8.72,7.47,12.22,3.16,3.5,6.97,6.33,11.41,8.48,4.44,2.16,9.49,3.23,15.15,3.23,4.17,0,8.11-.67,11.81-2.02,3.7-1.34,6.94-3.26,9.7-5.76,2.76-2.49,4.91-5.42,6.46-8.79,1.55-3.36,2.32-7.07,2.32-11.11s-1.01-7.88-3.03-11.11c-2.02-3.23-4.62-6.09-7.78-8.59-3.17-2.49-6.7-4.71-10.6-6.66-3.91-1.95-7.68-3.8-11.31-5.56-4.31-2.02-8.55-4.24-12.73-6.66-4.18-2.42-7.91-5.25-11.21-8.48-3.3-3.23-5.96-6.97-7.98-11.21-2.02-4.24-3.03-9.25-3.03-15.05,0-4.85,1.04-9.42,3.13-13.73,2.09-4.31,4.88-8.08,8.38-11.31,3.5-3.23,7.54-5.79,12.12-7.68,4.58-1.88,9.36-2.83,14.34-2.83s10.03.91,14.74,2.73c4.71,1.82,9.16,4.41,13.33,7.78l4.24-7.68h2.02c0,2.29-.03,4.68-.1,7.17Z"/>
    <path class="cls-5" d="M1055.08,617.45c-.07,2.49-.1,4.95-.1,7.37,0,2.56.17,5.45.51,8.68.33,3.23.5,6.26.5,9.09h-2.42c-.4-3.88-1.48-7.69-3.23-11.44-1.75-3.74-4.01-7.12-6.77-10.14-2.76-3.01-5.99-5.42-9.7-7.22s-7.77-2.71-12.22-2.71c-3.5,0-6.77.67-9.8,2.01-3.03,1.34-5.62,3.12-7.77,5.34-2.16,2.22-3.84,4.86-5.05,7.95s-1.82,6.31-1.82,9.66c0,4.97,1.28,9.09,3.84,12.38,2.56,3.29,5.79,6.07,9.7,8.35,3.9,2.28,8.14,4.33,12.72,6.14,4.58,1.81,8.89,3.72,12.93,5.73,4.18,2.15,8.11,4.43,11.82,6.86,3.7,2.42,6.9,5.18,9.59,8.28,2.69,3.1,4.85,6.7,6.46,10.81,1.62,4.11,2.42,8.99,2.42,14.64s-1.14,10.84-3.43,15.55c-2.29,4.72-5.45,8.75-9.49,12.12s-8.82,5.99-14.34,7.88c-5.52,1.88-11.58,2.83-18.18,2.83s-12.76-1.11-18.07-3.33c-5.32-2.22-10.61-5.08-15.86-8.58l-4.65,7.88h-2.02c0-4.17.07-7.47.2-9.9.13-2.43.2-4.98.2-7.68s-.07-5.89-.2-9.19c-.13-3.3-.2-7.1-.2-11.41h2.42c.27,5.12,1.31,10,3.13,14.64,1.82,4.65,4.31,8.72,7.47,12.22,3.16,3.5,6.97,6.33,11.41,8.48,4.44,2.16,9.49,3.23,15.15,3.23,4.17,0,8.11-.67,11.81-2.02,3.7-1.34,6.94-3.26,9.7-5.76,2.76-2.49,4.91-5.42,6.46-8.79,1.55-3.36,2.32-7.07,2.32-11.11s-1.01-7.88-3.03-11.11c-2.02-3.23-4.62-6.09-7.78-8.59-3.17-2.49-6.7-4.71-10.6-6.66-3.91-1.95-7.68-3.8-11.31-5.56-4.31-2.02-8.55-4.24-12.73-6.66-4.18-2.42-7.91-5.25-11.21-8.48s-5.96-6.97-7.98-11.21c-2.02-4.24-3.03-9.25-3.03-15.05,0-4.85,1.04-9.42,3.13-13.73,2.09-4.31,4.88-8.08,8.38-11.31,3.5-3.23,7.54-5.79,12.12-7.68,4.58-1.88,9.36-2.83,14.34-2.83s10.03.91,14.74,2.73c4.71,1.82,9.16,4.41,13.33,7.78l4.24-7.68h2.02c0,2.29-.03,4.68-.1,7.17Z"/>
    <path class="cls-5" d="M1096.99,743.18c9.69,0,16.43-5.05,20.2-15.15l45.24-120.58h3.84l45.65,119.57c2.29,5.93,4.85,10.1,7.68,12.52,2.83,2.43,6.66,3.64,11.51,3.64v2.02c-4.04,0-7.24-.03-9.59-.1-2.36-.07-4.38-.13-6.06-.2s-3.23-.13-4.65-.2c-1.41-.07-3.13-.1-5.15-.1s-3.74.04-5.15.1c-1.41.07-2.97.13-4.65.2-1.69.07-3.81.13-6.36.2-2.56.07-5.99.1-10.3.1v-2.02c1.61,0,3.2-.1,4.75-.3,1.55-.2,2.99-.6,4.34-1.21,1.34-.61,2.42-1.48,3.23-2.63.81-1.14,1.21-2.59,1.21-4.34,0-1.48-.24-3.03-.71-4.65-.47-1.62-.98-3.1-1.51-4.44l-13.13-34.54h-42.41l-13.33,36.76c-.81,2.42-1.21,4.51-1.21,6.26,0,1.89.4,3.43,1.21,4.65.81,1.21,1.82,2.15,3.03,2.83s2.59,1.11,4.14,1.31c1.55.2,3.06.3,4.54.3v2.02c-2.83,0-5.12-.03-6.87-.1-1.75-.07-3.23-.13-4.44-.2-1.21-.07-2.32-.13-3.33-.2-1.01-.07-2.19-.1-3.54-.1-1.48,0-2.73.04-3.73.1-1.01.07-2.12.13-3.33.2s-2.7.13-4.44.2c-1.75.07-3.97.1-6.66.1v-2.02ZM1176.16,687.44l-19.39-54.74-20.6,54.74h39.99Z"/>
  </g>
  <g>
    <path class="cls-6" d="M613.54,824.08c0-.73-.11-1.38-.32-1.97-.21-.59-.61-1.12-1.19-1.62-.58-.49-1.39-.98-2.43-1.47-1.05-.48-2.4-.99-4.05-1.51-1.84-.6-3.59-1.27-5.24-2.01-1.65-.74-3.1-1.61-4.36-2.61-1.26-1-2.25-2.15-2.96-3.48-.72-1.32-1.07-2.86-1.07-4.61s.37-3.24,1.12-4.63,1.79-2.58,3.13-3.58,2.93-1.77,4.76-2.3c1.83-.54,3.85-.81,6.05-.81,3,0,5.62.54,7.85,1.62,2.24,1.08,3.97,2.56,5.21,4.44,1.24,1.88,1.86,4.03,1.86,6.45h-8.33c0-1.19-.25-2.24-.74-3.14s-1.24-1.62-2.24-2.14c-1-.52-2.25-.78-3.76-.78s-2.66.22-3.63.65c-.97.44-1.7,1.03-2.18,1.76s-.73,1.56-.73,2.47c0,.69.17,1.31.52,1.87s.86,1.08,1.55,1.56c.69.48,1.54.94,2.54,1.37,1.01.43,2.17.85,3.49,1.26,2.22.67,4.17,1.42,5.85,2.26s3.1,1.78,4.23,2.82c1.14,1.04,2,2.23,2.57,3.55.58,1.32.87,2.82.87,4.5,0,1.77-.35,3.35-1.03,4.75-.69,1.4-1.69,2.58-2.99,3.55-1.31.97-2.86,1.71-4.67,2.21-1.8.5-3.83.75-6.06.75-2.01,0-4-.27-5.95-.8-1.96-.53-3.73-1.34-5.33-2.42-1.59-1.08-2.86-2.46-3.81-4.14s-1.43-3.66-1.43-5.95h8.41c0,1.27.19,2.34.59,3.22.39.87.94,1.58,1.66,2.12.72.54,1.57.93,2.57,1.17,1,.24,2.09.36,3.28.36,1.45,0,2.65-.2,3.59-.61.94-.41,1.64-.98,2.1-1.7s.68-1.55.68-2.46Z"/>
    <path class="cls-6" d="M640.38,794.04v40.69h-8.38v-40.69h8.38ZM659.27,794.04v6.57h-21.63v-6.57h21.63ZM656.48,810.62v6.37h-18.83v-6.37h18.83ZM659.3,828.19v6.54h-21.66v-6.54h21.66Z"/>
    <path class="cls-6" d="M700.84,813.47v16.12c-.63.77-1.61,1.59-2.93,2.47-1.32.89-3.03,1.65-5.12,2.28-2.09.63-4.61.95-7.57.95-2.62,0-5.02-.43-7.18-1.3-2.16-.87-4.02-2.14-5.58-3.81s-2.75-3.73-3.59-6.16c-.84-2.43-1.26-5.21-1.26-8.34v-2.54c0-3.13.4-5.91,1.21-8.36.81-2.44,1.97-4.5,3.48-6.17,1.51-1.68,3.3-2.95,5.39-3.83,2.09-.87,4.41-1.31,6.96-1.31,3.54,0,6.45.57,8.72,1.72,2.27,1.15,4.01,2.73,5.21,4.75,1.2,2.02,1.94,4.34,2.22,6.95h-8.13c-.2-1.38-.6-2.58-1.17-3.61-.58-1.02-1.4-1.82-2.47-2.4-1.07-.58-2.46-.86-4.15-.86-1.39,0-2.64.28-3.73.85-1.09.57-2.01,1.4-2.75,2.5-.74,1.1-1.31,2.46-1.7,4.08s-.59,3.5-.59,5.64v2.6c0,2.12.2,4,.61,5.63.41,1.63,1.02,3,1.83,4.11.81,1.11,1.81,1.94,3,2.5s2.58.84,4.17.84c1.32,0,2.43-.11,3.31-.34s1.6-.5,2.15-.83c.55-.33.97-.64,1.27-.93v-7.21h-7.66v-5.98h16.04Z"/>
    <path class="cls-6" d="M734.48,794.04h8.35v26.88c0,3.13-.66,5.77-2,7.91-1.33,2.14-3.17,3.75-5.51,4.83-2.34,1.08-5.02,1.62-8.06,1.62s-5.73-.54-8.09-1.62c-2.36-1.08-4.2-2.69-5.53-4.83-1.33-2.14-2-4.78-2-7.91v-26.88h8.38v26.88c0,1.83.29,3.32.87,4.47.58,1.16,1.41,2,2.5,2.54,1.09.54,2.38.81,3.87.81s2.83-.27,3.9-.81c1.07-.54,1.89-1.39,2.46-2.54.57-1.15.85-2.64.85-4.47v-26.88Z"/>
    <path class="cls-6" d="M754.14,794.04h15.17c3.11,0,5.79.47,8.03,1.4,2.25.93,3.97,2.31,5.18,4.14,1.21,1.83,1.82,4.07,1.82,6.74,0,2.18-.37,4.05-1.1,5.6s-1.77,2.85-3.1,3.88c-1.33,1.04-2.89,1.86-4.68,2.48l-2.65,1.4h-13.19l-.06-6.54h9.81c1.47,0,2.69-.26,3.66-.78.97-.52,1.7-1.25,2.19-2.18.49-.93.74-2.01.74-3.24,0-1.31-.24-2.43-.73-3.38-.48-.95-1.22-1.68-2.21-2.18s-2.23-.75-3.72-.75h-6.79v34.12h-8.38v-40.69ZM776.89,834.73l-9.28-18.13,8.86-.06,9.39,17.8v.39h-8.97Z"/>
    <path class="cls-6" d="M804.12,794.04v40.69h-8.35v-40.69h8.35Z"/>
    <path class="cls-6" d="M824.74,794.04v40.69h-8.38v-40.69h8.38ZM828.84,834.73h-8.86l.06-6.54h8.8c2.2,0,4.05-.5,5.56-1.5,1.51-1,2.65-2.45,3.42-4.37.77-1.92,1.16-4.24,1.16-6.96v-1.99c0-2.08-.22-3.92-.66-5.5-.44-1.58-1.08-2.92-1.94-4-.86-1.08-1.91-1.89-3.16-2.45-1.25-.55-2.68-.82-4.3-.82h-9.11v-6.57h9.11c2.72,0,5.21.46,7.48,1.38,2.26.92,4.22,2.24,5.88,3.95,1.66,1.71,2.94,3.76,3.84,6.13.9,2.38,1.35,5.02,1.35,7.92v1.93c0,2.89-.45,5.52-1.35,7.91-.9,2.39-2.18,4.43-3.83,6.13-1.65,1.7-3.61,3.02-5.89,3.94-2.28.92-4.8,1.38-7.56,1.38Z"/>
    <path class="cls-6" d="M873.91,801l-11.07,33.73h-8.91l15.12-40.69h5.67l-.81,6.96ZM882.6,819.58v6.57h-21.49v-6.57h21.49ZM883.1,834.73l-11.1-33.73-.89-6.96h5.73l15.2,40.69h-8.94Z"/>
    <path class="cls-6" d="M908.6,794.04v40.69h-8.38v-40.69h8.38ZM912.71,834.73h-8.86l.06-6.54h8.8c2.2,0,4.05-.5,5.56-1.5,1.51-1,2.65-2.45,3.42-4.37.77-1.92,1.16-4.24,1.16-6.96v-1.99c0-2.08-.22-3.92-.66-5.5-.44-1.58-1.08-2.92-1.94-4-.86-1.08-1.91-1.89-3.16-2.45-1.25-.55-2.68-.82-4.3-.82h-9.11v-6.57h9.11c2.72,0,5.21.46,7.48,1.38,2.26.92,4.22,2.24,5.88,3.95,1.66,1.71,2.94,3.76,3.84,6.13.9,2.38,1.35,5.02,1.35,7.92v1.93c0,2.89-.45,5.52-1.35,7.91-.9,2.39-2.18,4.43-3.83,6.13-1.65,1.7-3.61,3.02-5.89,3.94-2.28.92-4.8,1.38-7.56,1.38Z"/>
    <path class="cls-6" d="M976.29,820.23h-10.37v-6.54h10.37c1.6,0,2.91-.27,3.91-.8,1.01-.53,1.74-1.27,2.21-2.22s.7-2.02.7-3.22-.23-2.34-.7-3.38c-.47-1.05-1.2-1.88-2.21-2.51-1.01-.63-2.31-.95-3.91-.95h-7.46v34.12h-8.38v-40.69h15.84c3.19,0,5.92.57,8.2,1.72,2.28,1.14,4.03,2.73,5.24,4.74s1.82,4.31,1.82,6.9-.61,4.9-1.82,6.82c-1.21,1.92-2.96,3.4-5.24,4.44-2.28,1.04-5.01,1.56-8.2,1.56Z"/>
    <path class="cls-6" d="M1001.74,794.04h15.17c3.11,0,5.79.47,8.03,1.4,2.25.93,3.97,2.31,5.18,4.14,1.21,1.83,1.82,4.07,1.82,6.74,0,2.18-.37,4.05-1.1,5.6s-1.77,2.85-3.1,3.88c-1.33,1.04-2.89,1.86-4.68,2.48l-2.65,1.4h-13.19l-.06-6.54h9.81c1.47,0,2.69-.26,3.66-.78.97-.52,1.7-1.25,2.19-2.18.49-.93.74-2.01.74-3.24,0-1.31-.24-2.43-.73-3.38-.48-.95-1.22-1.68-2.21-2.18s-2.23-.75-3.72-.75h-6.79v34.12h-8.38v-40.69ZM1024.49,834.73l-9.28-18.13,8.86-.06,9.39,17.8v.39h-8.97Z"/>
    <path class="cls-6" d="M1051.72,794.04v40.69h-8.35v-40.69h8.35Z"/>
    <path class="cls-6" d="M1069.8,794.04l9.55,32.19,1.45,8.49h-6.2l-14.08-40.69h9.28ZM1078.63,826.23l9.58-32.19h9.33l-14.17,40.69h-6.15l1.4-8.49Z"/>
    <path class="cls-6" d="M1120.2,801l-11.07,33.73h-8.91l15.12-40.69h5.67l-.81,6.96ZM1128.88,819.58v6.57h-21.49v-6.57h21.49ZM1129.39,834.73l-11.1-33.73-.89-6.96h5.73l15.2,40.69h-8.94Z"/>
    <path class="cls-6" d="M1154.89,794.04v40.69h-8.38v-40.69h8.38ZM1159,834.73h-8.86l.06-6.54h8.8c2.2,0,4.05-.5,5.56-1.5,1.51-1,2.65-2.45,3.42-4.37.77-1.92,1.16-4.24,1.16-6.96v-1.99c0-2.08-.22-3.92-.66-5.5-.44-1.58-1.08-2.92-1.94-4-.86-1.08-1.91-1.89-3.16-2.45-1.25-.55-2.68-.82-4.3-.82h-9.11v-6.57h9.11c2.72,0,5.21.46,7.48,1.38,2.26.92,4.22,2.24,5.88,3.95,1.66,1.71,2.94,3.76,3.84,6.13.9,2.38,1.35,5.02,1.35,7.92v1.93c0,2.89-.45,5.52-1.35,7.91-.9,2.39-2.18,4.43-3.83,6.13-1.65,1.7-3.61,3.02-5.89,3.94-2.28.92-4.8,1.38-7.56,1.38Z"/>
    <path class="cls-6" d="M1204.06,801l-11.07,33.73h-8.91l15.12-40.69h5.67l-.81,6.96ZM1212.75,819.58v6.57h-21.49v-6.57h21.49ZM1213.26,834.73l-11.1-33.73-.89-6.96h5.73l15.2,40.69h-8.94Z"/>
  </g>
</svg>