<svg xmlns="http://www.w3.org/2000/svg" viewBox="746 122 346 432" role="img" aria-label="Lyssa">
  <path fill="#F2F4F7" d="M867.79,414.03c-20.38,19.28,81.14-35.34,117.7-111.96,31.65-66.32,22.06-133.09,13.55-168.61-.37-1.53-2.57-1.4-2.76.16-4.61,38.36-15.24,90.52-41.67,146.58-39.91,84.67-81.17,128.48-86.82,133.83Z"></path>
  <path fill="#F2F4F7" d="M864.01,478.39c-25.68,11.29,88.3-5.96,148.52-65.8,52.12-51.79,65.58-117.89,69.51-154.21.17-1.56-1.95-2.19-2.65-.78-17.25,34.57-44.83,80.1-88.58,124-66.08,66.29-119.68,93.66-126.8,96.79Z"></path>
  <path fill="#F2F4F7" d="M760.27,520.21c-27.88-3.15,79.33,39.22,161.47,17.75,71.09-18.58,115.94-68.97,137.59-98.38.93-1.27-.58-2.87-1.9-2.01-32.29,21.21-79.01,46.73-138.9,62.69-90.45,24.1-150.54,20.83-158.27,19.95Z"></path>
</svg>