<?xml version="1.0" encoding="UTF-8"?>
<svg xmlns="http://www.w3.org/2000/svg" viewBox="0 0 2261.11 1047.83">
  <defs>
    <style>
      .gp-cls-1 {
        fill: #231f20;
      }

      .gp-cls-2 {
        fill: #fff;
      }

      .gp-cls-3, .gp-cls-4, .gp-cls-5, .gp-cls-6, .gp-cls-7, .gp-cls-8, .gp-cls-9, .gp-cls-10, .gp-cls-11, .gp-cls-12, .gp-cls-13 {
        stroke-miterlimit: 10;
      }

      .gp-cls-3, .gp-cls-9 {
        stroke: #00aeef;
        stroke-width: 1.01px;
      }

      .gp-cls-3, .gp-cls-14 {
        fill: #323e48;
      }

      .gp-cls-4 {
        stroke-dasharray: 4.87 4.87;
      }

      .gp-cls-4, .gp-cls-6, .gp-cls-7, .gp-cls-8, .gp-cls-9, .gp-cls-11, .gp-cls-12, .gp-cls-13 {
        fill: none;
      }

      .gp-cls-4, .gp-cls-7, .gp-cls-13 {
        stroke: #b2d235;
        stroke-width: 1.01px;
      }

      .gp-cls-5, .gp-cls-15, .gp-cls-16 {
        fill: #d0cfcd;
      }

      .gp-cls-5, .gp-cls-6, .gp-cls-16, .gp-cls-10 {
        stroke: #fff;
      }

      .gp-cls-6 {
        stroke-width: .75px;
      }

      .gp-cls-16 {
        stroke-linejoin: round;
      }

      .gp-cls-17 {
        fill: #4a4f54;
      }

      .gp-cls-8, .gp-cls-11 {
        stroke: #4d5858;
      }

      .gp-cls-18 {
        fill: #4d5858;
      }

      .gp-cls-10 {
        fill: #606161;
      }

      .gp-cls-11 {
        stroke-width: 3px;
      }

      .gp-cls-12 {
        stroke: #231f20;
        stroke-width: .5px;
      }

      .gp-cls-13 {
        stroke-dasharray: 4.92 4.92;
      }

      .gp-cls-19 {
        fill: #bbb;
      }
    </style>
  </defs>
  <g id="gp-garment">
    <g>
      <path class="gp-cls-5" d="M839.17,251.82s-2.27,1.28-4.25,1.98-7.87,2.89-9.79,4.42c-1.92,1.53-4.43,9.29-4.43,9.29,0,0-5.82,31.24-7.18,38.63-2.32,12.63-6.68,41.49-6.68,41.49l11.35,2.17,8.59-53.56-2.57,47.75s17.21,1.91,27.51,1.91,23.88-1.48,23.88-1.48l-2.33-49.29,7.58,54.69,11.3-1.85s-10.67-66.2-11.69-72.43c-1.02-6.23-3.67-14.25-5.29-16.39-1.62-2.13-11.78-5.34-14.51-7.32,0,0-2.29,1.3-10.59,1.3s-10.88-1.3-10.88-1.3Z"/>
      <path class="gp-cls-5" d="M826.78,296.24s.87-24.25-1.64-38.02"/>
      <path class="gp-cls-5" d="M873.26,295.12s-2.02-1.04.46-37.12"/>
      <path class="gp-cls-16" d="M839.17,251.82s2.48,1.29,10.73,1.29,10.74-1.29,10.74-1.29l.95,1.74s-3.16,1.6-11.8,1.6-11.36-1.6-11.36-1.6l.74-1.74Z"/>
      <path class="gp-cls-5" d="M839.13,251.92s3.13,4.31,4.37,5.79c4.89,5.83,6.8,6.88,6.8,6.88,0,0,2.32-1.75,6.42-6.77,1.1-1.35,4-5.97,4-5.97l2.02,1.18s-3.29,4.88-4.4,6.29c-4.1,5.19-7.93,8.24-7.93,8.24,0,0-3.1-1.87-8.62-8.56-1.28-1.55-4.59-6.1-4.59-6.1l1.94-.99Z"/>
    </g>
    <path class="gp-cls-5" d="M829.21,352.92s-2.4,14.27-2.76,22.39c-.37,8.22-.34,47.74-.34,56.06s.66,47,.66,47c0,0,2.56,1.5,10.34,1.5,6.15,0,11.07-1.53,11.07-1.53,0,0,.66-33.21.74-35.16s-.24-35.53.25-40.61c.48-5.09.85-19.79.85-19.79l.36-.03s1.08,16.58,1.15,19.65c.07,3.07.37,32.07.55,41.05.18,8.99.29,25.86.76,34.54,0,0,6.21,1.95,10.33,1.92,6.59-.05,9.93-1.72,9.93-1.72,0,0,.76-37.81.76-47.19s.93-39.62.56-52.84c-.37-13.22-3.52-25.49-3.52-25.49,0,0-7.37,1.2-20.65,1.2s-21.06-.95-21.06-.95Z"/>
    <line class="gp-cls-5" x1="850.27" y1="353.87" x2="850.27" y2="382.96"/>
    <path class="gp-cls-5" d="M829.97,348.81s6.59.81,20.32.81c16.09,0,20.07-.78,20.07-.78l.6,3.9s-5.8,1.24-20.39,1.24-21.35-1.14-21.35-1.14l.75-4.03Z"/>
  </g>
  <g id="gp-faja">
    <rect class="gp-cls-18" x="278.13" y="635.04" width="1828.35" height="297.64" rx="12" ry="12"/>
    <rect class="gp-cls-2" x="362.01" y="684.41" width="205.41" height="74.9"/>
    <rect class="gp-cls-15" x="1094.47" y="511.46" width="263.62" height="545.15" transform="translate(2010.31 -442.24) rotate(90)"/>
    <g>
      <g>
        <path class="gp-cls-2" d="M1059.59,779.48v15.24h-19.62v-55.12h25.49c3.43,0,6.59.41,9.46,1.24,2.88.82,5.36,2.07,7.44,3.73,2.08,1.66,3.7,3.75,4.86,6.26,1.16,2.51,1.74,5.44,1.74,8.79s-.57,6.31-1.72,8.79c-1.15,2.49-2.74,4.55-4.76,6.18-2.03,1.64-4.42,2.86-7.19,3.67-2.77.81-5.78,1.22-9.02,1.22h-6.69ZM1065.26,765.38c1.32,0,2.42-.5,3.3-1.5.88-1,1.32-2.34,1.32-4.01,0-.76-.12-1.46-.34-2.11-.23-.65-.54-1.22-.93-1.72-.39-.5-.86-.89-1.4-1.17-.54-.28-1.12-.44-1.74-.47-.54,0-1.07,0-1.58-.02-.51-.01-1.04-.02-1.58-.02h-3.16v11.02h6.12Z"/>
        <path class="gp-cls-2" d="M1095.86,739.6h19.66v55.12h-19.66v-55.12Z"/>
        <path class="gp-cls-2" d="M1122.84,780.09h6.89c1.46,0,2.61-.41,3.44-1.24.84-.82,1.26-2.06,1.26-3.71l.04-35.54h19.53v36.15c0,3.13-.51,5.88-1.54,8.25-1.03,2.36-2.45,4.34-4.25,5.92-1.81,1.58-3.96,2.78-6.44,3.59-2.49.81-5.2,1.22-8.15,1.22h-10.78v-14.63Z"/>
        <path class="gp-cls-2" d="M1197.82,788.44h-15.72l-1.99,6.28h-20.26l20.51-55.16h19.25l20.51,55.16h-20.22l-2.07-6.28ZM1185.62,775.1h8.59l-3.73-11.55-.36-2.55h-.36l-.41,2.51-3.73,11.59Z"/>
        <path class="gp-cls-2" d="M1253.66,785.32l-8.75-19.9h-.41v29.3h-18.2v-55.12h20.26l11.31,21.68h.37l11.59-21.68h20.14v55.12h-18.2v-29.18h-.4l-8.88,19.78h-8.83Z"/>
        <path class="gp-cls-2" d="M1333.95,788.44h-15.72l-1.99,6.28h-20.26l20.51-55.16h19.25l20.51,55.16h-20.22l-2.07-6.28ZM1321.75,775.1h8.59l-3.73-11.55-.36-2.55h-.36l-.41,2.51-3.73,11.59Z"/>
        <path class="gp-cls-2" d="M1365.11,775.67c1.24.57,2.67,1.18,4.28,1.82s3.32,1.24,5.13,1.76c1.81.53,3.69.97,5.63,1.32,1.95.35,3.88.53,5.8.53,1.16,0,2.11-.09,2.86-.26.74-.18,1.33-.43,1.76-.75.43-.32.73-.7.89-1.13.16-.43.24-.89.24-1.38,0-.65-.23-1.17-.69-1.56-.46-.39-1.18-.75-2.17-1.07s-2.25-.66-3.79-1.01c-1.54-.35-3.39-.81-5.55-1.38-1.19-.3-2.45-.67-3.79-1.11-1.34-.45-2.65-.98-3.95-1.6-1.3-.62-2.53-1.34-3.71-2.17-1.18-.82-2.22-1.77-3.12-2.84s-1.62-2.26-2.15-3.57c-.53-1.31-.79-2.78-.79-4.4,0-6.35,2.11-11.06,6.34-14.12,4.23-3.07,10.41-4.6,18.54-4.6,2,0,3.99.12,5.98.36,1.99.24,3.93.57,5.84.99,1.9.42,3.76.91,5.57,1.46,1.81.55,3.55,1.14,5.23,1.76l-4.5,14.75c-.46-.19-1.09-.42-1.88-.69-.8-.27-1.69-.55-2.67-.85-.99-.3-2.03-.59-3.14-.87-1.11-.28-2.2-.54-3.28-.77-1.08-.23-2.13-.42-3.14-.57-1.01-.15-1.91-.24-2.69-.26-1.41-.05-2.59-.02-3.55.1-.96.12-1.74.3-2.35.55-.61.24-1.05.54-1.32.89-.27.35-.4.73-.4,1.13,0,.59.26,1.09.79,1.5.53.41,1.26.76,2.19,1.05.93.3,2.04.58,3.32.85,1.28.27,2.68.57,4.19.89,3.32.73,6.2,1.58,8.63,2.55s4.45,2.17,6.06,3.59c1.61,1.42,2.8,3.12,3.57,5.11.77,1.99,1.15,4.33,1.15,7.03,0,2.92-.63,5.47-1.9,7.66-1.27,2.19-3.05,4.01-5.35,5.47-2.3,1.46-5.03,2.56-8.19,3.3-3.16.74-6.63,1.11-10.42,1.11-3,0-5.74-.19-8.21-.57-2.47-.38-4.7-.84-6.69-1.38-1.99-.54-3.75-1.13-5.29-1.76-1.54-.63-2.89-1.22-4.05-1.76l4.74-15.12Z"/>
      </g>
      <g>
        <path class="gp-cls-2" d="M1113.23,810.76v.15s-2.68,0-2.68,0l-.03-.15c-.22-1.11-.9-1.64-2-1.64-1.29,0-2.26,1.08-2.26,3.32,0,2.61,1.08,3.5,2.28,3.5,1.05,0,1.72-.65,1.95-1.79l.03-.15h2.7l-.02.15c-.25,2.49-2.16,3.76-4.75,3.76-2.77,0-5.01-1.8-5.01-5.31s2.31-5.46,5.12-5.46c2.96,0,4.47,1.58,4.68,3.62Z"/>
        <path class="gp-cls-2" d="M1126.98,812.53c0,3.31-2.07,5.38-5.29,5.38s-5.29-2.07-5.29-5.38,2.07-5.38,5.29-5.38,5.29,2.05,5.29,5.38ZM1124.22,812.53c0-2.21-.97-3.41-2.54-3.41s-2.53,1.2-2.53,3.41.97,3.41,2.53,3.41,2.54-1.22,2.54-3.41ZM1120.88,806.68l1.37-1.88h2.4l-2.33,1.88h-1.44Z"/>
        <path class="gp-cls-2" d="M1142.39,817.7h-2.7v-4.35c0-.9,0-2.24.03-3.29-.18,1.05-.48,2.37-.72,3.29l-1.14,4.35h-2.78l-1.15-4.35c-.24-.9-.54-2.24-.71-3.29.03,1.05.03,2.38.03,3.29v4.35h-2.7v-10.35h4.21l1.75,7.72,1.75-7.72h4.11v10.35Z"/>
        <path class="gp-cls-2" d="M1156.55,812.53c0,3.31-2.07,5.38-5.29,5.38s-5.29-2.07-5.29-5.38,2.07-5.38,5.29-5.38,5.29,2.05,5.29,5.38ZM1153.79,812.53c0-2.21-.97-3.41-2.54-3.41s-2.53,1.2-2.53,3.41.97,3.41,2.53,3.41,2.54-1.22,2.54-3.41Z"/>
        <path class="gp-cls-2" d="M1169.73,812.39c0,3.24-1.98,4.98-4.38,5.25-.52.06-.76.06-1.32.06h-3.92v-10.35h3.92c.55,0,.79,0,1.32.06,2.4.27,4.38,1.74,4.38,4.98ZM1166.92,812.44c0-1.84-.93-2.83-2.28-2.96-.34-.03-.58-.03-.97-.03h-.84v6.15h.84c.39,0,.63,0,.97-.03,1.35-.12,2.28-1.29,2.28-3.13Z"/>
        <path class="gp-cls-2" d="M1183.51,812.53c0,3.31-2.07,5.38-5.29,5.38s-5.29-2.07-5.29-5.38,2.07-5.38,5.29-5.38,5.29,2.05,5.29,5.38ZM1180.75,812.53c0-2.21-.97-3.41-2.54-3.41s-2.53,1.2-2.53,3.41.97,3.41,2.53,3.41,2.54-1.22,2.54-3.41Z"/>
        <path class="gp-cls-2" d="M1194.8,810.55h-2.7c-.12-.86-.57-1.43-1.46-1.43-.61,0-1.04.3-1.04.93s.48,1.06,2.19,1.47c2.28.54,3.21,1.68,3.21,3.27,0,2.07-1.98,3.12-4.07,3.12-2.62,0-4.39-1.05-4.56-3.38h2.7c.18.98.97,1.4,1.79,1.4.75,0,1.32-.39,1.32-.96,0-.54-.39-1-1.67-1.32-2.35-.58-3.73-1.32-3.73-3.39s1.86-3.12,3.92-3.12c2.73,0,3.87,1.49,4.09,3.41Z"/>
        <path class="gp-cls-2" d="M1203.27,820.7v-15h1.74v15h-1.74Z"/>
        <path class="gp-cls-2" d="M1222.16,817.7h-7.93v-10.35h7.78v2.1h-5.08v2.01h4.79v2.1h-4.79v2.04h5.24v2.1Z"/>
        <path class="gp-cls-2" d="M1230.03,814.21l-2.01,3.5h-3.25l3.71-5.22-3.45-5.13h3.15l1.95,3.45,2.1-3.45h3.1l-3.62,5.08,3.65,5.26h-3.15l-2.18-3.5Z"/>
        <path class="gp-cls-2" d="M1243.53,809.45v8.25h-2.7v-8.25h-3.36v-2.1h9.42v2.1h-3.36Z"/>
        <path class="gp-cls-2" d="M1258.74,817.7h-2.94c-.24-.74-.39-1.33-.48-2.07-.13-1.14-.58-1.8-1.28-1.84-.3-.01-.55-.01-.85-.01h-.6v3.93h-2.7v-10.35h4.11c.65,0,1.07.01,1.62.08,1.5.18,2.8.92,2.8,2.75,0,1.3-.71,2.17-2.09,2.58,1.08.39,1.47,1.19,1.62,2.43.13,1.17.38,1.9.78,2.52ZM1253.57,811.82c.29,0,.52,0,.72-.01.69-.06,1.32-.3,1.32-1.17s-.55-1.11-1.24-1.17c-.2-.02-.44-.02-.72-.02h-1.05v2.37h.98Z"/>
        <path class="gp-cls-2" d="M1264.67,815.02l-.87,2.68h-2.87l3.74-10.35h3.3l3.73,10.35h-2.94l-.87-2.68h-3.22ZM1265.33,812.92h1.92l-.96-3.18-.96,3.18Z"/>
        <path class="gp-cls-2" d="M1286.94,810.55h-2.7c-.12-.86-.57-1.43-1.46-1.43-.62,0-1.04.3-1.04.93s.48,1.06,2.19,1.47c2.28.54,3.21,1.68,3.21,3.27,0,2.07-1.98,3.12-4.07,3.12-2.62,0-4.39-1.05-4.56-3.38h2.7c.18.98.97,1.4,1.79,1.4.75,0,1.32-.39,1.32-.96,0-.54-.39-1-1.67-1.32-2.35-.58-3.73-1.32-3.73-3.39s1.86-3.12,3.92-3.12c2.73,0,3.87,1.49,4.09,3.41Z"/>
        <path class="gp-cls-2" d="M1299.56,813.16c0,.53,0,.84-.04,1.46-.12,1.74-1.35,3.3-4.54,3.3s-4.43-1.56-4.54-3.3c-.04-.62-.04-.93-.04-1.46v-5.8h2.7v6.3c0,.29,0,.43.02.62.07,1.08.69,1.67,1.88,1.67s1.8-.58,1.88-1.67c.02-.18.02-.33.02-.62v-6.3h2.7v5.8Z"/>
        <path class="gp-cls-2" d="M1305.69,815.02l-.87,2.68h-2.87l3.74-10.35h3.3l3.73,10.35h-2.94l-.87-2.68h-3.22ZM1306.35,812.92h1.92l-.96-3.18-.96,3.18Z"/>
        <path class="gp-cls-2" d="M1317.41,817.7l-3.73-10.35h2.94l2.47,8.26,2.49-8.26h2.87l-3.74,10.35h-3.3Z"/>
        <path class="gp-cls-2" d="M1335.41,817.7h-7.94v-10.35h7.79v2.1h-5.09v2.01h4.79v2.1h-4.79v2.04h5.24v2.1Z"/>
        <path class="gp-cls-2" d="M1346.73,810.55h-2.7c-.12-.86-.57-1.43-1.46-1.43-.62,0-1.04.3-1.04.93s.48,1.06,2.19,1.47c2.28.54,3.21,1.68,3.21,3.27,0,2.07-1.98,3.12-4.07,3.12-2.62,0-4.39-1.05-4.56-3.38h2.7c.18.98.97,1.4,1.79,1.4.75,0,1.32-.39,1.32-.96,0-.54-.39-1-1.67-1.32-2.35-.58-3.73-1.32-3.73-3.39s1.86-3.12,3.92-3.12c2.73,0,3.87,1.49,4.09,3.41Z"/>
      </g>
    </g>
    <g>
      <rect class="gp-cls-2" x="504.91" y="885.96" width="63.85" height=".5" transform="translate(-3.11 1.89) rotate(-.2)"/>
      <g>
        <path class="gp-cls-2" d="M523.96,815.15c-.86-.9-1.91-1.37-3.13-1.4-1.27-.04-2.37.41-3.28,1.33-.91.92-1.37,2.04-1.36,3.32s.44,2.31,1.29,3.19c.85.89,1.9,1.36,3.12,1.38.05,0,.11,0,.16,0,1.2,0,2.25-.45,3.13-1.34.91-.92,1.38-2.03,1.37-3.29s-.44-2.31-1.29-3.2M522.85,820.58c-.62.66-1.35.96-2.24.92-.83-.03-1.51-.35-2.08-.98-.57-.63-.85-1.37-.84-2.21,0-.85.31-1.58.9-2.19.59-.6,1.29-.89,2.13-.9.01,0,.03,0,.04,0,.81,0,1.49.29,2.07.89.57.6.88,1.32.91,2.16.02.88-.28,1.65-.9,2.31"/>
        <path class="gp-cls-2" d="M530.67,813.73c-1.12,0-2.07.39-2.81,1.16-.74.76-1.12,1.73-1.11,2.87l.02,5.01h1.51s-.02-5.13-.02-5.13c0-.66.23-1.22.72-1.71.49-.48,1.05-.72,1.71-.72s1.2.23,1.7.71c.49.48.73,1.04.73,1.7l.02,5.13h1.51s-.02-5.01-.02-5.01c0-1.14-.38-2.11-1.13-2.86-.75-.76-1.69-1.14-2.81-1.14"/>
        <path class="gp-cls-2" d="M540.82,813.68c-1.28-.05-2.38.4-3.29,1.32-.91.92-1.37,2.04-1.36,3.32s.44,2.31,1.29,3.19c.85.89,1.9,1.36,3.1,1.4.05,0,.1,0,.15,0,1.16,0,2.18-.42,3.03-1.24v1.03s1.51,0,1.51,0l-.02-4.43c.04-1.22-.38-2.3-1.25-3.19-.86-.89-1.93-1.37-3.16-1.4M543.72,818.2c.02.9-.27,1.65-.9,2.31-.62.66-1.35.96-2.23.92-.82-.03-1.5-.36-2.08-.99-.57-.63-.86-1.37-.84-2.21,0-.85.31-1.58.9-2.17.6-.6,1.31-.9,2.17-.9s1.5.29,2.08.89c.58.59.88,1.32.9,2.16"/>
        <path class="gp-cls-2" d="M550.49,815.19v-1.49s-.19,0-.19,0c-.48-.02-.95.09-1.4.34-.3.16-.56.37-.77.61v-.78s-1.44,0-1.44,0l.03,8.83h1.57s-.02-5.25-.02-5.25c0-.51.08-.91.25-1.21.11-.18.32-.4.62-.65.29-.24.68-.37,1.16-.39h.18Z"/>
        <path class="gp-cls-2" d="M558.05,819.87c-.62.99-1.53,1.48-2.79,1.51-.86.01-1.62-.29-2.26-.91-.64-.62-.96-1.35-.96-2.23s.33-1.61,1.02-2.26c.65-.62,1.39-.92,2.21-.91,1.25.02,2.15.54,2.76,1.59l.06.09h1.68s-.28-.64-.28-.64c-.33-.72-.89-1.33-1.65-1.8-.8-.49-1.67-.73-2.6-.72-1.29.03-2.41.5-3.33,1.41-.93.91-1.38,2.02-1.36,3.29.01,1.26.49,2.35,1.42,3.23.92.88,2.04,1.32,3.31,1.33.02,0,.05,0,.07,0,1.89,0,3.31-.86,4.21-2.55l.25-.53h-1.68s-.06.09-.06.09Z"/>
        <path class="gp-cls-2" d="M567.26,814.75c-.8-.77-1.76-1.14-2.86-1.08-.89.05-1.66.39-2.28,1.02v-3.86s-1.52,0-1.52,0l.04,11.81h1.51s-.02-5.21-.02-5.21c0-.67.22-1.21.68-1.65.46-.44,1.01-.66,1.69-.67.66-.02,1.22.2,1.72.69.5.48.74,1.04.74,1.71l.02,5.11h1.51s-.02-5,-.02-5c0-1.13-.41-2.1-1.2-2.87"/>
        <polygon class="gp-cls-2" points="509.71 820.55 506.62 813.17 504.7 813.18 504.73 822.85 506.24 822.84 506.21 815.94 509.17 822.83 510.31 822.83 513.27 815.88 513.3 822.82 514.79 822.81 514.76 813.15 512.88 813.15 509.71 820.55"/>
      </g>
    </g>
    <g>
      <g>
        <g>
          <path class="gp-cls-2" d="M526.61,796.59l-.31-2.44c-.08-.59-.59-1.04-1.18-1.04h-1.06s-.07.01-.1.02l-2.09.94h-1.14c-.39,0-.71.33-.71.72s.32.71.72.71h1.43s.07-.01.11-.03l.64-.32.47,5.36c.01.12.11.22.24.22h1.9c.12,0,.23-.1.24-.23l.21-3.11c.19-.01.36-.1.49-.24.13-.15.2-.36.17-.56Z"/>
          <path class="gp-cls-2" d="M524.51,790.26c.66,0,1.19.53,1.19,1.19s-.53,1.19-1.19,1.19-1.19-.53-1.19-1.19c0-.66.53-1.19,1.19-1.19Z"/>
        </g>
        <polygon class="gp-cls-2" points="519.23 800.07 518.66 796.81 517.98 796.81 518.67 800.75 521.38 800.74 522.04 796.8 521.36 796.8 520.81 800.07 519.23 800.07"/>
        <rect class="gp-cls-2" x="519.67" y="795.86" width="1.07" height="1.07" rx=".27" ry=".27" transform="translate(-419.89 615.28) rotate(-44.43)"/>
        <rect class="gp-cls-2" x="519.45" y="797.46" width=".92" height=".92" rx=".22" ry=".22" transform="translate(-5.56 3.66) rotate(-.4)"/>
      </g>
    </g>
    <circle class="gp-cls-2" cx="1466.23" cy="706.86" r="21.26"/>
    <g>
      <g>
        <path class="gp-cls-18" d="M1453.46,698.58v5.12h-1.67v-5.12h-2.08v-1.3h5.84v1.3h-2.08Z"/>
        <path class="gp-cls-18" d="M1457.9,702.03l-.54,1.66h-1.78l2.32-6.42h2.05l2.32,6.42h-1.82l-.54-1.66h-2ZM1458.31,700.73h1.19l-.6-1.97-.6,1.97Z"/>
        <path class="gp-cls-18" d="M1468.54,703.7h-4.92v-6.42h1.67v5h3.25v1.41Z"/>
        <path class="gp-cls-18" d="M1475.13,703.7h-4.92v-6.42h1.67v5h3.25v1.41Z"/>
        <path class="gp-cls-18" d="M1478.4,702.03l-.54,1.66h-1.78l2.32-6.42h2.05l2.32,6.42h-1.82l-.54-1.66h-2ZM1478.81,700.73h1.19l-.6-1.97-.6,1.97Z"/>
      </g>
      <path class="gp-cls-18" d="M1472.49,711.25h-4.19c-.19-1.33-.88-2.21-2.26-2.21-.95,0-1.61.47-1.61,1.44s.74,1.65,3.4,2.28c3.54.84,4.98,2.61,4.98,5.07,0,3.21-3.07,4.84-6.31,4.84-4.07,0-6.82-1.63-7.07-5.23h4.19c.28,1.51,1.51,2.16,2.77,2.16,1.16,0,2.05-.6,2.05-1.49,0-.84-.61-1.56-2.58-2.05-3.65-.91-5.79-2.05-5.79-5.26s2.88-4.84,6.07-4.84c4.23,0,6,2.3,6.35,5.28Z"/>
    </g>
    <g>
      <path class="gp-cls-2" d="M1314.99,879.34h-.45v-2.24s.01,0,.02,0c.33,0,.65,0,.98,0,.13,0,.27,0,.4.04.21.05.34.19.4.39.06.19.04.38-.07.55-.09.13-.22.21-.38.24-.03,0-.07.01-.1.02,0,0,0,0,0,0,.14.08.25.19.34.33.14.21.27.43.41.64,0,0,0,0,0,.01,0,0-.02,0-.02,0-.16,0-.32,0-.49,0-.02,0-.03,0-.04-.02-.15-.22-.3-.44-.44-.66-.04-.05-.08-.1-.12-.15-.05-.06-.12-.09-.19-.09-.08,0-.16,0-.25-.01v.94ZM1314.99,878.04s.01,0,.02,0c.12,0,.24,0,.36,0,.1,0,.21,0,.31-.02.05,0,.1-.03.13-.06.06-.06.08-.13.08-.21,0-.08-.02-.15-.08-.2-.05-.05-.12-.07-.18-.07-.21,0-.42,0-.64,0,0,0,0,0-.01,0v.56Z"/>
      <g>
        <path class="gp-cls-2" d="M1315.54,880.33c-1.13,0-2.08-.9-2.11-2.06-.03-1.17.9-2.13,2.05-2.16,1.17-.03,2.14.9,2.17,2.06.03,1.19-.93,2.16-2.11,2.16M1313.68,878.22c0,1.02.83,1.85,1.84,1.85,1.03,0,1.88-.83,1.87-1.87,0-1.01-.83-1.83-1.84-1.84-1.03,0-1.87.83-1.87,1.85"/>
        <path class="gp-cls-2" d="M1176.66,896.88c-.08.54-.33,1.62-.43,1.97h-6.15v-.42c1.04-.09,1.16-.15,1.16-1.16v-4.46c0-1.04-.11-1.1-.98-1.17v-.42h5.68c0,.21.06,1.03.11,1.79l-.43.06c-.1-.41-.28-.82-.5-1.03-.22-.21-.54-.3-1.17-.3h-.61c-.47,0-.5.02-.5.41v2.5h.82c1.01,0,1.18-.07,1.33-.89h.43v2.38h-.43c-.15-.84-.32-.89-1.33-.89h-.82v1.99c0,.56.04.87.29.97.21.1.66.11,1.1.11.59,0,1.05-.06,1.33-.37.23-.26.46-.64.67-1.17l.43.1Z"/>
        <path class="gp-cls-2" d="M1188.25,893.14c-.23-.74-.71-1.62-1.68-1.62-.71,0-1.19.5-1.19,1.16s.43,1.01,1.51,1.52c1.27.59,2.12,1.25,2.12,2.41,0,1.35-1.17,2.41-2.91,2.41-.43,0-.86-.06-1.21-.18-.34-.1-.58-.19-.72-.27-.11-.28-.27-1.31-.35-2.02l.42-.13c.23.75.96,2.1,2.1,2.1.74,0,1.2-.49,1.2-1.25,0-.69-.54-1.12-1.44-1.57-1.25-.61-2.08-1.24-2.08-2.37,0-1.31,1.07-2.31,2.74-2.31.79,0,1.49.25,1.69.31.04.43.13.95.22,1.7l-.41.09Z"/>
        <path class="gp-cls-2" d="M1202.71,896.88c-.08.54-.33,1.62-.42,1.97h-6.15v-.42c1.04-.09,1.16-.15,1.16-1.16v-4.46c0-1.04-.11-1.1-.98-1.17v-.42h5.68c0,.21.06,1.03.11,1.79l-.43.06c-.1-.41-.28-.82-.5-1.03-.22-.21-.54-.3-1.17-.3h-.61c-.47,0-.5.02-.5.41v2.5h.82c1.01,0,1.18-.07,1.33-.89h.43v2.38h-.43c-.15-.84-.32-.89-1.33-.89h-.82v1.99c0,.56.04.87.29.97.21.1.66.11,1.1.11.59,0,1.05-.06,1.33-.37.23-.26.46-.64.67-1.17l.42.1Z"/>
        <path class="gp-cls-2" d="M1218.2,891.64c-.63.04-.89.19-.95.76-.05.36-.12.9-.12,1.94v4.64h-.56l-5.12-5.89h-.02v2.66c0,1.03.05,1.52.09,1.88.06.54.26.76,1.16.81v.42h-2.94v-.42c.66-.06.95-.25,1-.76.05-.4.12-.89.12-1.93v-2.45c0-.76-.02-.97-.26-1.25-.22-.28-.5-.36-.99-.41v-.42h2.22l4.71,5.18h.03v-2.05c0-1.04-.07-1.58-.1-1.92-.06-.53-.31-.74-1.19-.79v-.42h2.92v.42Z"/>
        <path class="gp-cls-2" d="M1232.98,896.8c-.17.59-.49,1.51-.69,1.91-.31.06-1.48.32-2.3.32-3.23,0-4.62-2.05-4.62-3.92,0-2.41,1.93-4.08,4.85-4.08,1.02,0,1.94.26,2.26.33.1.64.21,1.18.28,1.96l-.44.07c-.38-1.42-1.37-1.83-2.33-1.83-1.82,0-2.79,1.6-2.79,3.31,0,2.17,1.23,3.58,2.93,3.58,1.04,0,1.81-.62,2.43-1.85l.42.19Z"/>
        <path class="gp-cls-2" d="M1240.19,898.85v-.42c.9-.09,1.02-.15,1.02-1.16v-4.48c0-1-.12-1.08-1.02-1.16v-.42h3.61v.42c-.9.08-1,.15-1,1.16v4.48c0,1.01.1,1.08,1,1.16v.42h-3.61Z"/>
        <path class="gp-cls-2" d="M1272.15,896.83c-.1.51-.35,1.69-.44,2.02h-5.88v-.42c1.07-.09,1.2-.15,1.2-1.17v-4.47c0-1-.13-1.08-1.06-1.16v-.42h3.68v.42c-.92.08-1.04.15-1.04,1.16v4.58c0,.55.04.75.29.86.22.08.54.09.91.09.51,0,.96-.08,1.24-.39.22-.25.44-.62.68-1.23l.42.13Z"/>
        <path class="gp-cls-2" d="M1257.41,897.14c-.79-2.01-1.53-4.05-2.3-6.1l-.62.15-2.46,5.99c-.41,1.01-.54,1.16-1.36,1.25l-.02.42h2.69v-.42c-.88-.11-.9-.28-.72-.82.14-.47.31-.91.44-1.29.31-.83.83-2.31,1.17-3.15h.03l1.12,3.15c.2.51.39,1.01.51,1.36.18.5.13.63-.59.75v.42h3.43v-.42c-.77-.1-.93-.26-1.33-1.29"/>
        <path class="gp-cls-2" d="M1185.23,858.77c-2.42-2.55-5.41-3.91-8.89-4.03-3.6-.12-6.74,1.15-9.34,3.76-2.59,2.61-3.91,5.78-3.91,9.42s1.22,6.56,3.62,9.1c2.41,2.54,5.4,3.87,8.87,3.96.15,0,.3,0,.45,0,3.41,0,6.4-1.27,8.9-3.77,2.61-2.61,3.93-5.75,3.93-9.34s-1.23-6.57-3.65-9.12M1182.02,874.2c-1.77,1.87-3.86,2.72-6.37,2.58-2.35-.08-4.28-1-5.91-2.81-1.61-1.79-2.41-3.91-2.35-6.3.03-2.41.9-4.5,2.59-6.21,1.68-1.7,3.66-2.53,6.05-2.53.04,0,.07,0,.11,0,2.32,0,4.24.83,5.88,2.54,1.63,1.7,2.5,3.77,2.58,6.16.05,2.49-.82,4.7-2.58,6.56"/>
        <path class="gp-cls-2" d="M1204.32,854.78c-3.2,0-5.9,1.1-8.02,3.26-2.12,2.16-3.19,4.9-3.19,8.16v14.24h4.28v-14.58c0-1.89.68-3.47,2.06-4.84,1.39-1.37,2.98-2.04,4.86-2.04s3.42.67,4.81,2.04c1.39,1.37,2.06,2.95,2.06,4.84v14.58h4.28v-14.24c0-3.25-1.07-5.99-3.19-8.16-2.12-2.16-4.8-3.26-7.97-3.26"/>
        <path class="gp-cls-2" d="M1233.19,854.74c-3.63-.14-6.78,1.11-9.38,3.72-2.59,2.61-3.91,5.78-3.91,9.42s1.22,6.56,3.63,9.1c2.41,2.54,5.38,3.89,8.81,4,.14,0,.28,0,.42,0,3.31,0,6.2-1.17,8.63-3.5v2.94h4.28v-12.59c.11-3.48-1.07-6.53-3.52-9.09-2.45-2.55-5.47-3.91-8.97-4.02M1241.39,867.62c.05,2.55-.79,4.7-2.58,6.56-1.78,1.86-3.86,2.71-6.36,2.6-2.32-.11-4.25-1.04-5.9-2.84-1.63-1.79-2.43-3.9-2.37-6.28.03-2.4.9-4.48,2.59-6.17,1.71-1.71,3.73-2.55,6.17-2.55s4.25.83,5.91,2.54c1.64,1.69,2.5,3.76,2.55,6.14"/>
        <path class="gp-cls-2" d="M1260.65,859.13v-4.24l-.52-.02c-1.36-.06-2.7.26-3.99.95-.86.46-1.59,1.03-2.2,1.73v-2.21h-4.07v25.11h4.45v-14.91c0-1.44.24-2.6.72-3.43.3-.51.9-1.13,1.78-1.84.83-.68,1.94-1.05,3.3-1.1l.52-.02Z"/>
        <path class="gp-cls-2" d="M1282.12,872.53c-1.77,2.81-4.37,4.2-7.95,4.26-2.46.02-4.62-.85-6.42-2.61-1.82-1.78-2.71-3.86-2.71-6.35s.95-4.58,2.91-6.41c1.85-1.75,3.97-2.61,6.29-2.56,3.55.08,6.11,1.57,7.82,4.54l.16.27h4.77l-.8-1.82c-.94-2.06-2.51-3.78-4.68-5.12-2.27-1.4-4.75-2.09-7.37-2.06-3.67.06-6.86,1.39-9.49,3.97-2.64,2.58-3.95,5.73-3.89,9.35.03,3.59,1.38,6.68,4,9.2,2.62,2.5,5.78,3.79,9.39,3.82.06,0,.13,0,.19,0,5.38,0,9.42-2.42,12-7.2l.71-1.51h-4.78l-.16.25Z"/>
        <path class="gp-cls-2" d="M1308.36,858.06c-2.26-2.21-4.99-3.25-8.11-3.1-2.54.12-4.72,1.09-6.49,2.89v-10.98h-4.28v33.58h4.28v-14.79c0-1.91.63-3.45,1.94-4.69,1.31-1.25,2.88-1.87,4.81-1.9,1.88-.05,3.47.59,4.88,1.97,1.41,1.38,2.09,2.97,2.09,4.86v14.53h4.28v-14.2c0-3.23-1.14-5.98-3.39-8.18"/>
        <polygon class="gp-cls-2" points="1144.65 873.97 1135.91 852.97 1130.47 852.97 1130.47 880.45 1134.74 880.45 1134.74 860.82 1143.07 880.45 1146.32 880.45 1154.82 860.73 1154.82 880.45 1159.06 880.45 1159.06 852.97 1153.73 852.97 1144.65 873.97"/>
      </g>
    </g>
  </g>
</svg>
